solid OpenSCAD_Model
  facet normal 0 -0 -1
    outer loop
      vertex 22.5161 87.3 0
      vertex 35.8511 73.965 0
      vertex 22.5161 60.63 0
    endloop
  endfacet
  facet normal 0 0 -1
    outer loop
      vertex -22.5161 87.3 0
      vertex -22.5161 60.63 0
      vertex -35.8511 73.965 0
    endloop
  endfacet
  facet normal -0 0 -1
    outer loop
      vertex 22.5161 87.3 0
      vertex 22.5161 60.63 0
      vertex -22.5161 87.3 0
    endloop
  endfacet
  facet normal 0 -0 -1
    outer loop
      vertex -22.5161 87.3 0
      vertex 22.5161 60.63 0
      vertex -22.5161 60.63 0
    endloop
  endfacet
  facet normal 0 0 -1
    outer loop
      vertex -23.6475 59.4986 0
      vertex -50.3175 59.4986 0
      vertex -36.9825 72.8336 0
    endloop
  endfacet
  facet normal 0 0 -1
    outer loop
      vertex -23.6475 14.4664 0
      vertex -50.3175 59.4986 0
      vertex -23.6475 59.4986 0
    endloop
  endfacet
  facet normal 0 0 -1
    outer loop
      vertex 23.6475 59.4986 0
      vertex 50.3175 14.4664 0
      vertex 23.6475 14.4664 0
    endloop
  endfacet
  facet normal 0 0 -1
    outer loop
      vertex -23.6475 14.4664 0
      vertex -50.3175 14.4664 0
      vertex -50.3175 59.4986 0
    endloop
  endfacet
  facet normal -0 0 -1
    outer loop
      vertex -23.6475 14.4664 0
      vertex -36.9825 1.13138 0
      vertex -50.3175 14.4664 0
    endloop
  endfacet
  facet normal 0 0 -1
    outer loop
      vertex -23.6475 -59.4986 0
      vertex -50.3175 -59.4986 0
      vertex -50.3175 -14.4664 0
    endloop
  endfacet
  facet normal 0 -0 -1
    outer loop
      vertex 36.9825 72.8336 0
      vertex 50.3175 59.4986 0
      vertex 23.6475 59.4986 0
    endloop
  endfacet
  facet normal 0 0 -1
    outer loop
      vertex 23.6475 59.4986 0
      vertex 50.3175 59.4986 0
      vertex 50.3175 14.4664 0
    endloop
  endfacet
  facet normal -0 0 -1
    outer loop
      vertex 22.5161 13.335 0
      vertex 22.5161 -13.335 0
      vertex -22.5161 13.335 0
    endloop
  endfacet
  facet normal 0 0 -1
    outer loop
      vertex 23.6475 14.4664 0
      vertex 50.3175 14.4664 0
      vertex 36.9825 1.13138 0
    endloop
  endfacet
  facet normal 0 0 -1
    outer loop
      vertex -22.5161 13.335 0
      vertex -22.5161 -13.335 0
      vertex -35.8511 0 0
    endloop
  endfacet
  facet normal -0 0 -1
    outer loop
      vertex 50.3175 -59.4986 0
      vertex 36.9825 -72.8336 0
      vertex 23.6475 -59.4986 0
    endloop
  endfacet
  facet normal -0 -0 -1
    outer loop
      vertex 50.3175 -14.4664 0
      vertex 50.3175 -59.4986 0
      vertex 23.6475 -14.4664 0
    endloop
  endfacet
  facet normal 0 -0 -1
    outer loop
      vertex 22.5161 13.335 0
      vertex 35.8511 0 0
      vertex 22.5161 -13.335 0
    endloop
  endfacet
  facet normal 0 0 -1
    outer loop
      vertex -23.6475 -59.4986 0
      vertex -50.3175 -14.4664 0
      vertex -23.6475 -14.4664 0
    endloop
  endfacet
  facet normal 0 -0 -1
    outer loop
      vertex -22.5161 13.335 0
      vertex 22.5161 -13.335 0
      vertex -22.5161 -13.335 0
    endloop
  endfacet
  facet normal 0 0 -1
    outer loop
      vertex -23.6475 -14.4664 0
      vertex -50.3175 -14.4664 0
      vertex -36.9825 -1.13138 0
    endloop
  endfacet
  facet normal 0 0 -1
    outer loop
      vertex 23.6475 -14.4664 0
      vertex 50.3175 -59.4986 0
      vertex 23.6475 -59.4986 0
    endloop
  endfacet
  facet normal -0 0 -1
    outer loop
      vertex -23.6475 -59.4986 0
      vertex -36.9825 -72.8336 0
      vertex -50.3175 -59.4986 0
    endloop
  endfacet
  facet normal -0 0 -1
    outer loop
      vertex 35.8511 -73.965 0
      vertex 22.5161 -87.3 0
      vertex 22.5161 -60.63 0
    endloop
  endfacet
  facet normal 0 0 -1
    outer loop
      vertex 50.3175 -14.4664 0
      vertex 23.6475 -14.4664 0
      vertex 36.9825 -1.13138 0
    endloop
  endfacet
  facet normal 0 0 -1
    outer loop
      vertex 22.5161 -87.3 0
      vertex -22.5161 -60.63 0
      vertex 22.5161 -60.63 0
    endloop
  endfacet
  facet normal 0 0 -1
    outer loop
      vertex -22.5161 -87.3 0
      vertex -35.8511 -73.965 0
      vertex -22.5161 -60.63 0
    endloop
  endfacet
  facet normal 0 0 -1
    outer loop
      vertex 22.5161 -87.3 0
      vertex -22.5161 -87.3 0
      vertex -22.5161 -60.63 0
    endloop
  endfacet
  facet normal 0 0 1
    outer loop
      vertex 22.5161 60.63 1
      vertex 35.8511 73.965 1
      vertex 22.5161 87.3 1
    endloop
  endfacet
  facet normal -0 0 1
    outer loop
      vertex -35.8511 73.965 1
      vertex -22.5161 60.63 1
      vertex -22.5161 87.3 1
    endloop
  endfacet
  facet normal -0 0 1
    outer loop
      vertex -22.5161 87.3 1
      vertex 22.5161 60.63 1
      vertex 22.5161 87.3 1
    endloop
  endfacet
  facet normal 0 0 1
    outer loop
      vertex -22.5161 60.63 1
      vertex 22.5161 60.63 1
      vertex -22.5161 87.3 1
    endloop
  endfacet
  facet normal 0 0 1
    outer loop
      vertex -36.9825 72.8336 1
      vertex -50.3175 59.4986 1
      vertex -23.6475 59.4986 1
    endloop
  endfacet
  facet normal 0 0 1
    outer loop
      vertex -23.6475 59.4986 1
      vertex -50.3175 59.4986 1
      vertex -23.6475 14.4664 1
    endloop
  endfacet
  facet normal 0 0 1
    outer loop
      vertex 23.6475 14.4664 1
      vertex 50.3175 14.4664 1
      vertex 23.6475 59.4986 1
    endloop
  endfacet
  facet normal 0 0 1
    outer loop
      vertex -50.3175 59.4986 1
      vertex -50.3175 14.4664 1
      vertex -23.6475 14.4664 1
    endloop
  endfacet
  facet normal -0 0 1
    outer loop
      vertex -50.3175 14.4664 1
      vertex -36.9825 1.13138 1
      vertex -23.6475 14.4664 1
    endloop
  endfacet
  facet normal 0 0 1
    outer loop
      vertex -50.3175 -14.4664 1
      vertex -50.3175 -59.4986 1
      vertex -23.6475 -59.4986 1
    endloop
  endfacet
  facet normal 0 0 1
    outer loop
      vertex 23.6475 59.4986 1
      vertex 50.3175 59.4986 1
      vertex 36.9825 72.8336 1
    endloop
  endfacet
  facet normal 0 -0 1
    outer loop
      vertex 50.3175 14.4664 1
      vertex 50.3175 59.4986 1
      vertex 23.6475 59.4986 1
    endloop
  endfacet
  facet normal 0 0 1
    outer loop
      vertex -22.5161 13.335 1
      vertex 22.5161 -13.335 1
      vertex 22.5161 13.335 1
    endloop
  endfacet
  facet normal 0 -0 1
    outer loop
      vertex 36.9825 1.13138 1
      vertex 50.3175 14.4664 1
      vertex 23.6475 14.4664 1
    endloop
  endfacet
  facet normal -0 0 1
    outer loop
      vertex -35.8511 0 1
      vertex -22.5161 -13.335 1
      vertex -22.5161 13.335 1
    endloop
  endfacet
  facet normal -0 0 1
    outer loop
      vertex 23.6475 -59.4986 1
      vertex 36.9825 -72.8336 1
      vertex 50.3175 -59.4986 1
    endloop
  endfacet
  facet normal -0 0 1
    outer loop
      vertex 23.6475 -14.4664 1
      vertex 50.3175 -59.4986 1
      vertex 50.3175 -14.4664 1
    endloop
  endfacet
  facet normal 0 0 1
    outer loop
      vertex 22.5161 -13.335 1
      vertex 35.8511 0 1
      vertex 22.5161 13.335 1
    endloop
  endfacet
  facet normal 0 0 1
    outer loop
      vertex -23.6475 -14.4664 1
      vertex -50.3175 -14.4664 1
      vertex -23.6475 -59.4986 1
    endloop
  endfacet
  facet normal -0 0 1
    outer loop
      vertex -22.5161 -13.335 1
      vertex 22.5161 -13.335 1
      vertex -22.5161 13.335 1
    endloop
  endfacet
  facet normal 0 0 1
    outer loop
      vertex -36.9825 -1.13138 1
      vertex -50.3175 -14.4664 1
      vertex -23.6475 -14.4664 1
    endloop
  endfacet
  facet normal 0 0 1
    outer loop
      vertex 23.6475 -59.4986 1
      vertex 50.3175 -59.4986 1
      vertex 23.6475 -14.4664 1
    endloop
  endfacet
  facet normal -0 0 1
    outer loop
      vertex -50.3175 -59.4986 1
      vertex -36.9825 -72.8336 1
      vertex -23.6475 -59.4986 1
    endloop
  endfacet
  facet normal 0 0 1
    outer loop
      vertex 22.5161 -60.63 1
      vertex 22.5161 -87.3 1
      vertex 35.8511 -73.965 1
    endloop
  endfacet
  facet normal 0 0 1
    outer loop
      vertex 36.9825 -1.13138 1
      vertex 23.6475 -14.4664 1
      vertex 50.3175 -14.4664 1
    endloop
  endfacet
  facet normal 0 0 1
    outer loop
      vertex 22.5161 -60.63 1
      vertex -22.5161 -60.63 1
      vertex 22.5161 -87.3 1
    endloop
  endfacet
  facet normal 0 0 1
    outer loop
      vertex -22.5161 -60.63 1
      vertex -35.8511 -73.965 1
      vertex -22.5161 -87.3 1
    endloop
  endfacet
  facet normal 0 0 1
    outer loop
      vertex -22.5161 -60.63 1
      vertex -22.5161 -87.3 1
      vertex 22.5161 -87.3 1
    endloop
  endfacet
  facet normal 0.707107 0.707107 0
    outer loop
      vertex 22.5161 87.3 0
      vertex 35.8511 73.965 1
      vertex 35.8511 73.965 0
    endloop
  endfacet
  facet normal 0.707107 0.707107 -0
    outer loop
      vertex 22.5161 87.3 0
      vertex 22.5161 87.3 1
      vertex 35.8511 73.965 1
    endloop
  endfacet
  facet normal 0 1 0
    outer loop
      vertex -22.5161 87.3 0
      vertex 22.5161 87.3 1
      vertex 22.5161 87.3 0
    endloop
  endfacet
  facet normal 0 1 0
    outer loop
      vertex -22.5161 87.3 0
      vertex -22.5161 87.3 1
      vertex 22.5161 87.3 1
    endloop
  endfacet
  facet normal -0.707106 0.707107 0
    outer loop
      vertex -35.8511 73.965 0
      vertex -22.5161 87.3 1
      vertex -22.5161 87.3 0
    endloop
  endfacet
  facet normal -0.707106 0.707107 0
    outer loop
      vertex -35.8511 73.965 0
      vertex -35.8511 73.965 1
      vertex -22.5161 87.3 1
    endloop
  endfacet
  facet normal -0.707107 -0.707107 0
    outer loop
      vertex -22.5161 60.63 0
      vertex -35.8511 73.965 1
      vertex -35.8511 73.965 0
    endloop
  endfacet
  facet normal -0.707107 -0.707107 0
    outer loop
      vertex -22.5161 60.63 0
      vertex -22.5161 60.63 1
      vertex -35.8511 73.965 1
    endloop
  endfacet
  facet normal 0 -1 0
    outer loop
      vertex 22.5161 60.63 0
      vertex -22.5161 60.63 1
      vertex -22.5161 60.63 0
    endloop
  endfacet
  facet normal 0 -1 0
    outer loop
      vertex 22.5161 60.63 0
      vertex 22.5161 60.63 1
      vertex -22.5161 60.63 1
    endloop
  endfacet
  facet normal 0.707106 -0.707107 0
    outer loop
      vertex 35.8511 73.965 0
      vertex 22.5161 60.63 1
      vertex 22.5161 60.63 0
    endloop
  endfacet
  facet normal 0.707106 -0.707107 0
    outer loop
      vertex 35.8511 73.965 0
      vertex 35.8511 73.965 1
      vertex 22.5161 60.63 1
    endloop
  endfacet
  facet normal 1 0 0
    outer loop
      vertex -23.6475 59.4986 0
      vertex -23.6475 14.4664 1
      vertex -23.6475 14.4664 0
    endloop
  endfacet
  facet normal 1 0 -0
    outer loop
      vertex -23.6475 59.4986 0
      vertex -23.6475 59.4986 1
      vertex -23.6475 14.4664 1
    endloop
  endfacet
  facet normal 0.707107 0.707107 0
    outer loop
      vertex -36.9825 72.8336 0
      vertex -23.6475 59.4986 1
      vertex -23.6475 59.4986 0
    endloop
  endfacet
  facet normal 0.707107 0.707107 -0
    outer loop
      vertex -36.9825 72.8336 0
      vertex -36.9825 72.8336 1
      vertex -23.6475 59.4986 1
    endloop
  endfacet
  facet normal -0.707107 0.707107 0
    outer loop
      vertex -50.3175 59.4986 0
      vertex -36.9825 72.8336 1
      vertex -36.9825 72.8336 0
    endloop
  endfacet
  facet normal -0.707107 0.707107 0
    outer loop
      vertex -50.3175 59.4986 0
      vertex -50.3175 59.4986 1
      vertex -36.9825 72.8336 1
    endloop
  endfacet
  facet normal -1 0 0
    outer loop
      vertex -50.3175 14.4664 0
      vertex -50.3175 59.4986 1
      vertex -50.3175 59.4986 0
    endloop
  endfacet
  facet normal -1 0 0
    outer loop
      vertex -50.3175 14.4664 0
      vertex -50.3175 14.4664 1
      vertex -50.3175 59.4986 1
    endloop
  endfacet
  facet normal -0.707107 -0.707107 0
    outer loop
      vertex -36.9825 1.13138 0
      vertex -50.3175 14.4664 1
      vertex -50.3175 14.4664 0
    endloop
  endfacet
  facet normal -0.707107 -0.707107 0
    outer loop
      vertex -36.9825 1.13138 0
      vertex -36.9825 1.13138 1
      vertex -50.3175 14.4664 1
    endloop
  endfacet
  facet normal 0.707107 -0.707107 0
    outer loop
      vertex -23.6475 14.4664 0
      vertex -36.9825 1.13138 1
      vertex -36.9825 1.13138 0
    endloop
  endfacet
  facet normal 0.707107 -0.707107 0
    outer loop
      vertex -23.6475 14.4664 0
      vertex -23.6475 14.4664 1
      vertex -36.9825 1.13138 1
    endloop
  endfacet
  facet normal 1 0 0
    outer loop
      vertex 50.3175 59.4986 0
      vertex 50.3175 14.4664 1
      vertex 50.3175 14.4664 0
    endloop
  endfacet
  facet normal 1 0 -0
    outer loop
      vertex 50.3175 59.4986 0
      vertex 50.3175 59.4986 1
      vertex 50.3175 14.4664 1
    endloop
  endfacet
  facet normal 0.707107 0.707107 0
    outer loop
      vertex 36.9825 72.8336 0
      vertex 50.3175 59.4986 1
      vertex 50.3175 59.4986 0
    endloop
  endfacet
  facet normal 0.707107 0.707107 -0
    outer loop
      vertex 36.9825 72.8336 0
      vertex 36.9825 72.8336 1
      vertex 50.3175 59.4986 1
    endloop
  endfacet
  facet normal -0.707107 0.707107 0
    outer loop
      vertex 23.6475 59.4986 0
      vertex 36.9825 72.8336 1
      vertex 36.9825 72.8336 0
    endloop
  endfacet
  facet normal -0.707107 0.707107 0
    outer loop
      vertex 23.6475 59.4986 0
      vertex 23.6475 59.4986 1
      vertex 36.9825 72.8336 1
    endloop
  endfacet
  facet normal -1 0 0
    outer loop
      vertex 23.6475 14.4664 0
      vertex 23.6475 59.4986 1
      vertex 23.6475 59.4986 0
    endloop
  endfacet
  facet normal -1 0 0
    outer loop
      vertex 23.6475 14.4664 0
      vertex 23.6475 14.4664 1
      vertex 23.6475 59.4986 1
    endloop
  endfacet
  facet normal -0.707107 -0.707107 0
    outer loop
      vertex 36.9825 1.13138 0
      vertex 23.6475 14.4664 1
      vertex 23.6475 14.4664 0
    endloop
  endfacet
  facet normal -0.707107 -0.707107 0
    outer loop
      vertex 36.9825 1.13138 0
      vertex 36.9825 1.13138 1
      vertex 23.6475 14.4664 1
    endloop
  endfacet
  facet normal 0.707107 -0.707107 0
    outer loop
      vertex 50.3175 14.4664 0
      vertex 36.9825 1.13138 1
      vertex 36.9825 1.13138 0
    endloop
  endfacet
  facet normal 0.707107 -0.707107 0
    outer loop
      vertex 50.3175 14.4664 0
      vertex 50.3175 14.4664 1
      vertex 36.9825 1.13138 1
    endloop
  endfacet
  facet normal 0.707106 0.707107 0
    outer loop
      vertex 22.5161 13.335 0
      vertex 35.8511 0 1
      vertex 35.8511 0 0
    endloop
  endfacet
  facet normal 0.707106 0.707107 -0
    outer loop
      vertex 22.5161 13.335 0
      vertex 22.5161 13.335 1
      vertex 35.8511 0 1
    endloop
  endfacet
  facet normal 3.38841e-007 1 0
    outer loop
      vertex -22.5161 13.335 0
      vertex 22.5161 13.335 1
      vertex 22.5161 13.335 0
    endloop
  endfacet
  facet normal 3.38841e-007 1 -0
    outer loop
      vertex -22.5161 13.335 0
      vertex -22.5161 13.335 1
      vertex 22.5161 13.335 1
    endloop
  endfacet
  facet normal -0.707106 0.707107 0
    outer loop
      vertex -35.8511 0 0
      vertex -22.5161 13.335 1
      vertex -22.5161 13.335 0
    endloop
  endfacet
  facet normal -0.707106 0.707107 0
    outer loop
      vertex -35.8511 0 0
      vertex -35.8511 0 1
      vertex -22.5161 13.335 1
    endloop
  endfacet
  facet normal -0.707106 -0.707107 0
    outer loop
      vertex -22.5161 -13.335 0
      vertex -35.8511 0 1
      vertex -35.8511 0 0
    endloop
  endfacet
  facet normal -0.707106 -0.707107 0
    outer loop
      vertex -22.5161 -13.335 0
      vertex -22.5161 -13.335 1
      vertex -35.8511 0 1
    endloop
  endfacet
  facet normal -3.38841e-007 -1 0
    outer loop
      vertex 22.5161 -13.335 0
      vertex -22.5161 -13.335 1
      vertex -22.5161 -13.335 0
    endloop
  endfacet
  facet normal -3.38841e-007 -1 0
    outer loop
      vertex 22.5161 -13.335 0
      vertex 22.5161 -13.335 1
      vertex -22.5161 -13.335 1
    endloop
  endfacet
  facet normal 0.707106 -0.707107 0
    outer loop
      vertex 35.8511 0 0
      vertex 22.5161 -13.335 1
      vertex 22.5161 -13.335 0
    endloop
  endfacet
  facet normal 0.707106 -0.707107 0
    outer loop
      vertex 35.8511 0 0
      vertex 35.8511 0 1
      vertex 22.5161 -13.335 1
    endloop
  endfacet
  facet normal 1 0 0
    outer loop
      vertex -23.6475 -14.4664 0
      vertex -23.6475 -59.4986 1
      vertex -23.6475 -59.4986 0
    endloop
  endfacet
  facet normal 1 0 -0
    outer loop
      vertex -23.6475 -14.4664 0
      vertex -23.6475 -14.4664 1
      vertex -23.6475 -59.4986 1
    endloop
  endfacet
  facet normal 0.707107 0.707107 0
    outer loop
      vertex -36.9825 -1.13138 0
      vertex -23.6475 -14.4664 1
      vertex -23.6475 -14.4664 0
    endloop
  endfacet
  facet normal 0.707107 0.707107 -0
    outer loop
      vertex -36.9825 -1.13138 0
      vertex -36.9825 -1.13138 1
      vertex -23.6475 -14.4664 1
    endloop
  endfacet
  facet normal -0.707107 0.707107 0
    outer loop
      vertex -50.3175 -14.4664 0
      vertex -36.9825 -1.13138 1
      vertex -36.9825 -1.13138 0
    endloop
  endfacet
  facet normal -0.707107 0.707107 0
    outer loop
      vertex -50.3175 -14.4664 0
      vertex -50.3175 -14.4664 1
      vertex -36.9825 -1.13138 1
    endloop
  endfacet
  facet normal -1 0 0
    outer loop
      vertex -50.3175 -59.4986 0
      vertex -50.3175 -14.4664 1
      vertex -50.3175 -14.4664 0
    endloop
  endfacet
  facet normal -1 0 0
    outer loop
      vertex -50.3175 -59.4986 0
      vertex -50.3175 -59.4986 1
      vertex -50.3175 -14.4664 1
    endloop
  endfacet
  facet normal -0.707107 -0.707107 0
    outer loop
      vertex -36.9825 -72.8336 0
      vertex -50.3175 -59.4986 1
      vertex -50.3175 -59.4986 0
    endloop
  endfacet
  facet normal -0.707107 -0.707107 0
    outer loop
      vertex -36.9825 -72.8336 0
      vertex -36.9825 -72.8336 1
      vertex -50.3175 -59.4986 1
    endloop
  endfacet
  facet normal 0.707107 -0.707107 0
    outer loop
      vertex -23.6475 -59.4986 0
      vertex -36.9825 -72.8336 1
      vertex -36.9825 -72.8336 0
    endloop
  endfacet
  facet normal 0.707107 -0.707107 0
    outer loop
      vertex -23.6475 -59.4986 0
      vertex -23.6475 -59.4986 1
      vertex -36.9825 -72.8336 1
    endloop
  endfacet
  facet normal 1 0 0
    outer loop
      vertex 50.3175 -14.4664 0
      vertex 50.3175 -59.4986 1
      vertex 50.3175 -59.4986 0
    endloop
  endfacet
  facet normal 1 0 -0
    outer loop
      vertex 50.3175 -14.4664 0
      vertex 50.3175 -14.4664 1
      vertex 50.3175 -59.4986 1
    endloop
  endfacet
  facet normal 0.707107 0.707107 0
    outer loop
      vertex 36.9825 -1.13138 0
      vertex 50.3175 -14.4664 1
      vertex 50.3175 -14.4664 0
    endloop
  endfacet
  facet normal 0.707107 0.707107 -0
    outer loop
      vertex 36.9825 -1.13138 0
      vertex 36.9825 -1.13138 1
      vertex 50.3175 -14.4664 1
    endloop
  endfacet
  facet normal -0.707107 0.707107 0
    outer loop
      vertex 23.6475 -14.4664 0
      vertex 36.9825 -1.13138 1
      vertex 36.9825 -1.13138 0
    endloop
  endfacet
  facet normal -0.707107 0.707107 0
    outer loop
      vertex 23.6475 -14.4664 0
      vertex 23.6475 -14.4664 1
      vertex 36.9825 -1.13138 1
    endloop
  endfacet
  facet normal -1 0 0
    outer loop
      vertex 23.6475 -59.4986 0
      vertex 23.6475 -14.4664 1
      vertex 23.6475 -14.4664 0
    endloop
  endfacet
  facet normal -1 0 0
    outer loop
      vertex 23.6475 -59.4986 0
      vertex 23.6475 -59.4986 1
      vertex 23.6475 -14.4664 1
    endloop
  endfacet
  facet normal -0.707107 -0.707107 0
    outer loop
      vertex 36.9825 -72.8336 0
      vertex 23.6475 -59.4986 1
      vertex 23.6475 -59.4986 0
    endloop
  endfacet
  facet normal -0.707107 -0.707107 0
    outer loop
      vertex 36.9825 -72.8336 0
      vertex 36.9825 -72.8336 1
      vertex 23.6475 -59.4986 1
    endloop
  endfacet
  facet normal 0.707107 -0.707107 0
    outer loop
      vertex 50.3175 -59.4986 0
      vertex 36.9825 -72.8336 1
      vertex 36.9825 -72.8336 0
    endloop
  endfacet
  facet normal 0.707107 -0.707107 0
    outer loop
      vertex 50.3175 -59.4986 0
      vertex 50.3175 -59.4986 1
      vertex 36.9825 -72.8336 1
    endloop
  endfacet
  facet normal 0.707107 0.707107 0
    outer loop
      vertex 22.5161 -60.63 0
      vertex 35.8511 -73.965 1
      vertex 35.8511 -73.965 0
    endloop
  endfacet
  facet normal 0.707107 0.707107 -0
    outer loop
      vertex 22.5161 -60.63 0
      vertex 22.5161 -60.63 1
      vertex 35.8511 -73.965 1
    endloop
  endfacet
  facet normal 0 1 0
    outer loop
      vertex -22.5161 -60.63 0
      vertex 22.5161 -60.63 1
      vertex 22.5161 -60.63 0
    endloop
  endfacet
  facet normal 0 1 0
    outer loop
      vertex -22.5161 -60.63 0
      vertex -22.5161 -60.63 1
      vertex 22.5161 -60.63 1
    endloop
  endfacet
  facet normal -0.707106 0.707107 0
    outer loop
      vertex -35.8511 -73.965 0
      vertex -22.5161 -60.63 1
      vertex -22.5161 -60.63 0
    endloop
  endfacet
  facet normal -0.707106 0.707107 0
    outer loop
      vertex -35.8511 -73.965 0
      vertex -35.8511 -73.965 1
      vertex -22.5161 -60.63 1
    endloop
  endfacet
  facet normal -0.707107 -0.707107 0
    outer loop
      vertex -22.5161 -87.3 0
      vertex -35.8511 -73.965 1
      vertex -35.8511 -73.965 0
    endloop
  endfacet
  facet normal -0.707107 -0.707107 0
    outer loop
      vertex -22.5161 -87.3 0
      vertex -22.5161 -87.3 1
      vertex -35.8511 -73.965 1
    endloop
  endfacet
  facet normal 0 -1 0
    outer loop
      vertex 22.5161 -87.3 0
      vertex -22.5161 -87.3 1
      vertex -22.5161 -87.3 0
    endloop
  endfacet
  facet normal 0 -1 0
    outer loop
      vertex 22.5161 -87.3 0
      vertex 22.5161 -87.3 1
      vertex -22.5161 -87.3 1
    endloop
  endfacet
  facet normal 0.707106 -0.707107 0
    outer loop
      vertex 35.8511 -73.965 0
      vertex 22.5161 -87.3 1
      vertex 22.5161 -87.3 0
    endloop
  endfacet
  facet normal 0.707106 -0.707107 0
    outer loop
      vertex 35.8511 -73.965 0
      vertex 35.8511 -73.965 1
      vertex 22.5161 -87.3 1
    endloop
  endfacet
endsolid OpenSCAD_Model
