solid OpenSCAD_Model
  facet normal 0 0 -1
    outer loop
      vertex 50.3175 -59.4986 0
      vertex 51.9175 -59.4986 0
      vertex 51.4489 -60.63 0
    endloop
  endfacet
  facet normal 0 0 -1
    outer loop
      vertex 51.9175 -59.4986 0
      vertex 50.3175 -59.4986 0
      vertex 51.9175 -14.4664 0
    endloop
  endfacet
  facet normal 0 0 -1
    outer loop
      vertex 50.3175 -14.4664 0
      vertex 51.9175 -14.4664 0
      vertex 50.3175 -59.4986 0
    endloop
  endfacet
  facet normal 0 0 -1
    outer loop
      vertex 38.1139 -73.965 0
      vertex 50.3175 -59.4986 0
      vertex 51.4489 -60.63 0
    endloop
  endfacet
  facet normal 0 0 -1
    outer loop
      vertex 37.1895 -74.3236 0
      vertex 38.1139 -73.965 0
      vertex 37.3966 -74.3791 0
    endloop
  endfacet
  facet normal -0 0 -1
    outer loop
      vertex 38.1139 -73.965 0
      vertex 37.1895 -74.3236 0
      vertex 36.9825 -72.8336 0
    endloop
  endfacet
  facet normal 0 0 -1
    outer loop
      vertex 38.1139 -73.965 0
      vertex 36.9825 -72.8336 0
      vertex 50.3175 -59.4986 0
    endloop
  endfacet
  facet normal 0 0 -1
    outer loop
      vertex 35.8511 -73.965 0
      vertex 37.1895 -74.3236 0
      vertex 36.9825 -75.0964 0
    endloop
  endfacet
  facet normal 0 0 -1
    outer loop
      vertex 37.1895 -74.3236 0
      vertex 35.8511 -73.965 0
      vertex 36.9825 -72.8336 0
    endloop
  endfacet
  facet normal 0 0 -1
    outer loop
      vertex 35.8511 -73.965 0
      vertex 23.6475 -59.4986 0
      vertex 36.9825 -72.8336 0
    endloop
  endfacet
  facet normal 0 0 -1
    outer loop
      vertex 22.0475 -59.03 0
      vertex 23.6475 -59.4986 0
      vertex 22.5161 -60.63 0
    endloop
  endfacet
  facet normal 0 0 -1
    outer loop
      vertex 22.5161 -60.63 0
      vertex 23.6475 -59.4986 0
      vertex 35.8511 -73.965 0
    endloop
  endfacet
  facet normal 0 0 -1
    outer loop
      vertex 51.9175 -14.4664 0
      vertex 50.3175 -14.4664 0
      vertex 51.4489 -13.335 0
    endloop
  endfacet
  facet normal 0 0 -1
    outer loop
      vertex 50.3175 -14.4664 0
      vertex 38.1139 0 0
      vertex 51.4489 -13.335 0
    endloop
  endfacet
  facet normal 0 -0 -1
    outer loop
      vertex 38.1139 0 0
      vertex 50.3175 -14.4664 0
      vertex 36.9825 -1.13138 0
    endloop
  endfacet
  facet normal 0 0 -1
    outer loop
      vertex 50.3175 14.4664 0
      vertex 51.9175 14.4664 0
      vertex 51.4489 13.335 0
    endloop
  endfacet
  facet normal 0 0 -1
    outer loop
      vertex 51.9175 14.4664 0
      vertex 50.3175 14.4664 0
      vertex 51.9175 59.4986 0
    endloop
  endfacet
  facet normal 0 0 -1
    outer loop
      vertex 50.3175 59.4986 0
      vertex 51.9175 59.4986 0
      vertex 50.3175 14.4664 0
    endloop
  endfacet
  facet normal 0 0 -1
    outer loop
      vertex 38.1139 0 0
      vertex 50.3175 14.4664 0
      vertex 51.4489 13.335 0
    endloop
  endfacet
  facet normal 0 0 -1
    outer loop
      vertex 36.9825 1.13138 0
      vertex 38.1139 0 0
      vertex 36.9825 -1.13138 0
    endloop
  endfacet
  facet normal 0 0 -1
    outer loop
      vertex 38.1139 0 0
      vertex 36.9825 1.13138 0
      vertex 50.3175 14.4664 0
    endloop
  endfacet
  facet normal 0 0 -1
    outer loop
      vertex 36.9825 -1.13138 0
      vertex 35.8511 0 0
      vertex 36.9825 1.13138 0
    endloop
  endfacet
  facet normal 0 0 -1
    outer loop
      vertex 23.6475 -14.4664 0
      vertex 35.8511 0 0
      vertex 36.9825 -1.13138 0
    endloop
  endfacet
  facet normal 0 0 -1
    outer loop
      vertex 23.6475 -14.4664 0
      vertex 22.5161 -13.335 0
      vertex 35.8511 0 0
    endloop
  endfacet
  facet normal 0 0 -1
    outer loop
      vertex 23.6475 -59.4986 0
      vertex 22.0475 -59.03 0
      vertex 23.6475 -14.4664 0
    endloop
  endfacet
  facet normal 0 0 -1
    outer loop
      vertex 22.0475 -14.935 0
      vertex 23.6475 -14.4664 0
      vertex 22.0475 -59.03 0
    endloop
  endfacet
  facet normal 0 0 -1
    outer loop
      vertex 22.5161 -60.63 0
      vertex -22.0475 -59.03 0
      vertex 22.0475 -59.03 0
    endloop
  endfacet
  facet normal 0 0 -1
    outer loop
      vertex -23.6475 -59.4986 0
      vertex -22.0475 -59.03 0
      vertex -22.5161 -60.63 0
    endloop
  endfacet
  facet normal 0 0 -1
    outer loop
      vertex -22.5161 -60.63 0
      vertex -22.0475 -59.03 0
      vertex 22.5161 -60.63 0
    endloop
  endfacet
  facet normal 0 0 -1
    outer loop
      vertex 51.9175 59.4986 0
      vertex 50.3175 59.4986 0
      vertex 51.4489 60.63 0
    endloop
  endfacet
  facet normal 0 0 -1
    outer loop
      vertex 50.3175 59.4986 0
      vertex 38.1139 73.965 0
      vertex 51.4489 60.63 0
    endloop
  endfacet
  facet normal 0 0 -1
    outer loop
      vertex 36.9825 72.8336 0
      vertex 38.1139 73.965 0
      vertex 50.3175 59.4986 0
    endloop
  endfacet
  facet normal -0 0 -1
    outer loop
      vertex 38.1139 73.965 0
      vertex 36.9825 72.8336 0
      vertex 37.3411 74.1721 0
    endloop
  endfacet
  facet normal 0 0 -1
    outer loop
      vertex 37.3411 74.1721 0
      vertex 36.9825 75.0964 0
      vertex 37.3966 74.3791 0
    endloop
  endfacet
  facet normal 0 0 -1
    outer loop
      vertex 35.8511 73.965 0
      vertex 37.3411 74.1721 0
      vertex 36.9825 72.8336 0
    endloop
  endfacet
  facet normal -0 0 -1
    outer loop
      vertex 37.3411 74.1721 0
      vertex 35.8511 73.965 0
      vertex 36.9825 75.0964 0
    endloop
  endfacet
  facet normal 0 0 -1
    outer loop
      vertex 23.6475 59.4986 0
      vertex 35.8511 73.965 0
      vertex 36.9825 72.8336 0
    endloop
  endfacet
  facet normal 0 0 -1
    outer loop
      vertex 23.6475 59.4986 0
      vertex 22.5161 60.63 0
      vertex 35.8511 73.965 0
    endloop
  endfacet
  facet normal 0 0 -1
    outer loop
      vertex 23.6475 14.4664 0
      vertex 22.0475 14.935 0
      vertex 23.6475 59.4986 0
    endloop
  endfacet
  facet normal 0 0 -1
    outer loop
      vertex 22.0475 59.03 0
      vertex 23.6475 59.4986 0
      vertex 22.0475 14.935 0
    endloop
  endfacet
  facet normal 0 0 -1
    outer loop
      vertex 22.5161 13.335 0
      vertex -22.0475 14.935 0
      vertex 22.0475 14.935 0
    endloop
  endfacet
  facet normal 0 0 -1
    outer loop
      vertex -23.6475 14.4664 0
      vertex -22.0475 14.935 0
      vertex -22.5161 13.335 0
    endloop
  endfacet
  facet normal 0 0 -1
    outer loop
      vertex -22.5161 13.335 0
      vertex -22.0475 14.935 0
      vertex 22.5161 13.335 0
    endloop
  endfacet
  facet normal 0 0 -1
    outer loop
      vertex -38.1139 -73.965 0
      vertex -36.9825 -72.8336 0
      vertex -37.3411 -74.1721 0
    endloop
  endfacet
  facet normal 0 0 -1
    outer loop
      vertex -38.1139 -73.965 0
      vertex -50.3175 -59.4986 0
      vertex -36.9825 -72.8336 0
    endloop
  endfacet
  facet normal 0 0 -1
    outer loop
      vertex -51.9175 -59.4986 0
      vertex -50.3175 -59.4986 0
      vertex -51.4489 -60.63 0
    endloop
  endfacet
  facet normal 0 0 -1
    outer loop
      vertex -51.4489 -60.63 0
      vertex -50.3175 -59.4986 0
      vertex -38.1139 -73.965 0
    endloop
  endfacet
  facet normal 0 0 -1
    outer loop
      vertex -38.1139 0 0
      vertex -50.3175 14.4664 0
      vertex -36.9825 1.13138 0
    endloop
  endfacet
  facet normal 0 0 -1
    outer loop
      vertex -51.9175 14.4664 0
      vertex -50.3175 14.4664 0
      vertex -51.4489 13.335 0
    endloop
  endfacet
  facet normal 0 0 -1
    outer loop
      vertex -51.4489 13.335 0
      vertex -50.3175 14.4664 0
      vertex -38.1139 0 0
    endloop
  endfacet
  facet normal 0 0 -1
    outer loop
      vertex -22.0475 -14.935 0
      vertex -23.6475 -14.4664 0
      vertex -22.5161 -13.335 0
    endloop
  endfacet
  facet normal 0 0 -1
    outer loop
      vertex -23.6475 -14.4664 0
      vertex -35.8511 0 0
      vertex -22.5161 -13.335 0
    endloop
  endfacet
  facet normal 0 -0 -1
    outer loop
      vertex -35.8511 0 0
      vertex -23.6475 -14.4664 0
      vertex -36.9825 -1.13138 0
    endloop
  endfacet
  facet normal 0 0 -1
    outer loop
      vertex -22.0475 59.03 0
      vertex -23.6475 59.4986 0
      vertex -22.5161 60.63 0
    endloop
  endfacet
  facet normal 0 0 -1
    outer loop
      vertex -23.6475 59.4986 0
      vertex -35.8511 73.965 0
      vertex -22.5161 60.63 0
    endloop
  endfacet
  facet normal 0 0 -1
    outer loop
      vertex -36.9825 72.8336 0
      vertex -35.8511 73.965 0
      vertex -23.6475 59.4986 0
    endloop
  endfacet
  facet normal 0 0 -1
    outer loop
      vertex -37.1895 74.3236 0
      vertex -35.8511 73.965 0
      vertex -36.9825 72.8336 0
    endloop
  endfacet
  facet normal 0 0 -1
    outer loop
      vertex -35.8511 73.965 0
      vertex -37.1895 74.3236 0
      vertex -36.9825 75.0964 0
    endloop
  endfacet
  facet normal 0 0 -1
    outer loop
      vertex -38.1139 73.965 0
      vertex -37.1895 74.3236 0
      vertex -36.9825 72.8336 0
    endloop
  endfacet
  facet normal -0 0 -1
    outer loop
      vertex -37.1895 74.3236 0
      vertex -38.1139 73.965 0
      vertex -37.3966 74.3791 0
    endloop
  endfacet
  facet normal 0 0 -1
    outer loop
      vertex -50.3175 59.4986 0
      vertex -38.1139 73.965 0
      vertex -36.9825 72.8336 0
    endloop
  endfacet
  facet normal 0 0 -1
    outer loop
      vertex -50.3175 59.4986 0
      vertex -51.4489 60.63 0
      vertex -38.1139 73.965 0
    endloop
  endfacet
  facet normal 0 0 -1
    outer loop
      vertex -50.3175 14.4664 0
      vertex -51.9175 14.4664 0
      vertex -50.3175 59.4986 0
    endloop
  endfacet
  facet normal 0 0 -1
    outer loop
      vertex -51.9175 59.4986 0
      vertex -50.3175 59.4986 0
      vertex -51.9175 14.4664 0
    endloop
  endfacet
  facet normal 0 0 -1
    outer loop
      vertex -50.3175 59.4986 0
      vertex -51.9175 59.4986 0
      vertex -51.4489 60.63 0
    endloop
  endfacet
  facet normal -0 0 -1
    outer loop
      vertex 23.6475 -14.4664 0
      vertex 22.0475 -14.935 0
      vertex 22.5161 -13.335 0
    endloop
  endfacet
  facet normal 0 0 -1
    outer loop
      vertex -22.0475 -14.935 0
      vertex 22.5161 -13.335 0
      vertex 22.0475 -14.935 0
    endloop
  endfacet
  facet normal 0 0 -1
    outer loop
      vertex -22.0475 -14.935 0
      vertex -22.5161 -13.335 0
      vertex 22.5161 -13.335 0
    endloop
  endfacet
  facet normal -0 0 -1
    outer loop
      vertex -22.0475 -59.03 0
      vertex -23.6475 -59.4986 0
      vertex -22.0475 -14.935 0
    endloop
  endfacet
  facet normal 0 0 -1
    outer loop
      vertex -23.6475 -14.4664 0
      vertex -22.0475 -14.935 0
      vertex -23.6475 -59.4986 0
    endloop
  endfacet
  facet normal 0 0 -1
    outer loop
      vertex -35.8511 -73.965 0
      vertex -23.6475 -59.4986 0
      vertex -22.5161 -60.63 0
    endloop
  endfacet
  facet normal 0 0 -1
    outer loop
      vertex -37.3411 -74.1721 0
      vertex -35.8511 -73.965 0
      vertex -36.9825 -75.0964 0
    endloop
  endfacet
  facet normal 0 0 -1
    outer loop
      vertex -35.8511 -73.965 0
      vertex -36.9825 -72.8336 0
      vertex -23.6475 -59.4986 0
    endloop
  endfacet
  facet normal -0 0 -1
    outer loop
      vertex -35.8511 -73.965 0
      vertex -37.3411 -74.1721 0
      vertex -36.9825 -72.8336 0
    endloop
  endfacet
  facet normal 0 -0 -1
    outer loop
      vertex -37.3411 -74.1721 0
      vertex -36.9825 -75.0964 0
      vertex -37.3966 -74.3791 0
    endloop
  endfacet
  facet normal -0 0 -1
    outer loop
      vertex 23.6475 59.4986 0
      vertex 22.0475 59.03 0
      vertex 22.5161 60.63 0
    endloop
  endfacet
  facet normal 0 0 -1
    outer loop
      vertex -22.0475 59.03 0
      vertex 22.5161 60.63 0
      vertex 22.0475 59.03 0
    endloop
  endfacet
  facet normal 0 0 -1
    outer loop
      vertex -22.0475 59.03 0
      vertex -22.5161 60.63 0
      vertex 22.5161 60.63 0
    endloop
  endfacet
  facet normal -0 0 -1
    outer loop
      vertex -22.0475 14.935 0
      vertex -23.6475 14.4664 0
      vertex -22.0475 59.03 0
    endloop
  endfacet
  facet normal 0 0 -1
    outer loop
      vertex -23.6475 59.4986 0
      vertex -22.0475 59.03 0
      vertex -23.6475 14.4664 0
    endloop
  endfacet
  facet normal 0 0 -1
    outer loop
      vertex -35.8511 0 0
      vertex -23.6475 14.4664 0
      vertex -22.5161 13.335 0
    endloop
  endfacet
  facet normal 0 0 -1
    outer loop
      vertex -36.9825 1.13138 0
      vertex -35.8511 0 0
      vertex -36.9825 -1.13138 0
    endloop
  endfacet
  facet normal 0 0 -1
    outer loop
      vertex -35.8511 0 0
      vertex -36.9825 1.13138 0
      vertex -23.6475 14.4664 0
    endloop
  endfacet
  facet normal 0 0 -1
    outer loop
      vertex -36.9825 -1.13138 0
      vertex -38.1139 0 0
      vertex -36.9825 1.13138 0
    endloop
  endfacet
  facet normal 0 0 -1
    outer loop
      vertex -50.3175 -14.4664 0
      vertex -38.1139 0 0
      vertex -36.9825 -1.13138 0
    endloop
  endfacet
  facet normal 0 0 -1
    outer loop
      vertex -50.3175 -14.4664 0
      vertex -51.4489 -13.335 0
      vertex -38.1139 0 0
    endloop
  endfacet
  facet normal 0 0 -1
    outer loop
      vertex -50.3175 -59.4986 0
      vertex -51.9175 -59.4986 0
      vertex -50.3175 -14.4664 0
    endloop
  endfacet
  facet normal 0 0 -1
    outer loop
      vertex -51.9175 -14.4664 0
      vertex -50.3175 -14.4664 0
      vertex -51.9175 -59.4986 0
    endloop
  endfacet
  facet normal 0 0 -1
    outer loop
      vertex -50.3175 -14.4664 0
      vertex -51.9175 -14.4664 0
      vertex -51.4489 -13.335 0
    endloop
  endfacet
  facet normal 0 0 -1
    outer loop
      vertex 23.6475 -88.4314 0
      vertex 35.8511 -73.965 0
      vertex 36.9825 -75.0964 0
    endloop
  endfacet
  facet normal 0 0 -1
    outer loop
      vertex 22.5161 -87.3 0
      vertex 23.6475 -88.4314 0
      vertex 22.5161 -88.9 0
    endloop
  endfacet
  facet normal 0 0 -1
    outer loop
      vertex 23.6475 -88.4314 0
      vertex 22.5161 -87.3 0
      vertex 35.8511 -73.965 0
    endloop
  endfacet
  facet normal 0 0 -1
    outer loop
      vertex -22.5161 -88.9 0
      vertex 22.5161 -87.3 0
      vertex 22.5161 -88.9 0
    endloop
  endfacet
  facet normal 0 0 -1
    outer loop
      vertex -22.5161 -88.9 0
      vertex -22.5161 -87.3 0
      vertex 22.5161 -87.3 0
    endloop
  endfacet
  facet normal 0 0 -1
    outer loop
      vertex -23.6475 -88.4314 0
      vertex -22.5161 -87.3 0
      vertex -22.5161 -88.9 0
    endloop
  endfacet
  facet normal 0 0 -1
    outer loop
      vertex -23.6475 -88.4314 0
      vertex -35.8511 -73.965 0
      vertex -22.5161 -87.3 0
    endloop
  endfacet
  facet normal 0 -0 -1
    outer loop
      vertex -35.8511 -73.965 0
      vertex -23.6475 -88.4314 0
      vertex -36.9825 -75.0964 0
    endloop
  endfacet
  facet normal 0 0 -1
    outer loop
      vertex 35.8511 0 0
      vertex 23.6475 14.4664 0
      vertex 36.9825 1.13138 0
    endloop
  endfacet
  facet normal 0 0 -1
    outer loop
      vertex 22.0475 14.935 0
      vertex 23.6475 14.4664 0
      vertex 22.5161 13.335 0
    endloop
  endfacet
  facet normal 0 0 -1
    outer loop
      vertex 22.5161 13.335 0
      vertex 23.6475 14.4664 0
      vertex 35.8511 0 0
    endloop
  endfacet
  facet normal 0 0 -1
    outer loop
      vertex 35.8511 73.965 0
      vertex 23.6475 88.4314 0
      vertex 36.9825 75.0964 0
    endloop
  endfacet
  facet normal 0 0 -1
    outer loop
      vertex 22.5161 87.3 0
      vertex 23.6475 88.4314 0
      vertex 35.8511 73.965 0
    endloop
  endfacet
  facet normal 0 0 -1
    outer loop
      vertex 22.5161 87.3 0
      vertex 22.5161 88.9 0
      vertex 23.6475 88.4314 0
    endloop
  endfacet
  facet normal 0 0 -1
    outer loop
      vertex -22.5161 87.3 0
      vertex 22.5161 88.9 0
      vertex 22.5161 87.3 0
    endloop
  endfacet
  facet normal 0 0 -1
    outer loop
      vertex -22.5161 87.3 0
      vertex -22.5161 88.9 0
      vertex 22.5161 88.9 0
    endloop
  endfacet
  facet normal 0 0 -1
    outer loop
      vertex -22.5161 87.3 0
      vertex -23.6475 88.4314 0
      vertex -22.5161 88.9 0
    endloop
  endfacet
  facet normal 0 0 -1
    outer loop
      vertex -35.8511 73.965 0
      vertex -23.6475 88.4314 0
      vertex -22.5161 87.3 0
    endloop
  endfacet
  facet normal 0 0 -1
    outer loop
      vertex -23.6475 88.4314 0
      vertex -35.8511 73.965 0
      vertex -36.9825 75.0964 0
    endloop
  endfacet
  facet normal 0 0 1
    outer loop
      vertex 37.3966 74.3791 15
      vertex 36.9825 75.0964 15
      vertex 37.3411 74.1721 15
    endloop
  endfacet
  facet normal 0 0 1
    outer loop
      vertex -36.9825 -75.0964 15
      vertex -37.3411 -74.1721 15
      vertex -37.3966 -74.3791 15
    endloop
  endfacet
  facet normal 0 0 1
    outer loop
      vertex -44.6804 -1.86737 15
      vertex -36.9825 -1.13138 15
      vertex -44.1321 0 15
    endloop
  endfacet
  facet normal 0 0 1
    outer loop
      vertex -46.1513 -3.14187 15
      vertex -36.9825 -1.13138 15
      vertex -44.6804 -1.86737 15
    endloop
  endfacet
  facet normal -0 0 1
    outer loop
      vertex -46.1513 -3.14187 15
      vertex -50.3175 -14.4664 15
      vertex -36.9825 -1.13138 15
    endloop
  endfacet
  facet normal -0 0 1
    outer loop
      vertex -48.0777 -3.41884 15
      vertex -50.3175 -14.4664 15
      vertex -46.1513 -3.14187 15
    endloop
  endfacet
  facet normal 0 0 1
    outer loop
      vertex -49.848 -2.61036 15
      vertex -50.3175 -14.4664 15
      vertex -48.0777 -3.41884 15
    endloop
  endfacet
  facet normal 0 0 1
    outer loop
      vertex -51.9175 -59.4986 15
      vertex -50.3175 -14.4664 15
      vertex -50.9002 -0.973104 15
    endloop
  endfacet
  facet normal 0 0 1
    outer loop
      vertex -50.9002 -0.973104 15
      vertex -50.3175 -14.4664 15
      vertex -49.848 -2.61036 15
    endloop
  endfacet
  facet normal 0 0 1
    outer loop
      vertex -35.8511 0 15
      vertex -23.6475 -14.4664 15
      vertex -22.5161 -13.335 15
    endloop
  endfacet
  facet normal 0 0 1
    outer loop
      vertex -36.9825 -1.13138 15
      vertex -35.8511 0 15
      vertex -36.9825 1.13138 15
    endloop
  endfacet
  facet normal 0 0 1
    outer loop
      vertex -35.8511 0 15
      vertex -36.9825 -1.13138 15
      vertex -23.6475 -14.4664 15
    endloop
  endfacet
  facet normal 0 0 1
    outer loop
      vertex -36.9825 1.13138 15
      vertex -44.1321 0 15
      vertex -36.9825 -1.13138 15
    endloop
  endfacet
  facet normal 0 0 1
    outer loop
      vertex -36.9825 1.13138 15
      vertex -44.6804 1.86737 15
      vertex -44.1321 0 15
    endloop
  endfacet
  facet normal 0 0 1
    outer loop
      vertex -36.9825 1.13138 15
      vertex -46.1513 3.14187 15
      vertex -44.6804 1.86737 15
    endloop
  endfacet
  facet normal 0 0 1
    outer loop
      vertex -50.3175 14.4664 15
      vertex -46.1513 3.14187 15
      vertex -36.9825 1.13138 15
    endloop
  endfacet
  facet normal 0 0 1
    outer loop
      vertex -50.3175 14.4664 15
      vertex -48.0777 3.41884 15
      vertex -46.1513 3.14187 15
    endloop
  endfacet
  facet normal 0 0 1
    outer loop
      vertex -50.3175 14.4664 15
      vertex -49.848 2.61036 15
      vertex -48.0777 3.41884 15
    endloop
  endfacet
  facet normal 0 0 1
    outer loop
      vertex -49.848 2.61036 15
      vertex -50.3175 14.4664 15
      vertex -50.9002 0.973104 15
    endloop
  endfacet
  facet normal 0 0 1
    outer loop
      vertex -35.8511 73.965 15
      vertex -23.6475 59.4986 15
      vertex -22.5161 60.63 15
    endloop
  endfacet
  facet normal -0 0 1
    outer loop
      vertex -37.1895 74.3236 15
      vertex -35.8511 73.965 15
      vertex -36.9825 75.0964 15
    endloop
  endfacet
  facet normal 0 0 1
    outer loop
      vertex -35.8511 73.965 15
      vertex -36.9825 72.8336 15
      vertex -23.6475 59.4986 15
    endloop
  endfacet
  facet normal 0 0 1
    outer loop
      vertex -35.8511 73.965 15
      vertex -37.1895 74.3236 15
      vertex -36.9825 72.8336 15
    endloop
  endfacet
  facet normal 0 0 1
    outer loop
      vertex -38.1139 73.965 15
      vertex -37.1895 74.3236 15
      vertex -37.3966 74.3791 15
    endloop
  endfacet
  facet normal 0 0 1
    outer loop
      vertex -37.1895 74.3236 15
      vertex -38.1139 73.965 15
      vertex -36.9825 72.8336 15
    endloop
  endfacet
  facet normal 0 0 1
    outer loop
      vertex -38.1139 73.965 15
      vertex -50.3175 59.4986 15
      vertex -36.9825 72.8336 15
    endloop
  endfacet
  facet normal -0 0 1
    outer loop
      vertex -51.9175 59.4986 15
      vertex -50.3175 14.4664 15
      vertex -50.3175 59.4986 15
    endloop
  endfacet
  facet normal 0 0 1
    outer loop
      vertex -50.3175 14.4664 15
      vertex -51.9175 59.4986 15
      vertex -50.9002 0.973104 15
    endloop
  endfacet
  facet normal 0 0 1
    outer loop
      vertex -51.9175 59.4986 15
      vertex -50.3175 59.4986 15
      vertex -51.4489 60.63 15
    endloop
  endfacet
  facet normal -0 0 1
    outer loop
      vertex -51.4489 60.63 15
      vertex -50.3175 59.4986 15
      vertex -38.1139 73.965 15
    endloop
  endfacet
  facet normal 0 0 1
    outer loop
      vertex 22.5161 -13.335 15
      vertex -22.0475 -14.935 15
      vertex 22.0475 -14.935 15
    endloop
  endfacet
  facet normal 0 0 1
    outer loop
      vertex -23.6475 -59.4986 15
      vertex -22.0475 -59.03 15
      vertex -22.0475 -14.935 15
    endloop
  endfacet
  facet normal 0 0 1
    outer loop
      vertex -22.5161 -13.335 15
      vertex -22.0475 -14.935 15
      vertex 22.5161 -13.335 15
    endloop
  endfacet
  facet normal -0 0 1
    outer loop
      vertex -23.6475 -14.4664 15
      vertex -22.0475 -14.935 15
      vertex -22.5161 -13.335 15
    endloop
  endfacet
  facet normal 0 0 1
    outer loop
      vertex -23.6475 -59.4986 15
      vertex -22.0475 -14.935 15
      vertex -23.6475 -14.4664 15
    endloop
  endfacet
  facet normal 0 0 1
    outer loop
      vertex -22.0475 -59.03 15
      vertex -23.6475 -59.4986 15
      vertex -22.5161 -60.63 15
    endloop
  endfacet
  facet normal 0 0 1
    outer loop
      vertex -23.6475 -59.4986 15
      vertex -35.8511 -73.965 15
      vertex -22.5161 -60.63 15
    endloop
  endfacet
  facet normal 0 -0 1
    outer loop
      vertex -35.8511 -73.965 15
      vertex -23.6475 -59.4986 15
      vertex -36.9825 -72.8336 15
    endloop
  endfacet
  facet normal 0 0 1
    outer loop
      vertex 22.5161 60.63 15
      vertex -22.0475 59.03 15
      vertex 22.0475 59.03 15
    endloop
  endfacet
  facet normal 0 0 1
    outer loop
      vertex -23.6475 14.4664 15
      vertex -22.0475 14.935 15
      vertex -22.0475 59.03 15
    endloop
  endfacet
  facet normal -0 0 1
    outer loop
      vertex -22.5161 60.63 15
      vertex -22.0475 59.03 15
      vertex 22.5161 60.63 15
    endloop
  endfacet
  facet normal -0 0 1
    outer loop
      vertex -23.6475 59.4986 15
      vertex -22.0475 59.03 15
      vertex -22.5161 60.63 15
    endloop
  endfacet
  facet normal 0 0 1
    outer loop
      vertex -23.6475 14.4664 15
      vertex -22.0475 59.03 15
      vertex -23.6475 59.4986 15
    endloop
  endfacet
  facet normal 0 0 1
    outer loop
      vertex -22.0475 14.935 15
      vertex -23.6475 14.4664 15
      vertex -22.5161 13.335 15
    endloop
  endfacet
  facet normal 0 0 1
    outer loop
      vertex -23.6475 14.4664 15
      vertex -35.8511 0 15
      vertex -22.5161 13.335 15
    endloop
  endfacet
  facet normal 0 -0 1
    outer loop
      vertex -35.8511 0 15
      vertex -23.6475 14.4664 15
      vertex -36.9825 1.13138 15
    endloop
  endfacet
  facet normal 0 0 1
    outer loop
      vertex 35.8511 73.965 15
      vertex 23.6475 59.4986 15
      vertex 36.9825 72.8336 15
    endloop
  endfacet
  facet normal -0 0 1
    outer loop
      vertex 22.0475 14.935 15
      vertex 23.6475 14.4664 15
      vertex 23.6475 59.4986 15
    endloop
  endfacet
  facet normal -0 0 1
    outer loop
      vertex 22.5161 60.63 15
      vertex 23.6475 59.4986 15
      vertex 35.8511 73.965 15
    endloop
  endfacet
  facet normal 0 0 1
    outer loop
      vertex 22.0475 59.03 15
      vertex 23.6475 59.4986 15
      vertex 22.5161 60.63 15
    endloop
  endfacet
  facet normal 0 0 1
    outer loop
      vertex 22.0475 14.935 15
      vertex 23.6475 59.4986 15
      vertex 22.0475 59.03 15
    endloop
  endfacet
  facet normal 0 0 1
    outer loop
      vertex 23.6475 14.4664 15
      vertex 22.0475 14.935 15
      vertex 22.5161 13.335 15
    endloop
  endfacet
  facet normal 0 0 1
    outer loop
      vertex -22.0475 14.935 15
      vertex 22.5161 13.335 15
      vertex 22.0475 14.935 15
    endloop
  endfacet
  facet normal 0 0 1
    outer loop
      vertex 22.5161 13.335 15
      vertex -22.0475 14.935 15
      vertex -22.5161 13.335 15
    endloop
  endfacet
  facet normal 0 0 1
    outer loop
      vertex 35.8511 0 15
      vertex 23.6475 -14.4664 15
      vertex 36.9825 -1.13138 15
    endloop
  endfacet
  facet normal -0 0 1
    outer loop
      vertex 22.0475 -59.03 15
      vertex 23.6475 -59.4986 15
      vertex 23.6475 -14.4664 15
    endloop
  endfacet
  facet normal -0 0 1
    outer loop
      vertex 22.5161 -13.335 15
      vertex 23.6475 -14.4664 15
      vertex 35.8511 0 15
    endloop
  endfacet
  facet normal 0 0 1
    outer loop
      vertex 22.0475 -14.935 15
      vertex 23.6475 -14.4664 15
      vertex 22.5161 -13.335 15
    endloop
  endfacet
  facet normal 0 0 1
    outer loop
      vertex 22.0475 -59.03 15
      vertex 23.6475 -14.4664 15
      vertex 22.0475 -14.935 15
    endloop
  endfacet
  facet normal 0 0 1
    outer loop
      vertex 23.6475 -59.4986 15
      vertex 22.0475 -59.03 15
      vertex 22.5161 -60.63 15
    endloop
  endfacet
  facet normal -0 0 1
    outer loop
      vertex -22.0475 -59.03 15
      vertex 22.5161 -60.63 15
      vertex 22.0475 -59.03 15
    endloop
  endfacet
  facet normal 0 0 1
    outer loop
      vertex 22.5161 -60.63 15
      vertex -22.0475 -59.03 15
      vertex -22.5161 -60.63 15
    endloop
  endfacet
  facet normal 0 0 1
    outer loop
      vertex 35.8511 -73.965 15
      vertex 23.6475 -88.4314 15
      vertex 36.9825 -75.0964 15
    endloop
  endfacet
  facet normal -0 0 1
    outer loop
      vertex 22.5161 -87.3 15
      vertex 23.6475 -88.4314 15
      vertex 35.8511 -73.965 15
    endloop
  endfacet
  facet normal 0 0 1
    outer loop
      vertex 22.5161 -87.3 15
      vertex 22.5161 -88.9 15
      vertex 23.6475 -88.4314 15
    endloop
  endfacet
  facet normal -0 0 1
    outer loop
      vertex -22.5161 -87.3 15
      vertex 22.5161 -88.9 15
      vertex 22.5161 -87.3 15
    endloop
  endfacet
  facet normal 0 0 1
    outer loop
      vertex -22.5161 -87.3 15
      vertex -22.5161 -88.9 15
      vertex 22.5161 -88.9 15
    endloop
  endfacet
  facet normal 0 0 1
    outer loop
      vertex -22.5161 -87.3 15
      vertex -23.6475 -88.4314 15
      vertex -22.5161 -88.9 15
    endloop
  endfacet
  facet normal 0 0 1
    outer loop
      vertex -35.8511 -73.965 15
      vertex -23.6475 -88.4314 15
      vertex -22.5161 -87.3 15
    endloop
  endfacet
  facet normal 0 0 1
    outer loop
      vertex -37.3411 -74.1721 15
      vertex -35.8511 -73.965 15
      vertex -36.9825 -72.8336 15
    endloop
  endfacet
  facet normal 0 0 1
    outer loop
      vertex -35.8511 -73.965 15
      vertex -36.9825 -75.0964 15
      vertex -23.6475 -88.4314 15
    endloop
  endfacet
  facet normal 0 0 1
    outer loop
      vertex -35.8511 -73.965 15
      vertex -37.3411 -74.1721 15
      vertex -36.9825 -75.0964 15
    endloop
  endfacet
  facet normal 0 0 1
    outer loop
      vertex -36.9825 -72.8336 15
      vertex -38.1139 -73.965 15
      vertex -37.3411 -74.1721 15
    endloop
  endfacet
  facet normal 0 0 1
    outer loop
      vertex -50.3175 -59.4986 15
      vertex -38.1139 -73.965 15
      vertex -36.9825 -72.8336 15
    endloop
  endfacet
  facet normal 0 0 1
    outer loop
      vertex -50.3175 -59.4986 15
      vertex -51.4489 -60.63 15
      vertex -38.1139 -73.965 15
    endloop
  endfacet
  facet normal 0 0 1
    outer loop
      vertex -50.3175 -14.4664 15
      vertex -51.9175 -59.4986 15
      vertex -50.3175 -59.4986 15
    endloop
  endfacet
  facet normal 0 0 1
    outer loop
      vertex -50.9002 0.973104 15
      vertex -51.9175 59.4986 15
      vertex -50.9002 -0.973104 15
    endloop
  endfacet
  facet normal 0 0 1
    outer loop
      vertex -51.9175 -59.4986 15
      vertex -50.9002 -0.973104 15
      vertex -51.9175 59.4986 15
    endloop
  endfacet
  facet normal 0 0 1
    outer loop
      vertex -50.3175 -59.4986 15
      vertex -51.9175 -59.4986 15
      vertex -51.4489 -60.63 15
    endloop
  endfacet
  facet normal -0 0 1
    outer loop
      vertex 49.021 -3.14187 15
      vertex 50.3175 -14.4664 15
      vertex 50.4918 -1.86737 15
    endloop
  endfacet
  facet normal -0 0 1
    outer loop
      vertex 47.0946 -3.41884 15
      vertex 50.3175 -14.4664 15
      vertex 49.021 -3.14187 15
    endloop
  endfacet
  facet normal 0 0 1
    outer loop
      vertex 45.3242 -2.61036 15
      vertex 50.3175 -14.4664 15
      vertex 47.0946 -3.41884 15
    endloop
  endfacet
  facet normal -0 0 1
    outer loop
      vertex 36.9825 -1.13138 15
      vertex 45.3242 -2.61036 15
      vertex 44.272 -0.973104 15
    endloop
  endfacet
  facet normal 0 0 1
    outer loop
      vertex 36.9825 -1.13138 15
      vertex 44.272 -0.973104 15
      vertex 36.9825 1.13138 15
    endloop
  endfacet
  facet normal 0 0 1
    outer loop
      vertex 45.3242 -2.61036 15
      vertex 36.9825 -1.13138 15
      vertex 50.3175 -14.4664 15
    endloop
  endfacet
  facet normal 0 0 1
    outer loop
      vertex 36.9825 1.13138 15
      vertex 35.8511 0 15
      vertex 36.9825 -1.13138 15
    endloop
  endfacet
  facet normal 0 0 1
    outer loop
      vertex 23.6475 14.4664 15
      vertex 35.8511 0 15
      vertex 36.9825 1.13138 15
    endloop
  endfacet
  facet normal 0 0 1
    outer loop
      vertex 35.8511 0 15
      vertex 23.6475 14.4664 15
      vertex 22.5161 13.335 15
    endloop
  endfacet
  facet normal 0 0 1
    outer loop
      vertex 50.3175 59.4986 15
      vertex 51.9175 59.4986 15
      vertex 51.4489 60.63 15
    endloop
  endfacet
  facet normal 0 0 1
    outer loop
      vertex 51.9175 59.4986 15
      vertex 51.0401 0 15
      vertex 51.9175 -59.4986 15
    endloop
  endfacet
  facet normal -0 0 1
    outer loop
      vertex 50.3175 -14.4664 15
      vertex 51.9175 -59.4986 15
      vertex 51.0401 0 15
    endloop
  endfacet
  facet normal 0 0 1
    outer loop
      vertex 51.9175 59.4986 15
      vertex 50.3175 14.4664 15
      vertex 51.0401 0 15
    endloop
  endfacet
  facet normal 0 0 1
    outer loop
      vertex 51.9175 59.4986 15
      vertex 50.3175 59.4986 15
      vertex 50.3175 14.4664 15
    endloop
  endfacet
  facet normal 0 0 1
    outer loop
      vertex 38.1139 73.965 15
      vertex 50.3175 59.4986 15
      vertex 51.4489 60.63 15
    endloop
  endfacet
  facet normal 0 0 1
    outer loop
      vertex 36.9825 72.8336 15
      vertex 38.1139 73.965 15
      vertex 37.3411 74.1721 15
    endloop
  endfacet
  facet normal 0 0 1
    outer loop
      vertex 38.1139 73.965 15
      vertex 36.9825 72.8336 15
      vertex 50.3175 59.4986 15
    endloop
  endfacet
  facet normal 0 0 1
    outer loop
      vertex 35.8511 73.965 15
      vertex 37.3411 74.1721 15
      vertex 36.9825 75.0964 15
    endloop
  endfacet
  facet normal 0 0 1
    outer loop
      vertex 37.3411 74.1721 15
      vertex 35.8511 73.965 15
      vertex 36.9825 72.8336 15
    endloop
  endfacet
  facet normal 0 0 1
    outer loop
      vertex 23.6475 88.4314 15
      vertex 35.8511 73.965 15
      vertex 36.9825 75.0964 15
    endloop
  endfacet
  facet normal 0 0 1
    outer loop
      vertex 22.5161 87.3 15
      vertex 23.6475 88.4314 15
      vertex 22.5161 88.9 15
    endloop
  endfacet
  facet normal 0 0 1
    outer loop
      vertex 23.6475 88.4314 15
      vertex 22.5161 87.3 15
      vertex 35.8511 73.965 15
    endloop
  endfacet
  facet normal -0 0 1
    outer loop
      vertex -22.5161 88.9 15
      vertex 22.5161 87.3 15
      vertex 22.5161 88.9 15
    endloop
  endfacet
  facet normal 0 0 1
    outer loop
      vertex -22.5161 88.9 15
      vertex -22.5161 87.3 15
      vertex 22.5161 87.3 15
    endloop
  endfacet
  facet normal -0 0 1
    outer loop
      vertex -23.6475 88.4314 15
      vertex -22.5161 87.3 15
      vertex -22.5161 88.9 15
    endloop
  endfacet
  facet normal 0 0 1
    outer loop
      vertex -23.6475 88.4314 15
      vertex -35.8511 73.965 15
      vertex -22.5161 87.3 15
    endloop
  endfacet
  facet normal 0 -0 1
    outer loop
      vertex -35.8511 73.965 15
      vertex -23.6475 88.4314 15
      vertex -36.9825 75.0964 15
    endloop
  endfacet
  facet normal 0 0 1
    outer loop
      vertex 50.3175 -14.4664 15
      vertex 51.0401 0 15
      vertex 50.4918 -1.86737 15
    endloop
  endfacet
  facet normal 0 0 1
    outer loop
      vertex 50.3175 -59.4986 15
      vertex 51.9175 -59.4986 15
      vertex 50.3175 -14.4664 15
    endloop
  endfacet
  facet normal 0 0 1
    outer loop
      vertex 51.9175 -59.4986 15
      vertex 50.3175 -59.4986 15
      vertex 51.4489 -60.63 15
    endloop
  endfacet
  facet normal 0 0 1
    outer loop
      vertex 50.3175 -59.4986 15
      vertex 38.1139 -73.965 15
      vertex 51.4489 -60.63 15
    endloop
  endfacet
  facet normal -0 0 1
    outer loop
      vertex 36.9825 -72.8336 15
      vertex 38.1139 -73.965 15
      vertex 50.3175 -59.4986 15
    endloop
  endfacet
  facet normal 0 -0 1
    outer loop
      vertex 37.1895 -74.3236 15
      vertex 38.1139 -73.965 15
      vertex 36.9825 -72.8336 15
    endloop
  endfacet
  facet normal 0 0 1
    outer loop
      vertex 38.1139 -73.965 15
      vertex 37.1895 -74.3236 15
      vertex 37.3966 -74.3791 15
    endloop
  endfacet
  facet normal -0 0 1
    outer loop
      vertex 35.8511 -73.965 15
      vertex 37.1895 -74.3236 15
      vertex 36.9825 -72.8336 15
    endloop
  endfacet
  facet normal 0 0 1
    outer loop
      vertex 37.1895 -74.3236 15
      vertex 35.8511 -73.965 15
      vertex 36.9825 -75.0964 15
    endloop
  endfacet
  facet normal 0 0 1
    outer loop
      vertex 23.6475 -59.4986 15
      vertex 35.8511 -73.965 15
      vertex 36.9825 -72.8336 15
    endloop
  endfacet
  facet normal 0 0 1
    outer loop
      vertex 35.8511 -73.965 15
      vertex 23.6475 -59.4986 15
      vertex 22.5161 -60.63 15
    endloop
  endfacet
  facet normal 0 0 1
    outer loop
      vertex 51.0401 0 15
      vertex 50.3175 14.4664 15
      vertex 50.4918 1.86737 15
    endloop
  endfacet
  facet normal 0 0 1
    outer loop
      vertex 50.3175 14.4664 15
      vertex 49.021 3.14187 15
      vertex 50.4918 1.86737 15
    endloop
  endfacet
  facet normal 0 0 1
    outer loop
      vertex 50.3175 14.4664 15
      vertex 47.0946 3.41884 15
      vertex 49.021 3.14187 15
    endloop
  endfacet
  facet normal 0 0 1
    outer loop
      vertex 50.3175 14.4664 15
      vertex 45.3242 2.61036 15
      vertex 47.0946 3.41884 15
    endloop
  endfacet
  facet normal 0 0 1
    outer loop
      vertex 36.9825 1.13138 15
      vertex 45.3242 2.61036 15
      vertex 50.3175 14.4664 15
    endloop
  endfacet
  facet normal 0 0 1
    outer loop
      vertex 44.272 0.973104 15
      vertex 36.9825 1.13138 15
      vertex 44.272 -0.973104 15
    endloop
  endfacet
  facet normal 0 0 1
    outer loop
      vertex 45.3242 2.61036 15
      vertex 36.9825 1.13138 15
      vertex 44.272 0.973104 15
    endloop
  endfacet
  facet normal 0.707106 -0.707107 0
    outer loop
      vertex 23.6475 -88.4314 0
      vertex 36.9825 -75.0964 15
      vertex 23.6475 -88.4314 15
    endloop
  endfacet
  facet normal 0.707106 -0.707107 0
    outer loop
      vertex 36.9825 -75.0964 15
      vertex 23.6475 -88.4314 0
      vertex 36.9825 -75.0964 0
    endloop
  endfacet
  facet normal 0.965925 -0.258823 0
    outer loop
      vertex 36.9825 -75.0964 15
      vertex 37.1895 -74.3236 0
      vertex 37.1895 -74.3236 15
    endloop
  endfacet
  facet normal 0.965925 -0.258823 0
    outer loop
      vertex 37.1895 -74.3236 0
      vertex 36.9825 -75.0964 15
      vertex 36.9825 -75.0964 0
    endloop
  endfacet
  facet normal -0.258814 -0.965927 0
    outer loop
      vertex 37.1895 -74.3236 0
      vertex 37.3966 -74.3791 15
      vertex 37.1895 -74.3236 15
    endloop
  endfacet
  facet normal -0.258814 -0.965927 -0
    outer loop
      vertex 37.3966 -74.3791 15
      vertex 37.1895 -74.3236 0
      vertex 37.3966 -74.3791 0
    endloop
  endfacet
  facet normal 0.499993 -0.866029 0
    outer loop
      vertex 37.3966 -74.3791 0
      vertex 38.1139 -73.965 15
      vertex 37.3966 -74.3791 15
    endloop
  endfacet
  facet normal 0.499993 -0.866029 0
    outer loop
      vertex 38.1139 -73.965 15
      vertex 37.3966 -74.3791 0
      vertex 38.1139 -73.965 0
    endloop
  endfacet
  facet normal 0.707107 -0.707107 0
    outer loop
      vertex 38.1139 -73.965 15
      vertex 51.4489 -60.63 0
      vertex 51.4489 -60.63 15
    endloop
  endfacet
  facet normal 0.707107 -0.707107 0
    outer loop
      vertex 51.4489 -60.63 0
      vertex 38.1139 -73.965 15
      vertex 38.1139 -73.965 0
    endloop
  endfacet
  facet normal 0.923881 -0.38268 0
    outer loop
      vertex 51.4489 -60.63 15
      vertex 51.9175 -59.4986 0
      vertex 51.9175 -59.4986 15
    endloop
  endfacet
  facet normal 0.923881 -0.38268 0
    outer loop
      vertex 51.9175 -59.4986 0
      vertex 51.4489 -60.63 15
      vertex 51.4489 -60.63 0
    endloop
  endfacet
  facet normal 1 0 0
    outer loop
      vertex 51.9175 59.4986 15
      vertex 51.9175 14.4664 13.4
      vertex 51.9175 59.4986 0
    endloop
  endfacet
  facet normal 1 0 0
    outer loop
      vertex 51.9175 59.4986 15
      vertex 51.9175 -14.4664 13.4
      vertex 51.9175 14.4664 13.4
    endloop
  endfacet
  facet normal 1 -0 0
    outer loop
      vertex 51.9175 -59.4986 15
      vertex 51.9175 -14.4664 13.4
      vertex 51.9175 59.4986 15
    endloop
  endfacet
  facet normal 1 0 0
    outer loop
      vertex 51.9175 -59.4986 0
      vertex 51.9175 -14.4664 13.4
      vertex 51.9175 -59.4986 15
    endloop
  endfacet
  facet normal 1 0 0
    outer loop
      vertex 51.9175 -14.4664 13.4
      vertex 51.9175 -59.4986 0
      vertex 51.9175 -14.4664 0
    endloop
  endfacet
  facet normal 1 0 0
    outer loop
      vertex 51.9175 59.4986 0
      vertex 51.9175 14.4664 13.4
      vertex 51.9175 14.4664 0
    endloop
  endfacet
  facet normal 0.923881 0.38268 0
    outer loop
      vertex 51.9175 -14.4664 13.4
      vertex 51.4489 -13.335 0
      vertex 51.4489 -13.335 13.4
    endloop
  endfacet
  facet normal 0.923881 0.38268 0
    outer loop
      vertex 51.4489 -13.335 0
      vertex 51.9175 -14.4664 13.4
      vertex 51.9175 -14.4664 0
    endloop
  endfacet
  facet normal 0.707107 0.707107 0
    outer loop
      vertex 51.4489 -13.335 13.4
      vertex 38.1139 0 0
      vertex 38.1139 0 13.4
    endloop
  endfacet
  facet normal 0.707107 0.707107 0
    outer loop
      vertex 38.1139 0 0
      vertex 51.4489 -13.335 13.4
      vertex 51.4489 -13.335 0
    endloop
  endfacet
  facet normal 0.707107 -0.707107 0
    outer loop
      vertex 38.1139 0 13.4
      vertex 51.4489 13.335 0
      vertex 51.4489 13.335 13.4
    endloop
  endfacet
  facet normal 0.707107 -0.707107 0
    outer loop
      vertex 51.4489 13.335 0
      vertex 38.1139 0 13.4
      vertex 38.1139 0 0
    endloop
  endfacet
  facet normal 0.923881 -0.38268 0
    outer loop
      vertex 51.4489 13.335 13.4
      vertex 51.9175 14.4664 0
      vertex 51.9175 14.4664 13.4
    endloop
  endfacet
  facet normal 0.923881 -0.38268 0
    outer loop
      vertex 51.9175 14.4664 0
      vertex 51.4489 13.335 13.4
      vertex 51.4489 13.335 0
    endloop
  endfacet
  facet normal 0.923881 0.38268 0
    outer loop
      vertex 51.9175 59.4986 15
      vertex 51.4489 60.63 0
      vertex 51.4489 60.63 15
    endloop
  endfacet
  facet normal 0.923881 0.38268 0
    outer loop
      vertex 51.4489 60.63 0
      vertex 51.9175 59.4986 15
      vertex 51.9175 59.4986 0
    endloop
  endfacet
  facet normal 0.707107 0.707107 0
    outer loop
      vertex 51.4489 60.63 15
      vertex 38.1139 73.965 0
      vertex 38.1139 73.965 15
    endloop
  endfacet
  facet normal 0.707107 0.707107 0
    outer loop
      vertex 38.1139 73.965 0
      vertex 51.4489 60.63 15
      vertex 51.4489 60.63 0
    endloop
  endfacet
  facet normal 0.258823 0.965925 -0
    outer loop
      vertex 38.1139 73.965 0
      vertex 37.3411 74.1721 15
      vertex 38.1139 73.965 15
    endloop
  endfacet
  facet normal 0.258823 0.965925 0
    outer loop
      vertex 37.3411 74.1721 15
      vertex 38.1139 73.965 0
      vertex 37.3411 74.1721 0
    endloop
  endfacet
  facet normal 0.965922 -0.258832 0
    outer loop
      vertex 37.3411 74.1721 15
      vertex 37.3966 74.3791 0
      vertex 37.3966 74.3791 15
    endloop
  endfacet
  facet normal 0.965922 -0.258832 0
    outer loop
      vertex 37.3966 74.3791 0
      vertex 37.3411 74.1721 15
      vertex 37.3411 74.1721 0
    endloop
  endfacet
  facet normal 0.866029 0.499993 0
    outer loop
      vertex 37.3966 74.3791 15
      vertex 36.9825 75.0964 0
      vertex 36.9825 75.0964 15
    endloop
  endfacet
  facet normal 0.866029 0.499993 0
    outer loop
      vertex 36.9825 75.0964 0
      vertex 37.3966 74.3791 15
      vertex 37.3966 74.3791 0
    endloop
  endfacet
  facet normal 0.707107 0.707107 0
    outer loop
      vertex 36.9825 75.0964 15
      vertex 23.6475 88.4314 0
      vertex 23.6475 88.4314 15
    endloop
  endfacet
  facet normal 0.707107 0.707107 0
    outer loop
      vertex 23.6475 88.4314 0
      vertex 36.9825 75.0964 15
      vertex 36.9825 75.0964 0
    endloop
  endfacet
  facet normal 0.38268 0.923881 -0
    outer loop
      vertex 23.6475 88.4314 0
      vertex 22.5161 88.9 15
      vertex 23.6475 88.4314 15
    endloop
  endfacet
  facet normal 0.38268 0.923881 0
    outer loop
      vertex 22.5161 88.9 15
      vertex 23.6475 88.4314 0
      vertex 22.5161 88.9 0
    endloop
  endfacet
  facet normal 0 1 -0
    outer loop
      vertex 22.5161 88.9 0
      vertex -22.5161 88.9 15
      vertex 22.5161 88.9 15
    endloop
  endfacet
  facet normal 0 1 0
    outer loop
      vertex -22.5161 88.9 15
      vertex 22.5161 88.9 0
      vertex -22.5161 88.9 0
    endloop
  endfacet
  facet normal -0.382685 0.923879 0
    outer loop
      vertex -22.5161 88.9 0
      vertex -23.6475 88.4314 15
      vertex -22.5161 88.9 15
    endloop
  endfacet
  facet normal -0.382685 0.923879 0
    outer loop
      vertex -23.6475 88.4314 15
      vertex -22.5161 88.9 0
      vertex -23.6475 88.4314 0
    endloop
  endfacet
  facet normal -0.707106 0.707107 0
    outer loop
      vertex -23.6475 88.4314 0
      vertex -36.9825 75.0964 15
      vertex -23.6475 88.4314 15
    endloop
  endfacet
  facet normal -0.707106 0.707107 0
    outer loop
      vertex -36.9825 75.0964 15
      vertex -23.6475 88.4314 0
      vertex -36.9825 75.0964 0
    endloop
  endfacet
  facet normal -0.965925 0.258823 0
    outer loop
      vertex -37.1895 74.3236 0
      vertex -36.9825 75.0964 15
      vertex -36.9825 75.0964 0
    endloop
  endfacet
  facet normal -0.965925 0.258823 0
    outer loop
      vertex -36.9825 75.0964 15
      vertex -37.1895 74.3236 0
      vertex -37.1895 74.3236 15
    endloop
  endfacet
  facet normal 0.258814 0.965927 -0
    outer loop
      vertex -37.1895 74.3236 0
      vertex -37.3966 74.3791 15
      vertex -37.1895 74.3236 15
    endloop
  endfacet
  facet normal 0.258814 0.965927 0
    outer loop
      vertex -37.3966 74.3791 15
      vertex -37.1895 74.3236 0
      vertex -37.3966 74.3791 0
    endloop
  endfacet
  facet normal -0.499993 0.866029 0
    outer loop
      vertex -37.3966 74.3791 0
      vertex -38.1139 73.965 15
      vertex -37.3966 74.3791 15
    endloop
  endfacet
  facet normal -0.499993 0.866029 0
    outer loop
      vertex -38.1139 73.965 15
      vertex -37.3966 74.3791 0
      vertex -38.1139 73.965 0
    endloop
  endfacet
  facet normal -0.707107 0.707107 0
    outer loop
      vertex -51.4489 60.63 0
      vertex -38.1139 73.965 15
      vertex -38.1139 73.965 0
    endloop
  endfacet
  facet normal -0.707107 0.707107 0
    outer loop
      vertex -38.1139 73.965 15
      vertex -51.4489 60.63 0
      vertex -51.4489 60.63 15
    endloop
  endfacet
  facet normal -0.923881 0.38268 0
    outer loop
      vertex -51.9175 59.4986 0
      vertex -51.4489 60.63 15
      vertex -51.4489 60.63 0
    endloop
  endfacet
  facet normal -0.923881 0.38268 0
    outer loop
      vertex -51.4489 60.63 15
      vertex -51.9175 59.4986 0
      vertex -51.9175 59.4986 15
    endloop
  endfacet
  facet normal -1 0 0
    outer loop
      vertex -51.9175 -14.4664 0
      vertex -51.9175 -59.4986 0
      vertex -51.9175 -14.4664 13.4
    endloop
  endfacet
  facet normal -1 0 0
    outer loop
      vertex -51.9175 14.4664 13.4
      vertex -51.9175 59.4986 0
      vertex -51.9175 14.4664 0
    endloop
  endfacet
  facet normal -1 0 0
    outer loop
      vertex -51.9175 59.4986 0
      vertex -51.9175 14.4664 13.4
      vertex -51.9175 59.4986 15
    endloop
  endfacet
  facet normal -1 0 0
    outer loop
      vertex -51.9175 -14.4664 13.4
      vertex -51.9175 59.4986 15
      vertex -51.9175 14.4664 13.4
    endloop
  endfacet
  facet normal -1 0 0
    outer loop
      vertex -51.9175 -14.4664 13.4
      vertex -51.9175 -59.4986 15
      vertex -51.9175 59.4986 15
    endloop
  endfacet
  facet normal -1 0 0
    outer loop
      vertex -51.9175 -59.4986 15
      vertex -51.9175 -14.4664 13.4
      vertex -51.9175 -59.4986 0
    endloop
  endfacet
  facet normal -0.923881 -0.38268 0
    outer loop
      vertex -51.4489 13.335 0
      vertex -51.9175 14.4664 13.4
      vertex -51.9175 14.4664 0
    endloop
  endfacet
  facet normal -0.923881 -0.38268 0
    outer loop
      vertex -51.9175 14.4664 13.4
      vertex -51.4489 13.335 0
      vertex -51.4489 13.335 13.4
    endloop
  endfacet
  facet normal -0.707107 -0.707107 0
    outer loop
      vertex -38.1139 0 0
      vertex -51.4489 13.335 13.4
      vertex -51.4489 13.335 0
    endloop
  endfacet
  facet normal -0.707107 -0.707107 0
    outer loop
      vertex -51.4489 13.335 13.4
      vertex -38.1139 0 0
      vertex -38.1139 0 13.4
    endloop
  endfacet
  facet normal -0.707107 0.707107 0
    outer loop
      vertex -51.4489 -13.335 0
      vertex -38.1139 0 13.4
      vertex -38.1139 0 0
    endloop
  endfacet
  facet normal -0.707107 0.707107 0
    outer loop
      vertex -38.1139 0 13.4
      vertex -51.4489 -13.335 0
      vertex -51.4489 -13.335 13.4
    endloop
  endfacet
  facet normal -0.923881 0.38268 0
    outer loop
      vertex -51.9175 -14.4664 0
      vertex -51.4489 -13.335 13.4
      vertex -51.4489 -13.335 0
    endloop
  endfacet
  facet normal -0.923881 0.38268 0
    outer loop
      vertex -51.4489 -13.335 13.4
      vertex -51.9175 -14.4664 0
      vertex -51.9175 -14.4664 13.4
    endloop
  endfacet
  facet normal -0.923881 -0.38268 0
    outer loop
      vertex -51.4489 -60.63 0
      vertex -51.9175 -59.4986 15
      vertex -51.9175 -59.4986 0
    endloop
  endfacet
  facet normal -0.923881 -0.38268 0
    outer loop
      vertex -51.9175 -59.4986 15
      vertex -51.4489 -60.63 0
      vertex -51.4489 -60.63 15
    endloop
  endfacet
  facet normal -0.707107 -0.707107 0
    outer loop
      vertex -38.1139 -73.965 0
      vertex -51.4489 -60.63 15
      vertex -51.4489 -60.63 0
    endloop
  endfacet
  facet normal -0.707107 -0.707107 0
    outer loop
      vertex -51.4489 -60.63 15
      vertex -38.1139 -73.965 0
      vertex -38.1139 -73.965 15
    endloop
  endfacet
  facet normal -0.258823 -0.965925 0
    outer loop
      vertex -38.1139 -73.965 0
      vertex -37.3411 -74.1721 15
      vertex -38.1139 -73.965 15
    endloop
  endfacet
  facet normal -0.258823 -0.965925 -0
    outer loop
      vertex -37.3411 -74.1721 15
      vertex -38.1139 -73.965 0
      vertex -37.3411 -74.1721 0
    endloop
  endfacet
  facet normal -0.965922 0.258832 0
    outer loop
      vertex -37.3966 -74.3791 0
      vertex -37.3411 -74.1721 15
      vertex -37.3411 -74.1721 0
    endloop
  endfacet
  facet normal -0.965922 0.258832 0
    outer loop
      vertex -37.3411 -74.1721 15
      vertex -37.3966 -74.3791 0
      vertex -37.3966 -74.3791 15
    endloop
  endfacet
  facet normal -0.866029 -0.499993 0
    outer loop
      vertex -36.9825 -75.0964 0
      vertex -37.3966 -74.3791 15
      vertex -37.3966 -74.3791 0
    endloop
  endfacet
  facet normal -0.866029 -0.499993 0
    outer loop
      vertex -37.3966 -74.3791 15
      vertex -36.9825 -75.0964 0
      vertex -36.9825 -75.0964 15
    endloop
  endfacet
  facet normal -0.707107 -0.707107 0
    outer loop
      vertex -23.6475 -88.4314 0
      vertex -36.9825 -75.0964 15
      vertex -36.9825 -75.0964 0
    endloop
  endfacet
  facet normal -0.707107 -0.707107 0
    outer loop
      vertex -36.9825 -75.0964 15
      vertex -23.6475 -88.4314 0
      vertex -23.6475 -88.4314 15
    endloop
  endfacet
  facet normal -0.38268 -0.923881 0
    outer loop
      vertex -23.6475 -88.4314 0
      vertex -22.5161 -88.9 15
      vertex -23.6475 -88.4314 15
    endloop
  endfacet
  facet normal -0.38268 -0.923881 -0
    outer loop
      vertex -22.5161 -88.9 15
      vertex -23.6475 -88.4314 0
      vertex -22.5161 -88.9 0
    endloop
  endfacet
  facet normal 0 -1 0
    outer loop
      vertex -22.5161 -88.9 0
      vertex 22.5161 -88.9 15
      vertex -22.5161 -88.9 15
    endloop
  endfacet
  facet normal 0 -1 -0
    outer loop
      vertex 22.5161 -88.9 15
      vertex -22.5161 -88.9 0
      vertex 22.5161 -88.9 0
    endloop
  endfacet
  facet normal 0.382685 -0.923879 0
    outer loop
      vertex 22.5161 -88.9 0
      vertex 23.6475 -88.4314 15
      vertex 22.5161 -88.9 15
    endloop
  endfacet
  facet normal 0.382685 -0.923879 0
    outer loop
      vertex 23.6475 -88.4314 15
      vertex 22.5161 -88.9 0
      vertex 23.6475 -88.4314 0
    endloop
  endfacet
  facet normal 1 -0 0
    outer loop
      vertex -22.0475 14.935 15
      vertex -22.0475 59.03 0
      vertex -22.0475 59.03 15
    endloop
  endfacet
  facet normal 1 0 0
    outer loop
      vertex -22.0475 59.03 0
      vertex -22.0475 14.935 15
      vertex -22.0475 14.935 0
    endloop
  endfacet
  facet normal 0 -1 0
    outer loop
      vertex -22.0475 59.03 0
      vertex 22.0475 59.03 15
      vertex -22.0475 59.03 15
    endloop
  endfacet
  facet normal 0 -1 -0
    outer loop
      vertex 22.0475 59.03 15
      vertex -22.0475 59.03 0
      vertex 22.0475 59.03 0
    endloop
  endfacet
  facet normal -1 0 0
    outer loop
      vertex 22.0475 14.935 0
      vertex 22.0475 59.03 15
      vertex 22.0475 59.03 0
    endloop
  endfacet
  facet normal -1 -0 0
    outer loop
      vertex 22.0475 59.03 15
      vertex 22.0475 14.935 0
      vertex 22.0475 14.935 15
    endloop
  endfacet
  facet normal 3.46044e-007 1 -0
    outer loop
      vertex 22.0475 14.935 0
      vertex -22.0475 14.935 15
      vertex 22.0475 14.935 15
    endloop
  endfacet
  facet normal 3.46044e-007 1 0
    outer loop
      vertex -22.0475 14.935 15
      vertex 22.0475 14.935 0
      vertex -22.0475 14.935 0
    endloop
  endfacet
  facet normal 1 -0 0
    outer loop
      vertex -22.0475 -59.03 15
      vertex -22.0475 -14.935 0
      vertex -22.0475 -14.935 15
    endloop
  endfacet
  facet normal 1 0 0
    outer loop
      vertex -22.0475 -14.935 0
      vertex -22.0475 -59.03 15
      vertex -22.0475 -59.03 0
    endloop
  endfacet
  facet normal -3.46044e-007 -1 0
    outer loop
      vertex -22.0475 -14.935 0
      vertex 22.0475 -14.935 15
      vertex -22.0475 -14.935 15
    endloop
  endfacet
  facet normal -3.46044e-007 -1 -0
    outer loop
      vertex 22.0475 -14.935 15
      vertex -22.0475 -14.935 0
      vertex 22.0475 -14.935 0
    endloop
  endfacet
  facet normal -1 0 0
    outer loop
      vertex 22.0475 -59.03 0
      vertex 22.0475 -14.935 15
      vertex 22.0475 -14.935 0
    endloop
  endfacet
  facet normal -1 -0 0
    outer loop
      vertex 22.0475 -14.935 15
      vertex 22.0475 -59.03 0
      vertex 22.0475 -59.03 15
    endloop
  endfacet
  facet normal 0 1 -0
    outer loop
      vertex 22.0475 -59.03 0
      vertex -22.0475 -59.03 15
      vertex 22.0475 -59.03 15
    endloop
  endfacet
  facet normal 0 1 0
    outer loop
      vertex -22.0475 -59.03 15
      vertex 22.0475 -59.03 0
      vertex -22.0475 -59.03 0
    endloop
  endfacet
  facet normal -0.707107 -0.707107 0
    outer loop
      vertex 35.8511 73.965 0
      vertex 22.5161 87.3 15
      vertex 22.5161 87.3 0
    endloop
  endfacet
  facet normal -0.707107 -0.707107 0
    outer loop
      vertex 22.5161 87.3 15
      vertex 35.8511 73.965 0
      vertex 35.8511 73.965 15
    endloop
  endfacet
  facet normal 0 -1 0
    outer loop
      vertex -22.5161 87.3 0
      vertex 22.5161 87.3 15
      vertex -22.5161 87.3 15
    endloop
  endfacet
  facet normal 0 -1 -0
    outer loop
      vertex 22.5161 87.3 15
      vertex -22.5161 87.3 0
      vertex 22.5161 87.3 0
    endloop
  endfacet
  facet normal 0.707106 -0.707107 0
    outer loop
      vertex -35.8511 73.965 0
      vertex -22.5161 87.3 15
      vertex -35.8511 73.965 15
    endloop
  endfacet
  facet normal 0.707106 -0.707107 0
    outer loop
      vertex -22.5161 87.3 15
      vertex -35.8511 73.965 0
      vertex -22.5161 87.3 0
    endloop
  endfacet
  facet normal 0.707107 0.707107 0
    outer loop
      vertex -22.5161 60.63 15
      vertex -35.8511 73.965 0
      vertex -35.8511 73.965 15
    endloop
  endfacet
  facet normal 0.707107 0.707107 0
    outer loop
      vertex -35.8511 73.965 0
      vertex -22.5161 60.63 15
      vertex -22.5161 60.63 0
    endloop
  endfacet
  facet normal 0 1 -0
    outer loop
      vertex 22.5161 60.63 0
      vertex -22.5161 60.63 15
      vertex 22.5161 60.63 15
    endloop
  endfacet
  facet normal 0 1 0
    outer loop
      vertex -22.5161 60.63 15
      vertex 22.5161 60.63 0
      vertex -22.5161 60.63 0
    endloop
  endfacet
  facet normal -0.707106 0.707107 0
    outer loop
      vertex 35.8511 73.965 0
      vertex 22.5161 60.63 15
      vertex 35.8511 73.965 15
    endloop
  endfacet
  facet normal -0.707106 0.707107 0
    outer loop
      vertex 22.5161 60.63 15
      vertex 35.8511 73.965 0
      vertex 22.5161 60.63 0
    endloop
  endfacet
  facet normal -1 0 0
    outer loop
      vertex -23.6475 14.4664 0
      vertex -23.6475 59.4986 15
      vertex -23.6475 59.4986 0
    endloop
  endfacet
  facet normal -1 -0 0
    outer loop
      vertex -23.6475 59.4986 15
      vertex -23.6475 14.4664 0
      vertex -23.6475 14.4664 15
    endloop
  endfacet
  facet normal -0.707107 -0.707107 0
    outer loop
      vertex -23.6475 59.4986 0
      vertex -36.9825 72.8336 15
      vertex -36.9825 72.8336 0
    endloop
  endfacet
  facet normal -0.707107 -0.707107 0
    outer loop
      vertex -36.9825 72.8336 15
      vertex -23.6475 59.4986 0
      vertex -23.6475 59.4986 15
    endloop
  endfacet
  facet normal 0.707107 -0.707107 0
    outer loop
      vertex -50.3175 59.4986 15
      vertex -36.9825 72.8336 0
      vertex -36.9825 72.8336 15
    endloop
  endfacet
  facet normal 0.707107 -0.707107 0
    outer loop
      vertex -36.9825 72.8336 0
      vertex -50.3175 59.4986 15
      vertex -50.3175 59.4986 0
    endloop
  endfacet
  facet normal 1 -0 0
    outer loop
      vertex -50.3175 14.4664 15
      vertex -50.3175 59.4986 0
      vertex -50.3175 59.4986 15
    endloop
  endfacet
  facet normal 1 0 0
    outer loop
      vertex -50.3175 59.4986 0
      vertex -50.3175 14.4664 15
      vertex -50.3175 14.4664 0
    endloop
  endfacet
  facet normal 0.707107 0.707107 0
    outer loop
      vertex -36.9825 1.13138 15
      vertex -50.3175 14.4664 0
      vertex -50.3175 14.4664 15
    endloop
  endfacet
  facet normal 0.707107 0.707107 0
    outer loop
      vertex -50.3175 14.4664 0
      vertex -36.9825 1.13138 15
      vertex -36.9825 1.13138 0
    endloop
  endfacet
  facet normal -0.707107 0.707107 0
    outer loop
      vertex -36.9825 1.13138 0
      vertex -23.6475 14.4664 15
      vertex -23.6475 14.4664 0
    endloop
  endfacet
  facet normal -0.707107 0.707107 0
    outer loop
      vertex -23.6475 14.4664 15
      vertex -36.9825 1.13138 0
      vertex -36.9825 1.13138 15
    endloop
  endfacet
  facet normal -1 0 0
    outer loop
      vertex 50.3175 14.4664 0
      vertex 50.3175 59.4986 15
      vertex 50.3175 59.4986 0
    endloop
  endfacet
  facet normal -1 -0 0
    outer loop
      vertex 50.3175 59.4986 15
      vertex 50.3175 14.4664 0
      vertex 50.3175 14.4664 15
    endloop
  endfacet
  facet normal -0.707107 -0.707107 0
    outer loop
      vertex 50.3175 59.4986 0
      vertex 36.9825 72.8336 15
      vertex 36.9825 72.8336 0
    endloop
  endfacet
  facet normal -0.707107 -0.707107 0
    outer loop
      vertex 36.9825 72.8336 15
      vertex 50.3175 59.4986 0
      vertex 50.3175 59.4986 15
    endloop
  endfacet
  facet normal 0.707107 -0.707107 0
    outer loop
      vertex 23.6475 59.4986 15
      vertex 36.9825 72.8336 0
      vertex 36.9825 72.8336 15
    endloop
  endfacet
  facet normal 0.707107 -0.707107 0
    outer loop
      vertex 36.9825 72.8336 0
      vertex 23.6475 59.4986 15
      vertex 23.6475 59.4986 0
    endloop
  endfacet
  facet normal 1 -0 0
    outer loop
      vertex 23.6475 14.4664 15
      vertex 23.6475 59.4986 0
      vertex 23.6475 59.4986 15
    endloop
  endfacet
  facet normal 1 0 0
    outer loop
      vertex 23.6475 59.4986 0
      vertex 23.6475 14.4664 15
      vertex 23.6475 14.4664 0
    endloop
  endfacet
  facet normal 0.707107 0.707107 0
    outer loop
      vertex 36.9825 1.13138 15
      vertex 23.6475 14.4664 0
      vertex 23.6475 14.4664 15
    endloop
  endfacet
  facet normal 0.707107 0.707107 0
    outer loop
      vertex 23.6475 14.4664 0
      vertex 36.9825 1.13138 15
      vertex 36.9825 1.13138 0
    endloop
  endfacet
  facet normal -0.707107 0.707107 0
    outer loop
      vertex 36.9825 1.13138 0
      vertex 50.3175 14.4664 15
      vertex 50.3175 14.4664 0
    endloop
  endfacet
  facet normal -0.707107 0.707107 0
    outer loop
      vertex 50.3175 14.4664 15
      vertex 36.9825 1.13138 0
      vertex 36.9825 1.13138 15
    endloop
  endfacet
  facet normal -0.707106 -0.707107 0
    outer loop
      vertex 22.5161 13.335 15
      vertex 35.8511 0 13.4
      vertex 35.8511 0 15
    endloop
  endfacet
  facet normal -0.707106 -0.707107 0
    outer loop
      vertex 22.5161 13.335 0
      vertex 35.8511 0 13.4
      vertex 22.5161 13.335 15
    endloop
  endfacet
  facet normal -0.707106 -0.707107 -0
    outer loop
      vertex 35.8511 0 13.4
      vertex 22.5161 13.335 0
      vertex 35.8511 0 0
    endloop
  endfacet
  facet normal -3.38841e-007 -1 0
    outer loop
      vertex -22.5161 13.335 0
      vertex 22.5161 13.335 15
      vertex -22.5161 13.335 15
    endloop
  endfacet
  facet normal -3.38841e-007 -1 -0
    outer loop
      vertex 22.5161 13.335 15
      vertex -22.5161 13.335 0
      vertex 22.5161 13.335 0
    endloop
  endfacet
  facet normal 0.707106 -0.707107 0
    outer loop
      vertex -35.8511 0 13.4
      vertex -22.5161 13.335 15
      vertex -35.8511 0 15
    endloop
  endfacet
  facet normal 0.707106 -0.707107 0
    outer loop
      vertex -22.5161 13.335 0
      vertex -35.8511 0 13.4
      vertex -35.8511 0 0
    endloop
  endfacet
  facet normal 0.707106 -0.707107 0
    outer loop
      vertex -35.8511 0 13.4
      vertex -22.5161 13.335 0
      vertex -22.5161 13.335 15
    endloop
  endfacet
  facet normal 0.707106 0.707107 0
    outer loop
      vertex -22.5161 -13.335 15
      vertex -35.8511 0 13.4
      vertex -35.8511 0 15
    endloop
  endfacet
  facet normal 0.707106 0.707107 -0
    outer loop
      vertex -22.5161 -13.335 0
      vertex -35.8511 0 13.4
      vertex -22.5161 -13.335 15
    endloop
  endfacet
  facet normal 0.707106 0.707107 0
    outer loop
      vertex -35.8511 0 13.4
      vertex -22.5161 -13.335 0
      vertex -35.8511 0 0
    endloop
  endfacet
  facet normal 3.38841e-007 1 -0
    outer loop
      vertex 22.5161 -13.335 0
      vertex -22.5161 -13.335 15
      vertex 22.5161 -13.335 15
    endloop
  endfacet
  facet normal 3.38841e-007 1 0
    outer loop
      vertex -22.5161 -13.335 15
      vertex 22.5161 -13.335 0
      vertex -22.5161 -13.335 0
    endloop
  endfacet
  facet normal -0.707106 0.707107 0
    outer loop
      vertex 35.8511 0 13.4
      vertex 22.5161 -13.335 15
      vertex 35.8511 0 15
    endloop
  endfacet
  facet normal -0.707106 0.707107 0
    outer loop
      vertex 22.5161 -13.335 0
      vertex 35.8511 0 13.4
      vertex 35.8511 0 0
    endloop
  endfacet
  facet normal -0.707106 0.707107 0
    outer loop
      vertex 35.8511 0 13.4
      vertex 22.5161 -13.335 0
      vertex 22.5161 -13.335 15
    endloop
  endfacet
  facet normal -1 0 0
    outer loop
      vertex -23.6475 -59.4986 0
      vertex -23.6475 -14.4664 15
      vertex -23.6475 -14.4664 0
    endloop
  endfacet
  facet normal -1 -0 0
    outer loop
      vertex -23.6475 -14.4664 15
      vertex -23.6475 -59.4986 0
      vertex -23.6475 -59.4986 15
    endloop
  endfacet
  facet normal -0.707107 -0.707107 0
    outer loop
      vertex -23.6475 -14.4664 0
      vertex -36.9825 -1.13138 15
      vertex -36.9825 -1.13138 0
    endloop
  endfacet
  facet normal -0.707107 -0.707107 0
    outer loop
      vertex -36.9825 -1.13138 15
      vertex -23.6475 -14.4664 0
      vertex -23.6475 -14.4664 15
    endloop
  endfacet
  facet normal 0.707107 -0.707107 0
    outer loop
      vertex -50.3175 -14.4664 15
      vertex -36.9825 -1.13138 0
      vertex -36.9825 -1.13138 15
    endloop
  endfacet
  facet normal 0.707107 -0.707107 0
    outer loop
      vertex -36.9825 -1.13138 0
      vertex -50.3175 -14.4664 15
      vertex -50.3175 -14.4664 0
    endloop
  endfacet
  facet normal 1 -0 0
    outer loop
      vertex -50.3175 -59.4986 15
      vertex -50.3175 -14.4664 0
      vertex -50.3175 -14.4664 15
    endloop
  endfacet
  facet normal 1 0 0
    outer loop
      vertex -50.3175 -14.4664 0
      vertex -50.3175 -59.4986 15
      vertex -50.3175 -59.4986 0
    endloop
  endfacet
  facet normal 0.707107 0.707107 0
    outer loop
      vertex -36.9825 -72.8336 15
      vertex -50.3175 -59.4986 0
      vertex -50.3175 -59.4986 15
    endloop
  endfacet
  facet normal 0.707107 0.707107 0
    outer loop
      vertex -50.3175 -59.4986 0
      vertex -36.9825 -72.8336 15
      vertex -36.9825 -72.8336 0
    endloop
  endfacet
  facet normal -0.707107 0.707107 0
    outer loop
      vertex -36.9825 -72.8336 0
      vertex -23.6475 -59.4986 15
      vertex -23.6475 -59.4986 0
    endloop
  endfacet
  facet normal -0.707107 0.707107 0
    outer loop
      vertex -23.6475 -59.4986 15
      vertex -36.9825 -72.8336 0
      vertex -36.9825 -72.8336 15
    endloop
  endfacet
  facet normal -1 0 0
    outer loop
      vertex 50.3175 -59.4986 0
      vertex 50.3175 -14.4664 15
      vertex 50.3175 -14.4664 0
    endloop
  endfacet
  facet normal -1 -0 0
    outer loop
      vertex 50.3175 -14.4664 15
      vertex 50.3175 -59.4986 0
      vertex 50.3175 -59.4986 15
    endloop
  endfacet
  facet normal -0.707107 -0.707107 0
    outer loop
      vertex 50.3175 -14.4664 0
      vertex 36.9825 -1.13138 15
      vertex 36.9825 -1.13138 0
    endloop
  endfacet
  facet normal -0.707107 -0.707107 0
    outer loop
      vertex 36.9825 -1.13138 15
      vertex 50.3175 -14.4664 0
      vertex 50.3175 -14.4664 15
    endloop
  endfacet
  facet normal 0.707107 -0.707107 0
    outer loop
      vertex 23.6475 -14.4664 15
      vertex 36.9825 -1.13138 0
      vertex 36.9825 -1.13138 15
    endloop
  endfacet
  facet normal 0.707107 -0.707107 0
    outer loop
      vertex 36.9825 -1.13138 0
      vertex 23.6475 -14.4664 15
      vertex 23.6475 -14.4664 0
    endloop
  endfacet
  facet normal 1 -0 0
    outer loop
      vertex 23.6475 -59.4986 15
      vertex 23.6475 -14.4664 0
      vertex 23.6475 -14.4664 15
    endloop
  endfacet
  facet normal 1 0 0
    outer loop
      vertex 23.6475 -14.4664 0
      vertex 23.6475 -59.4986 15
      vertex 23.6475 -59.4986 0
    endloop
  endfacet
  facet normal 0.707107 0.707107 0
    outer loop
      vertex 36.9825 -72.8336 15
      vertex 23.6475 -59.4986 0
      vertex 23.6475 -59.4986 15
    endloop
  endfacet
  facet normal 0.707107 0.707107 0
    outer loop
      vertex 23.6475 -59.4986 0
      vertex 36.9825 -72.8336 15
      vertex 36.9825 -72.8336 0
    endloop
  endfacet
  facet normal -0.707107 0.707107 0
    outer loop
      vertex 36.9825 -72.8336 0
      vertex 50.3175 -59.4986 15
      vertex 50.3175 -59.4986 0
    endloop
  endfacet
  facet normal -0.707107 0.707107 0
    outer loop
      vertex 50.3175 -59.4986 15
      vertex 36.9825 -72.8336 0
      vertex 36.9825 -72.8336 15
    endloop
  endfacet
  facet normal -0.707107 -0.707107 0
    outer loop
      vertex 35.8511 -73.965 0
      vertex 22.5161 -60.63 15
      vertex 22.5161 -60.63 0
    endloop
  endfacet
  facet normal -0.707107 -0.707107 0
    outer loop
      vertex 22.5161 -60.63 15
      vertex 35.8511 -73.965 0
      vertex 35.8511 -73.965 15
    endloop
  endfacet
  facet normal 0 -1 0
    outer loop
      vertex -22.5161 -60.63 0
      vertex 22.5161 -60.63 15
      vertex -22.5161 -60.63 15
    endloop
  endfacet
  facet normal 0 -1 -0
    outer loop
      vertex 22.5161 -60.63 15
      vertex -22.5161 -60.63 0
      vertex 22.5161 -60.63 0
    endloop
  endfacet
  facet normal 0.707106 -0.707107 0
    outer loop
      vertex -35.8511 -73.965 0
      vertex -22.5161 -60.63 15
      vertex -35.8511 -73.965 15
    endloop
  endfacet
  facet normal 0.707106 -0.707107 0
    outer loop
      vertex -22.5161 -60.63 15
      vertex -35.8511 -73.965 0
      vertex -22.5161 -60.63 0
    endloop
  endfacet
  facet normal 0.707107 0.707107 0
    outer loop
      vertex -22.5161 -87.3 15
      vertex -35.8511 -73.965 0
      vertex -35.8511 -73.965 15
    endloop
  endfacet
  facet normal 0.707107 0.707107 0
    outer loop
      vertex -35.8511 -73.965 0
      vertex -22.5161 -87.3 15
      vertex -22.5161 -87.3 0
    endloop
  endfacet
  facet normal 0 1 -0
    outer loop
      vertex 22.5161 -87.3 0
      vertex -22.5161 -87.3 15
      vertex 22.5161 -87.3 15
    endloop
  endfacet
  facet normal 0 1 0
    outer loop
      vertex -22.5161 -87.3 15
      vertex 22.5161 -87.3 0
      vertex -22.5161 -87.3 0
    endloop
  endfacet
  facet normal -0.707106 0.707107 0
    outer loop
      vertex 35.8511 -73.965 0
      vertex 22.5161 -87.3 15
      vertex 35.8511 -73.965 15
    endloop
  endfacet
  facet normal -0.707106 0.707107 0
    outer loop
      vertex 22.5161 -87.3 15
      vertex 35.8511 -73.965 0
      vertex 22.5161 -87.3 0
    endloop
  endfacet
  facet normal 0 0 -1
    outer loop
      vertex 51.4489 -13.335 13.4
      vertex 51.9175 14.4664 13.4
      vertex 51.9175 -14.4664 13.4
    endloop
  endfacet
  facet normal 0 0 -1
    outer loop
      vertex 51.4489 -13.335 13.4
      vertex 51.4489 13.335 13.4
      vertex 51.9175 14.4664 13.4
    endloop
  endfacet
  facet normal 0 -0 -1
    outer loop
      vertex 51.4489 13.335 13.4
      vertex 51.4489 -13.335 13.4
      vertex 38.1139 0 13.4
    endloop
  endfacet
  facet normal 0 0 -1
    outer loop
      vertex -51.4489 -13.335 13.4
      vertex -51.4489 13.335 13.4
      vertex -38.1139 0 13.4
    endloop
  endfacet
  facet normal 0 0 -1
    outer loop
      vertex -51.9175 -14.4664 13.4
      vertex -51.4489 13.335 13.4
      vertex -51.4489 -13.335 13.4
    endloop
  endfacet
  facet normal -0 0 -1
    outer loop
      vertex -51.4489 13.335 13.4
      vertex -51.9175 -14.4664 13.4
      vertex -51.9175 14.4664 13.4
    endloop
  endfacet
  facet normal -0.959493 -0.281732 0
    outer loop
      vertex -44.1321 0 14.5
      vertex -44.6804 1.86737 15
      vertex -44.6804 1.86737 14.5
    endloop
  endfacet
  facet normal -0.959493 -0.281732 0
    outer loop
      vertex -44.6804 1.86737 15
      vertex -44.1321 0 14.5
      vertex -44.1321 0 15
    endloop
  endfacet
  facet normal 1 -0 0
    outer loop
      vertex -50.9002 -0.973104 15
      vertex -50.9002 0.973104 14.5
      vertex -50.9002 0.973104 15
    endloop
  endfacet
  facet normal 1 0 0
    outer loop
      vertex -50.9002 0.973104 14.5
      vertex -50.9002 -0.973104 15
      vertex -50.9002 -0.973104 14.5
    endloop
  endfacet
  facet normal 0 0 1
    outer loop
      vertex -46.5861 0 14.5
      vertex -44.1321 0 14.5
      vertex -44.6804 1.86737 14.5
    endloop
  endfacet
  facet normal 0 0 1
    outer loop
      vertex -47.2771 0.951056 14.5
      vertex -44.6804 1.86737 14.5
      vertex -46.1513 3.14187 14.5
    endloop
  endfacet
  facet normal 0 0 1
    outer loop
      vertex -44.1321 0 14.5
      vertex -46.5861 0 14.5
      vertex -44.6804 -1.86737 14.5
    endloop
  endfacet
  facet normal -0 0 1
    outer loop
      vertex -47.2771 -0.951056 14.5
      vertex -44.6804 -1.86737 14.5
      vertex -46.5861 0 14.5
    endloop
  endfacet
  facet normal 0 0 1
    outer loop
      vertex -44.6804 1.86737 14.5
      vertex -47.2771 0.951056 14.5
      vertex -46.5861 0 14.5
    endloop
  endfacet
  facet normal 0 0 1
    outer loop
      vertex -48.0777 3.41884 14.5
      vertex -47.2771 0.951056 14.5
      vertex -46.1513 3.14187 14.5
    endloop
  endfacet
  facet normal 0 0 1
    outer loop
      vertex -48.0777 3.41884 14.5
      vertex -48.3951 0.587785 14.5
      vertex -47.2771 0.951056 14.5
    endloop
  endfacet
  facet normal -0 0 1
    outer loop
      vertex -50.9002 0.973104 14.5
      vertex -48.3951 0.587785 14.5
      vertex -49.848 2.61036 14.5
    endloop
  endfacet
  facet normal -0 0 1
    outer loop
      vertex -49.848 2.61036 14.5
      vertex -48.3951 0.587785 14.5
      vertex -48.0777 3.41884 14.5
    endloop
  endfacet
  facet normal 0 0 1
    outer loop
      vertex -44.6804 -1.86737 14.5
      vertex -47.2771 -0.951056 14.5
      vertex -46.1513 -3.14187 14.5
    endloop
  endfacet
  facet normal 0 0 1
    outer loop
      vertex -47.2771 -0.951056 14.5
      vertex -48.0777 -3.41884 14.5
      vertex -46.1513 -3.14187 14.5
    endloop
  endfacet
  facet normal 0 0 1
    outer loop
      vertex -48.3951 -0.587785 14.5
      vertex -48.0777 -3.41884 14.5
      vertex -47.2771 -0.951056 14.5
    endloop
  endfacet
  facet normal 0 0 1
    outer loop
      vertex -48.3951 0.587785 14.5
      vertex -50.9002 0.973104 14.5
      vertex -48.3951 -0.587785 14.5
    endloop
  endfacet
  facet normal 0 0 1
    outer loop
      vertex -48.3951 -0.587785 14.5
      vertex -49.848 -2.61036 14.5
      vertex -48.0777 -3.41884 14.5
    endloop
  endfacet
  facet normal 0 0 1
    outer loop
      vertex -50.9002 -0.973104 14.5
      vertex -48.3951 -0.587785 14.5
      vertex -50.9002 0.973104 14.5
    endloop
  endfacet
  facet normal 0 0 1
    outer loop
      vertex -48.3951 -0.587785 14.5
      vertex -50.9002 -0.973104 14.5
      vertex -49.848 -2.61036 14.5
    endloop
  endfacet
  facet normal -0.142315 -0.989821 0
    outer loop
      vertex -48.0777 3.41884 14.5
      vertex -46.1513 3.14187 15
      vertex -48.0777 3.41884 15
    endloop
  endfacet
  facet normal -0.142315 -0.989821 -0
    outer loop
      vertex -46.1513 3.14187 15
      vertex -48.0777 3.41884 14.5
      vertex -46.1513 3.14187 14.5
    endloop
  endfacet
  facet normal -0.654861 -0.755749 0
    outer loop
      vertex -46.1513 3.14187 14.5
      vertex -44.6804 1.86737 15
      vertex -46.1513 3.14187 15
    endloop
  endfacet
  facet normal -0.654861 -0.755749 -0
    outer loop
      vertex -44.6804 1.86737 15
      vertex -46.1513 3.14187 14.5
      vertex -44.6804 1.86737 14.5
    endloop
  endfacet
  facet normal 0.415414 -0.909632 0
    outer loop
      vertex -49.848 2.61036 14.5
      vertex -48.0777 3.41884 15
      vertex -49.848 2.61036 15
    endloop
  endfacet
  facet normal 0.415414 -0.909632 0
    outer loop
      vertex -48.0777 3.41884 15
      vertex -49.848 2.61036 14.5
      vertex -48.0777 3.41884 14.5
    endloop
  endfacet
  facet normal -0.142315 0.989821 0
    outer loop
      vertex -46.1513 -3.14187 14.5
      vertex -48.0777 -3.41884 15
      vertex -46.1513 -3.14187 15
    endloop
  endfacet
  facet normal -0.142315 0.989821 0
    outer loop
      vertex -48.0777 -3.41884 15
      vertex -46.1513 -3.14187 14.5
      vertex -48.0777 -3.41884 14.5
    endloop
  endfacet
  facet normal -0.654861 0.755749 0
    outer loop
      vertex -44.6804 -1.86737 14.5
      vertex -46.1513 -3.14187 15
      vertex -44.6804 -1.86737 15
    endloop
  endfacet
  facet normal -0.654861 0.755749 0
    outer loop
      vertex -46.1513 -3.14187 15
      vertex -44.6804 -1.86737 14.5
      vertex -46.1513 -3.14187 14.5
    endloop
  endfacet
  facet normal 0.841254 0.54064 0
    outer loop
      vertex -49.848 -2.61036 15
      vertex -50.9002 -0.973104 14.5
      vertex -50.9002 -0.973104 15
    endloop
  endfacet
  facet normal 0.841254 0.54064 0
    outer loop
      vertex -50.9002 -0.973104 14.5
      vertex -49.848 -2.61036 15
      vertex -49.848 -2.61036 14.5
    endloop
  endfacet
  facet normal 0.841254 -0.54064 0
    outer loop
      vertex -50.9002 0.973104 15
      vertex -49.848 2.61036 14.5
      vertex -49.848 2.61036 15
    endloop
  endfacet
  facet normal 0.841254 -0.54064 0
    outer loop
      vertex -49.848 2.61036 14.5
      vertex -50.9002 0.973104 15
      vertex -50.9002 0.973104 14.5
    endloop
  endfacet
  facet normal -0.959493 0.281732 0
    outer loop
      vertex -44.6804 -1.86737 14.5
      vertex -44.1321 0 15
      vertex -44.1321 0 14.5
    endloop
  endfacet
  facet normal -0.959493 0.281732 0
    outer loop
      vertex -44.1321 0 15
      vertex -44.6804 -1.86737 14.5
      vertex -44.6804 -1.86737 15
    endloop
  endfacet
  facet normal 0.415414 0.909632 -0
    outer loop
      vertex -48.0777 -3.41884 14.5
      vertex -49.848 -2.61036 15
      vertex -48.0777 -3.41884 15
    endloop
  endfacet
  facet normal 0.415414 0.909632 0
    outer loop
      vertex -49.848 -2.61036 15
      vertex -48.0777 -3.41884 14.5
      vertex -49.848 -2.61036 14.5
    endloop
  endfacet
  facet normal -0.809017 -0.587785 0
    outer loop
      vertex -46.5861 0 14.25
      vertex -47.2771 0.951056 14.5
      vertex -47.2771 0.951056 14.25
    endloop
  endfacet
  facet normal -0.809017 -0.587785 0
    outer loop
      vertex -47.2771 0.951056 14.5
      vertex -46.5861 0 14.25
      vertex -46.5861 0 14.5
    endloop
  endfacet
  facet normal 1 -0 0
    outer loop
      vertex -48.3951 -0.587785 14.5
      vertex -48.3951 0.587785 14.25
      vertex -48.3951 0.587785 14.5
    endloop
  endfacet
  facet normal 1 0 0
    outer loop
      vertex -48.3951 0.587785 14.25
      vertex -48.3951 -0.587785 14.5
      vertex -48.3951 -0.587785 14.25
    endloop
  endfacet
  facet normal 0.309017 -0.951056 0
    outer loop
      vertex -48.3951 0.587785 14.25
      vertex -47.2771 0.951056 14.5
      vertex -48.3951 0.587785 14.5
    endloop
  endfacet
  facet normal 0.309017 -0.951056 0
    outer loop
      vertex -47.2771 0.951056 14.5
      vertex -48.3951 0.587785 14.25
      vertex -47.2771 0.951056 14.25
    endloop
  endfacet
  facet normal 0.309017 0.951056 -0
    outer loop
      vertex -47.2771 -0.951056 14.25
      vertex -48.3951 -0.587785 14.5
      vertex -47.2771 -0.951056 14.5
    endloop
  endfacet
  facet normal 0.309017 0.951056 0
    outer loop
      vertex -48.3951 -0.587785 14.5
      vertex -47.2771 -0.951056 14.25
      vertex -48.3951 -0.587785 14.25
    endloop
  endfacet
  facet normal 0 0 1
    outer loop
      vertex -47.2771 0.951056 14.25
      vertex -47.2771 -0.951056 14.25
      vertex -46.5861 0 14.25
    endloop
  endfacet
  facet normal -0 0 1
    outer loop
      vertex -48.3951 0.587785 14.25
      vertex -47.2771 -0.951056 14.25
      vertex -47.2771 0.951056 14.25
    endloop
  endfacet
  facet normal 0 0 1
    outer loop
      vertex -47.2771 -0.951056 14.25
      vertex -48.3951 0.587785 14.25
      vertex -48.3951 -0.587785 14.25
    endloop
  endfacet
  facet normal -0.809017 0.587785 0
    outer loop
      vertex -47.2771 -0.951056 14.25
      vertex -46.5861 0 14.5
      vertex -46.5861 0 14.25
    endloop
  endfacet
  facet normal -0.809017 0.587785 0
    outer loop
      vertex -46.5861 0 14.5
      vertex -47.2771 -0.951056 14.25
      vertex -47.2771 -0.951056 14.5
    endloop
  endfacet
  facet normal -0.959493 -0.281734 0
    outer loop
      vertex 51.0401 0 14.5
      vertex 50.4918 1.86737 15
      vertex 50.4918 1.86737 14.5
    endloop
  endfacet
  facet normal -0.959493 -0.281734 0
    outer loop
      vertex 50.4918 1.86737 15
      vertex 51.0401 0 14.5
      vertex 51.0401 0 15
    endloop
  endfacet
  facet normal 1 -0 0
    outer loop
      vertex 44.272 -0.973104 15
      vertex 44.272 0.973104 14.5
      vertex 44.272 0.973104 15
    endloop
  endfacet
  facet normal 1 0 0
    outer loop
      vertex 44.272 0.973104 14.5
      vertex 44.272 -0.973104 15
      vertex 44.272 -0.973104 14.5
    endloop
  endfacet
  facet normal 0 0 1
    outer loop
      vertex 48.5861 0 14.5
      vertex 51.0401 0 14.5
      vertex 50.4918 1.86737 14.5
    endloop
  endfacet
  facet normal 0 0 1
    outer loop
      vertex 47.8951 0.951056 14.5
      vertex 50.4918 1.86737 14.5
      vertex 49.021 3.14187 14.5
    endloop
  endfacet
  facet normal 0 0 1
    outer loop
      vertex 51.0401 0 14.5
      vertex 48.5861 0 14.5
      vertex 50.4918 -1.86737 14.5
    endloop
  endfacet
  facet normal -0 0 1
    outer loop
      vertex 47.8951 -0.951056 14.5
      vertex 50.4918 -1.86737 14.5
      vertex 48.5861 0 14.5
    endloop
  endfacet
  facet normal 0 0 1
    outer loop
      vertex 50.4918 1.86737 14.5
      vertex 47.8951 0.951056 14.5
      vertex 48.5861 0 14.5
    endloop
  endfacet
  facet normal 0 0 1
    outer loop
      vertex 47.0946 3.41884 14.5
      vertex 47.8951 0.951056 14.5
      vertex 49.021 3.14187 14.5
    endloop
  endfacet
  facet normal 0 0 1
    outer loop
      vertex 47.0946 3.41884 14.5
      vertex 46.7771 0.587785 14.5
      vertex 47.8951 0.951056 14.5
    endloop
  endfacet
  facet normal -0 0 1
    outer loop
      vertex 44.272 0.973104 14.5
      vertex 46.7771 0.587785 14.5
      vertex 45.3242 2.61036 14.5
    endloop
  endfacet
  facet normal -0 0 1
    outer loop
      vertex 45.3242 2.61036 14.5
      vertex 46.7771 0.587785 14.5
      vertex 47.0946 3.41884 14.5
    endloop
  endfacet
  facet normal 0 0 1
    outer loop
      vertex 50.4918 -1.86737 14.5
      vertex 47.8951 -0.951056 14.5
      vertex 49.021 -3.14187 14.5
    endloop
  endfacet
  facet normal 0 0 1
    outer loop
      vertex 47.8951 -0.951056 14.5
      vertex 47.0946 -3.41884 14.5
      vertex 49.021 -3.14187 14.5
    endloop
  endfacet
  facet normal 0 0 1
    outer loop
      vertex 46.7771 -0.587785 14.5
      vertex 47.0946 -3.41884 14.5
      vertex 47.8951 -0.951056 14.5
    endloop
  endfacet
  facet normal 0 0 1
    outer loop
      vertex 46.7771 0.587785 14.5
      vertex 44.272 0.973104 14.5
      vertex 46.7771 -0.587785 14.5
    endloop
  endfacet
  facet normal 0 0 1
    outer loop
      vertex 46.7771 -0.587785 14.5
      vertex 45.3242 -2.61036 14.5
      vertex 47.0946 -3.41884 14.5
    endloop
  endfacet
  facet normal 0 0 1
    outer loop
      vertex 44.272 -0.973104 14.5
      vertex 46.7771 -0.587785 14.5
      vertex 44.272 0.973104 14.5
    endloop
  endfacet
  facet normal 0 0 1
    outer loop
      vertex 46.7771 -0.587785 14.5
      vertex 44.272 -0.973104 14.5
      vertex 45.3242 -2.61036 14.5
    endloop
  endfacet
  facet normal -0.142315 -0.989821 0
    outer loop
      vertex 47.0946 3.41884 14.5
      vertex 49.021 3.14187 15
      vertex 47.0946 3.41884 15
    endloop
  endfacet
  facet normal -0.142315 -0.989821 -0
    outer loop
      vertex 49.021 3.14187 15
      vertex 47.0946 3.41884 14.5
      vertex 49.021 3.14187 14.5
    endloop
  endfacet
  facet normal -0.654861 -0.755749 0
    outer loop
      vertex 49.021 3.14187 14.5
      vertex 50.4918 1.86737 15
      vertex 49.021 3.14187 15
    endloop
  endfacet
  facet normal -0.654861 -0.755749 -0
    outer loop
      vertex 50.4918 1.86737 15
      vertex 49.021 3.14187 14.5
      vertex 50.4918 1.86737 14.5
    endloop
  endfacet
  facet normal 0.415415 -0.909632 0
    outer loop
      vertex 45.3242 2.61036 14.5
      vertex 47.0946 3.41884 15
      vertex 45.3242 2.61036 15
    endloop
  endfacet
  facet normal 0.415415 -0.909632 0
    outer loop
      vertex 47.0946 3.41884 15
      vertex 45.3242 2.61036 14.5
      vertex 47.0946 3.41884 14.5
    endloop
  endfacet
  facet normal -0.654861 0.755749 0
    outer loop
      vertex 50.4918 -1.86737 14.5
      vertex 49.021 -3.14187 15
      vertex 50.4918 -1.86737 15
    endloop
  endfacet
  facet normal -0.654861 0.755749 0
    outer loop
      vertex 49.021 -3.14187 15
      vertex 50.4918 -1.86737 14.5
      vertex 49.021 -3.14187 14.5
    endloop
  endfacet
  facet normal 0.841253 0.540641 0
    outer loop
      vertex 45.3242 -2.61036 15
      vertex 44.272 -0.973104 14.5
      vertex 44.272 -0.973104 15
    endloop
  endfacet
  facet normal 0.841253 0.540641 0
    outer loop
      vertex 44.272 -0.973104 14.5
      vertex 45.3242 -2.61036 15
      vertex 45.3242 -2.61036 14.5
    endloop
  endfacet
  facet normal 0.841253 -0.540641 0
    outer loop
      vertex 44.272 0.973104 15
      vertex 45.3242 2.61036 14.5
      vertex 45.3242 2.61036 15
    endloop
  endfacet
  facet normal 0.841253 -0.540641 0
    outer loop
      vertex 45.3242 2.61036 14.5
      vertex 44.272 0.973104 15
      vertex 44.272 0.973104 14.5
    endloop
  endfacet
  facet normal 0.415415 0.909632 -0
    outer loop
      vertex 47.0946 -3.41884 14.5
      vertex 45.3242 -2.61036 15
      vertex 47.0946 -3.41884 15
    endloop
  endfacet
  facet normal 0.415415 0.909632 0
    outer loop
      vertex 45.3242 -2.61036 15
      vertex 47.0946 -3.41884 14.5
      vertex 45.3242 -2.61036 14.5
    endloop
  endfacet
  facet normal -0.959493 0.281734 0
    outer loop
      vertex 50.4918 -1.86737 14.5
      vertex 51.0401 0 15
      vertex 51.0401 0 14.5
    endloop
  endfacet
  facet normal -0.959493 0.281734 0
    outer loop
      vertex 51.0401 0 15
      vertex 50.4918 -1.86737 14.5
      vertex 50.4918 -1.86737 15
    endloop
  endfacet
  facet normal -0.142315 0.989821 0
    outer loop
      vertex 49.021 -3.14187 14.5
      vertex 47.0946 -3.41884 15
      vertex 49.021 -3.14187 15
    endloop
  endfacet
  facet normal -0.142315 0.989821 0
    outer loop
      vertex 47.0946 -3.41884 15
      vertex 49.021 -3.14187 14.5
      vertex 47.0946 -3.41884 14.5
    endloop
  endfacet
  facet normal -0.809017 -0.587785 0
    outer loop
      vertex 48.5861 0 14.25
      vertex 47.8951 0.951056 14.5
      vertex 47.8951 0.951056 14.25
    endloop
  endfacet
  facet normal -0.809017 -0.587785 0
    outer loop
      vertex 47.8951 0.951056 14.5
      vertex 48.5861 0 14.25
      vertex 48.5861 0 14.5
    endloop
  endfacet
  facet normal 1 -0 0
    outer loop
      vertex 46.7771 -0.587785 14.5
      vertex 46.7771 0.587785 14.25
      vertex 46.7771 0.587785 14.5
    endloop
  endfacet
  facet normal 1 0 0
    outer loop
      vertex 46.7771 0.587785 14.25
      vertex 46.7771 -0.587785 14.5
      vertex 46.7771 -0.587785 14.25
    endloop
  endfacet
  facet normal 0.309017 -0.951056 0
    outer loop
      vertex 46.7771 0.587785 14.25
      vertex 47.8951 0.951056 14.5
      vertex 46.7771 0.587785 14.5
    endloop
  endfacet
  facet normal 0.309017 -0.951056 0
    outer loop
      vertex 47.8951 0.951056 14.5
      vertex 46.7771 0.587785 14.25
      vertex 47.8951 0.951056 14.25
    endloop
  endfacet
  facet normal 0.309017 0.951056 -0
    outer loop
      vertex 47.8951 -0.951056 14.25
      vertex 46.7771 -0.587785 14.5
      vertex 47.8951 -0.951056 14.5
    endloop
  endfacet
  facet normal 0.309017 0.951056 0
    outer loop
      vertex 46.7771 -0.587785 14.5
      vertex 47.8951 -0.951056 14.25
      vertex 46.7771 -0.587785 14.25
    endloop
  endfacet
  facet normal 0 0 1
    outer loop
      vertex 47.8951 0.951056 14.25
      vertex 47.8951 -0.951056 14.25
      vertex 48.5861 0 14.25
    endloop
  endfacet
  facet normal -0 0 1
    outer loop
      vertex 46.7771 0.587785 14.25
      vertex 47.8951 -0.951056 14.25
      vertex 47.8951 0.951056 14.25
    endloop
  endfacet
  facet normal 0 0 1
    outer loop
      vertex 47.8951 -0.951056 14.25
      vertex 46.7771 0.587785 14.25
      vertex 46.7771 -0.587785 14.25
    endloop
  endfacet
  facet normal -0.809017 0.587785 0
    outer loop
      vertex 47.8951 -0.951056 14.25
      vertex 48.5861 0 14.5
      vertex 48.5861 0 14.25
    endloop
  endfacet
  facet normal -0.809017 0.587785 0
    outer loop
      vertex 48.5861 0 14.5
      vertex 47.8951 -0.951056 14.25
      vertex 47.8951 -0.951056 14.5
    endloop
  endfacet
endsolid OpenSCAD_Model
