solid OpenSCAD_Model
  facet normal 0 0 -1
    outer loop
      vertex -26.0472 75 0
      vertex 0 75 0
      vertex -26.0472 -75 0
    endloop
  endfacet
  facet normal 0 0 -1
    outer loop
      vertex 26.0472 -75 0
      vertex 0 -75 0
      vertex 26.0472 75 0
    endloop
  endfacet
  facet normal 0 0 1
    outer loop
      vertex -26.0472 -75 18
      vertex 0 75 18
      vertex -26.0472 75 18
    endloop
  endfacet
  facet normal 0 0 1
    outer loop
      vertex 26.0472 75 18
      vertex 0 -75 18
      vertex 26.0472 -75 18
    endloop
  endfacet
  facet normal 0 1 0
    outer loop
      vertex -26.0472 75 0
      vertex 0 75 18
      vertex 0 75 0
    endloop
  endfacet
  facet normal 0 1 0
    outer loop
      vertex -26.0472 75 0
      vertex -26.0472 75 18
      vertex 0 75 18
    endloop
  endfacet
  facet normal -1 0 0
    outer loop
      vertex -26.0472 -75 0
      vertex -26.0472 75 18
      vertex -26.0472 75 0
    endloop
  endfacet
  facet normal -1 0 0
    outer loop
      vertex -26.0472 -75 0
      vertex -26.0472 -75 18
      vertex -26.0472 75 18
    endloop
  endfacet
  facet normal 0.985256 -0.171088 0
    outer loop
      vertex 0 75 0
      vertex -26.0472 -75 18
      vertex -26.0472 -75 0
    endloop
  endfacet
  facet normal 0.985256 -0.171088 0
    outer loop
      vertex 0 75 0
      vertex 0 75 18
      vertex -26.0472 -75 18
    endloop
  endfacet
  facet normal -0.985256 0.171088 0
    outer loop
      vertex 0 -75 0
      vertex 26.0472 75 18
      vertex 26.0472 75 0
    endloop
  endfacet
  facet normal -0.985256 0.171088 0
    outer loop
      vertex 0 -75 0
      vertex 0 -75 18
      vertex 26.0472 75 18
    endloop
  endfacet
  facet normal 0 -1 0
    outer loop
      vertex 26.0472 -75 0
      vertex 0 -75 18
      vertex 0 -75 0
    endloop
  endfacet
  facet normal 0 -1 0
    outer loop
      vertex 26.0472 -75 0
      vertex 26.0472 -75 18
      vertex 0 -75 18
    endloop
  endfacet
  facet normal 1 -1.01725e-007 0
    outer loop
      vertex 26.0472 75 0
      vertex 26.0472 -75 18
      vertex 26.0472 -75 0
    endloop
  endfacet
  facet normal 1 -1.01725e-007 0
    outer loop
      vertex 26.0472 75 0
      vertex 26.0472 75 18
      vertex 26.0472 -75 18
    endloop
  endfacet
endsolid OpenSCAD_Model
