solid OpenSCAD_Model
  facet normal 0 0 -1
    outer loop
      vertex -24.7686 -16.9314 0
      vertex -26.7 -16.1314 0
      vertex -25.5686 -15 0
    endloop
  endfacet
  facet normal 0 0 -1
    outer loop
      vertex -26.7 -16.1314 0
      vertex -40.5686 0 0
      vertex -25.5686 -15 0
    endloop
  endfacet
  facet normal 0 -0 -1
    outer loop
      vertex -40.5686 0 0
      vertex -26.7 -16.1314 0
      vertex -41.7 -1.13138 0
    endloop
  endfacet
  facet normal 0 0 -1
    outer loop
      vertex -24.7686 66.4686 0
      vertex -26.7 67.2686 0
      vertex -25.5686 68.4 0
    endloop
  endfacet
  facet normal 0 0 -1
    outer loop
      vertex -26.7 67.2686 0
      vertex -40.5686 83.4 0
      vertex -25.5686 68.4 0
    endloop
  endfacet
  facet normal 0 -0 -1
    outer loop
      vertex -40.5686 83.4 0
      vertex -26.7 67.2686 0
      vertex -41.7 82.2686 0
    endloop
  endfacet
  facet normal -0 0 -1
    outer loop
      vertex 26.7 -16.1314 0
      vertex 24.7686 -16.9314 0
      vertex 25.5686 -15 0
    endloop
  endfacet
  facet normal 0 0 -1
    outer loop
      vertex -24.7686 -16.9314 0
      vertex 25.5686 -15 0
      vertex 24.7686 -16.9314 0
    endloop
  endfacet
  facet normal 0 0 -1
    outer loop
      vertex -24.7686 -16.9314 0
      vertex -25.5686 -15 0
      vertex 25.5686 -15 0
    endloop
  endfacet
  facet normal -0 0 -1
    outer loop
      vertex -24.7686 -66.4686 0
      vertex -26.7 -67.2686 0
      vertex -24.7686 -16.9314 0
    endloop
  endfacet
  facet normal 0 0 -1
    outer loop
      vertex -26.7 -16.1314 0
      vertex -24.7686 -16.9314 0
      vertex -26.7 -67.2686 0
    endloop
  endfacet
  facet normal 0 0 -1
    outer loop
      vertex -40.5686 -83.4 0
      vertex -26.7 -67.2686 0
      vertex -25.5686 -68.4 0
    endloop
  endfacet
  facet normal 0 0 -1
    outer loop
      vertex -26.7 -67.2686 0
      vertex -40.5686 -83.4 0
      vertex -41.7 -82.2686 0
    endloop
  endfacet
  facet normal -0 0 -1
    outer loop
      vertex 26.7 67.2686 0
      vertex 24.7686 66.4686 0
      vertex 25.5686 68.4 0
    endloop
  endfacet
  facet normal 0 0 -1
    outer loop
      vertex -24.7686 66.4686 0
      vertex 25.5686 68.4 0
      vertex 24.7686 66.4686 0
    endloop
  endfacet
  facet normal 0 0 -1
    outer loop
      vertex -24.7686 66.4686 0
      vertex -25.5686 68.4 0
      vertex 25.5686 68.4 0
    endloop
  endfacet
  facet normal -0 0 -1
    outer loop
      vertex -24.7686 16.9314 0
      vertex -26.7 16.1314 0
      vertex -24.7686 66.4686 0
    endloop
  endfacet
  facet normal 0 0 -1
    outer loop
      vertex -26.7 67.2686 0
      vertex -24.7686 66.4686 0
      vertex -26.7 16.1314 0
    endloop
  endfacet
  facet normal 0 0 -1
    outer loop
      vertex -40.5686 0 0
      vertex -26.7 16.1314 0
      vertex -25.5686 15 0
    endloop
  endfacet
  facet normal 0 0 -1
    outer loop
      vertex -41.7 1.13138 0
      vertex -40.5686 0 0
      vertex -41.7 -1.13138 0
    endloop
  endfacet
  facet normal 0 0 -1
    outer loop
      vertex -40.5686 0 0
      vertex -41.7 1.13138 0
      vertex -26.7 16.1314 0
    endloop
  endfacet
  facet normal 0 0 -1
    outer loop
      vertex -56.7 -16.1314 0
      vertex -41.7 1.13138 0
      vertex -41.7 -1.13138 0
    endloop
  endfacet
  facet normal -0 0 -1
    outer loop
      vertex -41.7 1.13138 0
      vertex -56.7 -16.1314 0
      vertex -56.7 16.1314 0
    endloop
  endfacet
  facet normal 0 0 -1
    outer loop
      vertex 26.7 67.2686 0
      vertex 40.5686 83.4 0
      vertex 41.7 82.2686 0
    endloop
  endfacet
  facet normal 0 0 -1
    outer loop
      vertex 26.7 67.2686 0
      vertex 25.5686 68.4 0
      vertex 40.5686 83.4 0
    endloop
  endfacet
  facet normal 0 0 -1
    outer loop
      vertex 26.7 16.1314 0
      vertex 24.7686 16.9314 0
      vertex 26.7 67.2686 0
    endloop
  endfacet
  facet normal 0 0 -1
    outer loop
      vertex 24.7686 66.4686 0
      vertex 26.7 67.2686 0
      vertex 24.7686 16.9314 0
    endloop
  endfacet
  facet normal 0 0 -1
    outer loop
      vertex 25.5686 15 0
      vertex -24.7686 16.9314 0
      vertex 24.7686 16.9314 0
    endloop
  endfacet
  facet normal 0 0 -1
    outer loop
      vertex -26.7 16.1314 0
      vertex -24.7686 16.9314 0
      vertex -25.5686 15 0
    endloop
  endfacet
  facet normal 0 0 -1
    outer loop
      vertex -25.5686 15 0
      vertex -24.7686 16.9314 0
      vertex 25.5686 15 0
    endloop
  endfacet
  facet normal 0 0 -1
    outer loop
      vertex 41.7 -1.13138 0
      vertex 56.7 16.1314 0
      vertex 56.7 -16.1314 0
    endloop
  endfacet
  facet normal 0 0 -1
    outer loop
      vertex 41.7 -1.13138 0
      vertex 41.7 1.13138 0
      vertex 56.7 16.1314 0
    endloop
  endfacet
  facet normal 0 0 -1
    outer loop
      vertex 41.7 -1.13138 0
      vertex 40.5686 0 0
      vertex 41.7 1.13138 0
    endloop
  endfacet
  facet normal 0 0 -1
    outer loop
      vertex 26.7 -16.1314 0
      vertex 40.5686 0 0
      vertex 41.7 -1.13138 0
    endloop
  endfacet
  facet normal 0 0 -1
    outer loop
      vertex 26.7 -16.1314 0
      vertex 25.5686 -15 0
      vertex 40.5686 0 0
    endloop
  endfacet
  facet normal 0 0 -1
    outer loop
      vertex 26.7 -67.2686 0
      vertex 24.7686 -66.4686 0
      vertex 26.7 -16.1314 0
    endloop
  endfacet
  facet normal 0 0 -1
    outer loop
      vertex 24.7686 -16.9314 0
      vertex 26.7 -16.1314 0
      vertex 24.7686 -66.4686 0
    endloop
  endfacet
  facet normal 0 0 -1
    outer loop
      vertex 25.5686 -68.4 0
      vertex -24.7686 -66.4686 0
      vertex 24.7686 -66.4686 0
    endloop
  endfacet
  facet normal 0 0 -1
    outer loop
      vertex -26.7 -67.2686 0
      vertex -24.7686 -66.4686 0
      vertex -25.5686 -68.4 0
    endloop
  endfacet
  facet normal 0 0 -1
    outer loop
      vertex -25.5686 -68.4 0
      vertex -24.7686 -66.4686 0
      vertex 25.5686 -68.4 0
    endloop
  endfacet
  facet normal 0 0 -1
    outer loop
      vertex 56.7 -16.1314 0
      vertex 58.3 -100 0
      vertex 56.7 -67.2686 0
    endloop
  endfacet
  facet normal 0 0 -1
    outer loop
      vertex 58.3 -100 0
      vertex 41.7 -82.2686 0
      vertex 56.7 -67.2686 0
    endloop
  endfacet
  facet normal 0 0 -1
    outer loop
      vertex 58.3 -100 0
      vertex 40.5686 -83.4 0
      vertex 41.7 -82.2686 0
    endloop
  endfacet
  facet normal 0 0 -1
    outer loop
      vertex 58.3 -100 0
      vertex 25.5686 -98.4 0
      vertex 40.5686 -83.4 0
    endloop
  endfacet
  facet normal 0 0 -1
    outer loop
      vertex 58.3 -100 0
      vertex -25.5686 -98.4 0
      vertex 25.5686 -98.4 0
    endloop
  endfacet
  facet normal 0 0 -1
    outer loop
      vertex -58.3 -100 0
      vertex -40.5686 -83.4 0
      vertex -25.5686 -98.4 0
    endloop
  endfacet
  facet normal -0 0 -1
    outer loop
      vertex -40.5686 -83.4 0
      vertex -58.3 -100 0
      vertex -41.7 -82.2686 0
    endloop
  endfacet
  facet normal 0 0 -1
    outer loop
      vertex -58.3 -100 0
      vertex -56.7 -16.1314 0
      vertex -56.7 -67.2686 0
    endloop
  endfacet
  facet normal -0 0 -1
    outer loop
      vertex -56.7 -16.1314 0
      vertex -58.3 -100 0
      vertex -56.7 16.1314 0
    endloop
  endfacet
  facet normal 0 0 -1
    outer loop
      vertex -58.3 100 0
      vertex -56.7 16.1314 0
      vertex -58.3 -100 0
    endloop
  endfacet
  facet normal -0 0 -1
    outer loop
      vertex -41.7 -82.2686 0
      vertex -58.3 -100 0
      vertex -56.7 -67.2686 0
    endloop
  endfacet
  facet normal 0 0 -1
    outer loop
      vertex -58.3 -100 0
      vertex -25.5686 -98.4 0
      vertex 58.3 -100 0
    endloop
  endfacet
  facet normal 0 0 -1
    outer loop
      vertex 58.3 -100 0
      vertex 56.7 -16.1314 0
      vertex 58.3 100 0
    endloop
  endfacet
  facet normal 0 0 -1
    outer loop
      vertex 56.7 16.1314 0
      vertex 58.3 100 0
      vertex 56.7 -16.1314 0
    endloop
  endfacet
  facet normal 0 0 -1
    outer loop
      vertex 56.7 67.2686 0
      vertex 58.3 100 0
      vertex 56.7 16.1314 0
    endloop
  endfacet
  facet normal 0 0 -1
    outer loop
      vertex 41.7 82.2686 0
      vertex 58.3 100 0
      vertex 56.7 67.2686 0
    endloop
  endfacet
  facet normal 0 0 -1
    outer loop
      vertex 40.5686 83.4 0
      vertex 58.3 100 0
      vertex 41.7 82.2686 0
    endloop
  endfacet
  facet normal 0 0 -1
    outer loop
      vertex 25.5686 98.4 0
      vertex 58.3 100 0
      vertex 40.5686 83.4 0
    endloop
  endfacet
  facet normal 0 0 -1
    outer loop
      vertex -25.5686 98.4 0
      vertex 58.3 100 0
      vertex 25.5686 98.4 0
    endloop
  endfacet
  facet normal 0 0 -1
    outer loop
      vertex -58.3 100 0
      vertex -41.7 82.2686 0
      vertex -56.7 67.2686 0
    endloop
  endfacet
  facet normal 0 0 -1
    outer loop
      vertex -25.5686 98.4 0
      vertex -58.3 100 0
      vertex 58.3 100 0
    endloop
  endfacet
  facet normal 0 0 -1
    outer loop
      vertex -40.5686 83.4 0
      vertex -58.3 100 0
      vertex -25.5686 98.4 0
    endloop
  endfacet
  facet normal 0 0 -1
    outer loop
      vertex -41.7 82.2686 0
      vertex -58.3 100 0
      vertex -40.5686 83.4 0
    endloop
  endfacet
  facet normal 0 0 -1
    outer loop
      vertex -56.7 16.1314 0
      vertex -58.3 100 0
      vertex -56.7 67.2686 0
    endloop
  endfacet
  facet normal 0 0 -1
    outer loop
      vertex 40.5686 -83.4 0
      vertex 26.7 -67.2686 0
      vertex 41.7 -82.2686 0
    endloop
  endfacet
  facet normal 0 0 -1
    outer loop
      vertex 24.7686 -66.4686 0
      vertex 26.7 -67.2686 0
      vertex 25.5686 -68.4 0
    endloop
  endfacet
  facet normal 0 0 -1
    outer loop
      vertex 25.5686 -68.4 0
      vertex 26.7 -67.2686 0
      vertex 40.5686 -83.4 0
    endloop
  endfacet
  facet normal 0 0 -1
    outer loop
      vertex 40.5686 0 0
      vertex 26.7 16.1314 0
      vertex 41.7 1.13138 0
    endloop
  endfacet
  facet normal 0 0 -1
    outer loop
      vertex 24.7686 16.9314 0
      vertex 26.7 16.1314 0
      vertex 25.5686 15 0
    endloop
  endfacet
  facet normal 0 0 -1
    outer loop
      vertex 25.5686 15 0
      vertex 26.7 16.1314 0
      vertex 40.5686 0 0
    endloop
  endfacet
  facet normal 0 0 1
    outer loop
      vertex -40.5686 -83.4 25
      vertex -48.3392 -90.5583 25
      vertex -48.065 -91.492 25
    endloop
  endfacet
  facet normal 0 0 1
    outer loop
      vertex -41.7 -82.2686 25
      vertex -49.0746 -89.9211 25
      vertex -48.3392 -90.5583 25
    endloop
  endfacet
  facet normal 0 0 1
    outer loop
      vertex -41.7 -82.2686 25
      vertex -50.0378 -89.7826 25
      vertex -49.0746 -89.9211 25
    endloop
  endfacet
  facet normal 0 0 1
    outer loop
      vertex -56.7 -67.2686 25
      vertex -50.0378 -89.7826 25
      vertex -41.7 -82.2686 25
    endloop
  endfacet
  facet normal 0 0 1
    outer loop
      vertex -58.3 -100 25
      vertex -51.449 -91.0054 25
      vertex -56.7 -67.2686 25
    endloop
  endfacet
  facet normal 0 0 1
    outer loop
      vertex -50.9229 -90.1868 25
      vertex -56.7 -67.2686 25
      vertex -51.449 -91.0054 25
    endloop
  endfacet
  facet normal 0 0 1
    outer loop
      vertex -50.0378 -89.7826 25
      vertex -56.7 -67.2686 25
      vertex -50.9229 -90.1868 25
    endloop
  endfacet
  facet normal 0 0 1
    outer loop
      vertex -40.5686 83.4 25
      vertex -48.3392 90.5583 25
      vertex -41.7 82.2686 25
    endloop
  endfacet
  facet normal -0 0 1
    outer loop
      vertex -49.0746 89.9211 25
      vertex -41.7 82.2686 25
      vertex -48.3392 90.5583 25
    endloop
  endfacet
  facet normal -0 0 1
    outer loop
      vertex -50.0378 89.7826 25
      vertex -41.7 82.2686 25
      vertex -49.0746 89.9211 25
    endloop
  endfacet
  facet normal 0 0 1
    outer loop
      vertex -56.7 67.2686 25
      vertex -50.0378 89.7826 25
      vertex -50.9229 90.1868 25
    endloop
  endfacet
  facet normal 0 0 1
    outer loop
      vertex -50.0378 89.7826 25
      vertex -56.7 67.2686 25
      vertex -41.7 82.2686 25
    endloop
  endfacet
  facet normal 0 0 1
    outer loop
      vertex -56.7 67.2686 25
      vertex -50.9229 90.1868 25
      vertex -51.449 91.0054 25
    endloop
  endfacet
  facet normal -0 0 1
    outer loop
      vertex -48.3392 -0.933686 25
      vertex -41.7 -1.13138 25
      vertex -48.065 0 25
    endloop
  endfacet
  facet normal 0 0 1
    outer loop
      vertex -49.0746 -1.57093 25
      vertex -41.7 -1.13138 25
      vertex -48.3392 -0.933686 25
    endloop
  endfacet
  facet normal 0 0 1
    outer loop
      vertex -56.7 -16.1314 25
      vertex -49.0746 -1.57093 25
      vertex -50.0378 -1.70942 25
    endloop
  endfacet
  facet normal -0 0 1
    outer loop
      vertex -49.0746 -1.57093 25
      vertex -56.7 -16.1314 25
      vertex -41.7 -1.13138 25
    endloop
  endfacet
  facet normal 0 0 1
    outer loop
      vertex -50.9229 -1.30518 25
      vertex -56.7 -16.1314 25
      vertex -50.0378 -1.70942 25
    endloop
  endfacet
  facet normal 0 0 1
    outer loop
      vertex -51.449 -0.486551 25
      vertex -56.7 -16.1314 25
      vertex -50.9229 -1.30518 25
    endloop
  endfacet
  facet normal 0 0 1
    outer loop
      vertex -56.7 -16.1314 25
      vertex -51.449 -0.486551 25
      vertex -56.7 16.1314 25
    endloop
  endfacet
  facet normal 0 0 1
    outer loop
      vertex -40.5686 0 25
      vertex -26.7 -16.1314 25
      vertex -25.5686 -15 25
    endloop
  endfacet
  facet normal 0 0 1
    outer loop
      vertex -41.7 -1.13138 25
      vertex -40.5686 0 25
      vertex -41.7 1.13138 25
    endloop
  endfacet
  facet normal 0 0 1
    outer loop
      vertex -40.5686 0 25
      vertex -41.7 -1.13138 25
      vertex -26.7 -16.1314 25
    endloop
  endfacet
  facet normal 0 0 1
    outer loop
      vertex -41.7 1.13138 25
      vertex -48.065 0 25
      vertex -41.7 -1.13138 25
    endloop
  endfacet
  facet normal 0 0 1
    outer loop
      vertex -41.7 1.13138 25
      vertex -48.3392 0.933686 25
      vertex -48.065 0 25
    endloop
  endfacet
  facet normal 0 0 1
    outer loop
      vertex -41.7 1.13138 25
      vertex -49.0746 1.57093 25
      vertex -48.3392 0.933686 25
    endloop
  endfacet
  facet normal 0 0 1
    outer loop
      vertex -56.7 16.1314 25
      vertex -49.0746 1.57093 25
      vertex -41.7 1.13138 25
    endloop
  endfacet
  facet normal 0 0 1
    outer loop
      vertex -51.449 0.486551 25
      vertex -56.7 16.1314 25
      vertex -51.449 -0.486551 25
    endloop
  endfacet
  facet normal 0 0 1
    outer loop
      vertex -50.9229 1.30518 25
      vertex -56.7 16.1314 25
      vertex -51.449 0.486551 25
    endloop
  endfacet
  facet normal 0 0 1
    outer loop
      vertex -50.0378 1.70942 25
      vertex -56.7 16.1314 25
      vertex -50.9229 1.30518 25
    endloop
  endfacet
  facet normal 0 0 1
    outer loop
      vertex -49.0746 1.57093 25
      vertex -56.7 16.1314 25
      vertex -50.0378 1.70942 25
    endloop
  endfacet
  facet normal 0 0 1
    outer loop
      vertex -40.5686 83.4 25
      vertex -26.7 67.2686 25
      vertex -25.5686 68.4 25
    endloop
  endfacet
  facet normal 0 0 1
    outer loop
      vertex -26.7 67.2686 25
      vertex -40.5686 83.4 25
      vertex -41.7 82.2686 25
    endloop
  endfacet
  facet normal 0 0 1
    outer loop
      vertex 25.5686 -15 25
      vertex -24.7686 -16.9314 25
      vertex 24.7686 -16.9314 25
    endloop
  endfacet
  facet normal 0 0 1
    outer loop
      vertex -26.7 -67.2686 25
      vertex -24.7686 -66.4686 25
      vertex -24.7686 -16.9314 25
    endloop
  endfacet
  facet normal 0 0 1
    outer loop
      vertex -25.5686 -15 25
      vertex -24.7686 -16.9314 25
      vertex 25.5686 -15 25
    endloop
  endfacet
  facet normal -0 0 1
    outer loop
      vertex -26.7 -16.1314 25
      vertex -24.7686 -16.9314 25
      vertex -25.5686 -15 25
    endloop
  endfacet
  facet normal 0 0 1
    outer loop
      vertex -26.7 -67.2686 25
      vertex -24.7686 -16.9314 25
      vertex -26.7 -16.1314 25
    endloop
  endfacet
  facet normal 0 0 1
    outer loop
      vertex -24.7686 -66.4686 25
      vertex -26.7 -67.2686 25
      vertex -25.5686 -68.4 25
    endloop
  endfacet
  facet normal 0 0 1
    outer loop
      vertex -26.7 -67.2686 25
      vertex -40.5686 -83.4 25
      vertex -25.5686 -68.4 25
    endloop
  endfacet
  facet normal 0 -0 1
    outer loop
      vertex -40.5686 -83.4 25
      vertex -26.7 -67.2686 25
      vertex -41.7 -82.2686 25
    endloop
  endfacet
  facet normal 0 0 1
    outer loop
      vertex 25.5686 68.4 25
      vertex -24.7686 66.4686 25
      vertex 24.7686 66.4686 25
    endloop
  endfacet
  facet normal 0 0 1
    outer loop
      vertex -26.7 16.1314 25
      vertex -24.7686 16.9314 25
      vertex -24.7686 66.4686 25
    endloop
  endfacet
  facet normal -0 0 1
    outer loop
      vertex -25.5686 68.4 25
      vertex -24.7686 66.4686 25
      vertex 25.5686 68.4 25
    endloop
  endfacet
  facet normal -0 0 1
    outer loop
      vertex -26.7 67.2686 25
      vertex -24.7686 66.4686 25
      vertex -25.5686 68.4 25
    endloop
  endfacet
  facet normal 0 0 1
    outer loop
      vertex -26.7 16.1314 25
      vertex -24.7686 66.4686 25
      vertex -26.7 67.2686 25
    endloop
  endfacet
  facet normal 0 0 1
    outer loop
      vertex -24.7686 16.9314 25
      vertex -26.7 16.1314 25
      vertex -25.5686 15 25
    endloop
  endfacet
  facet normal 0 0 1
    outer loop
      vertex -26.7 16.1314 25
      vertex -40.5686 0 25
      vertex -25.5686 15 25
    endloop
  endfacet
  facet normal 0 -0 1
    outer loop
      vertex -40.5686 0 25
      vertex -26.7 16.1314 25
      vertex -41.7 1.13138 25
    endloop
  endfacet
  facet normal 0 0 1
    outer loop
      vertex 26.7 -67.2686 25
      vertex 40.5686 -83.4 25
      vertex 41.7 -82.2686 25
    endloop
  endfacet
  facet normal 0 0 1
    outer loop
      vertex 40.5686 -83.4 25
      vertex 26.7 -67.2686 25
      vertex 25.5686 -68.4 25
    endloop
  endfacet
  facet normal 0 0 1
    outer loop
      vertex 40.5686 83.4 25
      vertex 26.7 67.2686 25
      vertex 41.7 82.2686 25
    endloop
  endfacet
  facet normal -0 0 1
    outer loop
      vertex 24.7686 16.9314 25
      vertex 26.7 16.1314 25
      vertex 26.7 67.2686 25
    endloop
  endfacet
  facet normal -0 0 1
    outer loop
      vertex 25.5686 68.4 25
      vertex 26.7 67.2686 25
      vertex 40.5686 83.4 25
    endloop
  endfacet
  facet normal 0 0 1
    outer loop
      vertex 24.7686 66.4686 25
      vertex 26.7 67.2686 25
      vertex 25.5686 68.4 25
    endloop
  endfacet
  facet normal 0 0 1
    outer loop
      vertex 24.7686 16.9314 25
      vertex 26.7 67.2686 25
      vertex 24.7686 66.4686 25
    endloop
  endfacet
  facet normal 0 0 1
    outer loop
      vertex 26.7 16.1314 25
      vertex 24.7686 16.9314 25
      vertex 25.5686 15 25
    endloop
  endfacet
  facet normal -0 0 1
    outer loop
      vertex -24.7686 16.9314 25
      vertex 25.5686 15 25
      vertex 24.7686 16.9314 25
    endloop
  endfacet
  facet normal 0 0 1
    outer loop
      vertex 25.5686 15 25
      vertex -24.7686 16.9314 25
      vertex -25.5686 15 25
    endloop
  endfacet
  facet normal 0 0 1
    outer loop
      vertex 40.5686 0 25
      vertex 26.7 -16.1314 25
      vertex 41.7 -1.13138 25
    endloop
  endfacet
  facet normal -0 0 1
    outer loop
      vertex 24.7686 -66.4686 25
      vertex 26.7 -67.2686 25
      vertex 26.7 -16.1314 25
    endloop
  endfacet
  facet normal -0 0 1
    outer loop
      vertex 25.5686 -15 25
      vertex 26.7 -16.1314 25
      vertex 40.5686 0 25
    endloop
  endfacet
  facet normal 0 0 1
    outer loop
      vertex 24.7686 -16.9314 25
      vertex 26.7 -16.1314 25
      vertex 25.5686 -15 25
    endloop
  endfacet
  facet normal 0 0 1
    outer loop
      vertex 24.7686 -66.4686 25
      vertex 26.7 -16.1314 25
      vertex 24.7686 -16.9314 25
    endloop
  endfacet
  facet normal 0 0 1
    outer loop
      vertex 26.7 -67.2686 25
      vertex 24.7686 -66.4686 25
      vertex 25.5686 -68.4 25
    endloop
  endfacet
  facet normal -0 0 1
    outer loop
      vertex -24.7686 -66.4686 25
      vertex 25.5686 -68.4 25
      vertex 24.7686 -66.4686 25
    endloop
  endfacet
  facet normal 0 0 1
    outer loop
      vertex 25.5686 -68.4 25
      vertex -24.7686 -66.4686 25
      vertex -25.5686 -68.4 25
    endloop
  endfacet
  facet normal 0 0 1
    outer loop
      vertex 58.3 -100 25
      vertex 51.2448 -90.5583 25
      vertex 51.519 -91.492 25
    endloop
  endfacet
  facet normal 0 0 1
    outer loop
      vertex 56.7 -67.2686 25
      vertex 50.5094 -89.9211 25
      vertex 51.2448 -90.5583 25
    endloop
  endfacet
  facet normal -0 0 1
    outer loop
      vertex 41.7 -82.2686 25
      vertex 50.5094 -89.9211 25
      vertex 56.7 -67.2686 25
    endloop
  endfacet
  facet normal 0 0 1
    outer loop
      vertex 50.5094 -89.9211 25
      vertex 41.7 -82.2686 25
      vertex 49.5462 -89.7826 25
    endloop
  endfacet
  facet normal 0 0 1
    outer loop
      vertex 49.5462 -89.7826 25
      vertex 41.7 -82.2686 25
      vertex 48.6611 -90.1868 25
    endloop
  endfacet
  facet normal 0 0 1
    outer loop
      vertex 48.6611 -90.1868 25
      vertex 40.5686 -83.4 25
      vertex 48.135 -91.0054 25
    endloop
  endfacet
  facet normal -0 0 1
    outer loop
      vertex 40.5686 -83.4 25
      vertex 48.6611 -90.1868 25
      vertex 41.7 -82.2686 25
    endloop
  endfacet
  facet normal 0 0 1
    outer loop
      vertex 56.7 16.1314 25
      vertex 51.519 0 25
      vertex 56.7 -16.1314 25
    endloop
  endfacet
  facet normal 0 0 1
    outer loop
      vertex 56.7 16.1314 25
      vertex 51.2448 0.933686 25
      vertex 51.519 0 25
    endloop
  endfacet
  facet normal 0 0 1
    outer loop
      vertex 56.7 16.1314 25
      vertex 50.5094 1.57093 25
      vertex 51.2448 0.933686 25
    endloop
  endfacet
  facet normal 0 0 1
    outer loop
      vertex 56.7 16.1314 25
      vertex 49.5462 1.70942 25
      vertex 50.5094 1.57093 25
    endloop
  endfacet
  facet normal 0 0 1
    outer loop
      vertex 41.7 1.13138 25
      vertex 49.5462 1.70942 25
      vertex 56.7 16.1314 25
    endloop
  endfacet
  facet normal 0 0 1
    outer loop
      vertex 49.5462 1.70942 25
      vertex 41.7 1.13138 25
      vertex 48.6611 1.30518 25
    endloop
  endfacet
  facet normal 0 0 1
    outer loop
      vertex 48.135 0.486551 25
      vertex 41.7 1.13138 25
      vertex 48.135 -0.486551 25
    endloop
  endfacet
  facet normal 0 0 1
    outer loop
      vertex 48.6611 1.30518 25
      vertex 41.7 1.13138 25
      vertex 48.135 0.486551 25
    endloop
  endfacet
  facet normal 0 0 1
    outer loop
      vertex 56.7 16.1314 25
      vertex 58.3 100 25
      vertex 56.7 67.2686 25
    endloop
  endfacet
  facet normal 0 0 1
    outer loop
      vertex 51.2448 90.5583 25
      vertex 58.3 100 25
      vertex 51.519 91.492 25
    endloop
  endfacet
  facet normal 0 0 1
    outer loop
      vertex 58.3 100 25
      vertex 51.2448 92.4257 25
      vertex 51.519 91.492 25
    endloop
  endfacet
  facet normal 0 0 1
    outer loop
      vertex 58.3 100 25
      vertex 50.5094 93.0629 25
      vertex 51.2448 92.4257 25
    endloop
  endfacet
  facet normal 0 0 1
    outer loop
      vertex 58.3 100 25
      vertex 49.5462 93.2014 25
      vertex 50.5094 93.0629 25
    endloop
  endfacet
  facet normal -0 0 1
    outer loop
      vertex 25.5686 98.4 25
      vertex 49.5462 93.2014 25
      vertex 58.3 100 25
    endloop
  endfacet
  facet normal 0 0 1
    outer loop
      vertex 40.5686 83.4 25
      vertex 48.135 91.0054 25
      vertex 48.135 91.9786 25
    endloop
  endfacet
  facet normal 0 0 1
    outer loop
      vertex 25.5686 98.4 25
      vertex 48.135 91.9786 25
      vertex 48.6611 92.7972 25
    endloop
  endfacet
  facet normal 0 0 1
    outer loop
      vertex 48.135 91.0054 25
      vertex 40.5686 83.4 25
      vertex 41.7 82.2686 25
    endloop
  endfacet
  facet normal 0 0 1
    outer loop
      vertex 48.135 91.9786 25
      vertex 25.5686 98.4 25
      vertex 40.5686 83.4 25
    endloop
  endfacet
  facet normal 0 0 1
    outer loop
      vertex 49.5462 93.2014 25
      vertex 25.5686 98.4 25
      vertex 48.6611 92.7972 25
    endloop
  endfacet
  facet normal 0 0 1
    outer loop
      vertex 58.3 100 25
      vertex -25.5686 98.4 25
      vertex 25.5686 98.4 25
    endloop
  endfacet
  facet normal -0 0 1
    outer loop
      vertex -48.3392 90.5583 25
      vertex -40.5686 83.4 25
      vertex -48.065 91.492 25
    endloop
  endfacet
  facet normal 0 0 1
    outer loop
      vertex -25.5686 98.4 25
      vertex -48.065 91.492 25
      vertex -40.5686 83.4 25
    endloop
  endfacet
  facet normal 0 0 1
    outer loop
      vertex -25.5686 98.4 25
      vertex -48.3392 92.4257 25
      vertex -48.065 91.492 25
    endloop
  endfacet
  facet normal 0 0 1
    outer loop
      vertex -25.5686 98.4 25
      vertex -49.0746 93.0629 25
      vertex -48.3392 92.4257 25
    endloop
  endfacet
  facet normal 0 0 1
    outer loop
      vertex -58.3 100 25
      vertex -49.0746 93.0629 25
      vertex -25.5686 98.4 25
    endloop
  endfacet
  facet normal 0 0 1
    outer loop
      vertex -58.3 100 25
      vertex -51.449 91.0054 25
      vertex -51.449 91.9786 25
    endloop
  endfacet
  facet normal 0 0 1
    outer loop
      vertex -58.3 100 25
      vertex -56.7 16.1314 25
      vertex -56.7 67.2686 25
    endloop
  endfacet
  facet normal 0 0 1
    outer loop
      vertex -56.7 16.1314 25
      vertex -58.3 100 25
      vertex -56.7 -16.1314 25
    endloop
  endfacet
  facet normal 0 0 1
    outer loop
      vertex -58.3 -100 25
      vertex -56.7 -16.1314 25
      vertex -58.3 100 25
    endloop
  endfacet
  facet normal 0 0 1
    outer loop
      vertex -51.449 91.0054 25
      vertex -58.3 100 25
      vertex -56.7 67.2686 25
    endloop
  endfacet
  facet normal 0 0 1
    outer loop
      vertex -50.9229 92.7972 25
      vertex -58.3 100 25
      vertex -51.449 91.9786 25
    endloop
  endfacet
  facet normal 0 0 1
    outer loop
      vertex -50.0378 93.2014 25
      vertex -58.3 100 25
      vertex -50.9229 92.7972 25
    endloop
  endfacet
  facet normal 0 0 1
    outer loop
      vertex -49.0746 93.0629 25
      vertex -58.3 100 25
      vertex -50.0378 93.2014 25
    endloop
  endfacet
  facet normal -0 0 1
    outer loop
      vertex -58.3 100 25
      vertex -25.5686 98.4 25
      vertex 58.3 100 25
    endloop
  endfacet
  facet normal 0 0 1
    outer loop
      vertex 58.3 100 25
      vertex 56.7 16.1314 25
      vertex 58.3 -100 25
    endloop
  endfacet
  facet normal -0 0 1
    outer loop
      vertex 56.7 -16.1314 25
      vertex 58.3 -100 25
      vertex 56.7 16.1314 25
    endloop
  endfacet
  facet normal -0 0 1
    outer loop
      vertex 56.7 -67.2686 25
      vertex 58.3 -100 25
      vertex 56.7 -16.1314 25
    endloop
  endfacet
  facet normal -0 0 1
    outer loop
      vertex 51.2448 -90.5583 25
      vertex 58.3 -100 25
      vertex 56.7 -67.2686 25
    endloop
  endfacet
  facet normal -0 0 1
    outer loop
      vertex 51.2448 -92.4257 25
      vertex 58.3 -100 25
      vertex 51.519 -91.492 25
    endloop
  endfacet
  facet normal -0 0 1
    outer loop
      vertex 50.5094 -93.0629 25
      vertex 58.3 -100 25
      vertex 51.2448 -92.4257 25
    endloop
  endfacet
  facet normal -0 0 1
    outer loop
      vertex 49.5462 -93.2014 25
      vertex 58.3 -100 25
      vertex 50.5094 -93.0629 25
    endloop
  endfacet
  facet normal 0 0 1
    outer loop
      vertex 25.5686 -98.4 25
      vertex 49.5462 -93.2014 25
      vertex 48.6611 -92.7972 25
    endloop
  endfacet
  facet normal 0 0 1
    outer loop
      vertex 48.135 -91.0054 25
      vertex 40.5686 -83.4 25
      vertex 48.135 -91.9786 25
    endloop
  endfacet
  facet normal 0 0 1
    outer loop
      vertex 25.5686 -98.4 25
      vertex 48.135 -91.9786 25
      vertex 40.5686 -83.4 25
    endloop
  endfacet
  facet normal 0 0 1
    outer loop
      vertex 48.135 -91.9786 25
      vertex 25.5686 -98.4 25
      vertex 48.6611 -92.7972 25
    endloop
  endfacet
  facet normal 0 0 1
    outer loop
      vertex 49.5462 -93.2014 25
      vertex 25.5686 -98.4 25
      vertex 58.3 -100 25
    endloop
  endfacet
  facet normal -0 0 1
    outer loop
      vertex -25.5686 -98.4 25
      vertex 58.3 -100 25
      vertex 25.5686 -98.4 25
    endloop
  endfacet
  facet normal 0 0 1
    outer loop
      vertex -48.3392 -90.5583 25
      vertex -40.5686 -83.4 25
      vertex -41.7 -82.2686 25
    endloop
  endfacet
  facet normal 0 0 1
    outer loop
      vertex -40.5686 -83.4 25
      vertex -48.065 -91.492 25
      vertex -25.5686 -98.4 25
    endloop
  endfacet
  facet normal -0 0 1
    outer loop
      vertex -48.3392 -92.4257 25
      vertex -25.5686 -98.4 25
      vertex -48.065 -91.492 25
    endloop
  endfacet
  facet normal -0 0 1
    outer loop
      vertex -49.0746 -93.0629 25
      vertex -25.5686 -98.4 25
      vertex -48.3392 -92.4257 25
    endloop
  endfacet
  facet normal 0 0 1
    outer loop
      vertex -58.3 -100 25
      vertex -49.0746 -93.0629 25
      vertex -50.0378 -93.2014 25
    endloop
  endfacet
  facet normal 0 0 1
    outer loop
      vertex -25.5686 -98.4 25
      vertex -58.3 -100 25
      vertex 58.3 -100 25
    endloop
  endfacet
  facet normal 0 0 1
    outer loop
      vertex -49.0746 -93.0629 25
      vertex -58.3 -100 25
      vertex -25.5686 -98.4 25
    endloop
  endfacet
  facet normal 0 0 1
    outer loop
      vertex -50.9229 -92.7972 25
      vertex -58.3 -100 25
      vertex -50.0378 -93.2014 25
    endloop
  endfacet
  facet normal 0 0 1
    outer loop
      vertex -51.449 -91.9786 25
      vertex -58.3 -100 25
      vertex -50.9229 -92.7972 25
    endloop
  endfacet
  facet normal 0 0 1
    outer loop
      vertex -51.449 -91.0054 25
      vertex -58.3 -100 25
      vertex -51.449 -91.9786 25
    endloop
  endfacet
  facet normal 0 0 1
    outer loop
      vertex -56.7 -16.1314 25
      vertex -58.3 -100 25
      vertex -56.7 -67.2686 25
    endloop
  endfacet
  facet normal 0 0 1
    outer loop
      vertex 58.3 100 25
      vertex 51.2448 90.5583 25
      vertex 56.7 67.2686 25
    endloop
  endfacet
  facet normal -0 0 1
    outer loop
      vertex 50.5094 89.9211 25
      vertex 56.7 67.2686 25
      vertex 51.2448 90.5583 25
    endloop
  endfacet
  facet normal 0 0 1
    outer loop
      vertex 41.7 82.2686 25
      vertex 50.5094 89.9211 25
      vertex 49.5462 89.7826 25
    endloop
  endfacet
  facet normal 0 0 1
    outer loop
      vertex 41.7 82.2686 25
      vertex 49.5462 89.7826 25
      vertex 48.6611 90.1868 25
    endloop
  endfacet
  facet normal 0 0 1
    outer loop
      vertex 41.7 82.2686 25
      vertex 48.6611 90.1868 25
      vertex 48.135 91.0054 25
    endloop
  endfacet
  facet normal 0 0 1
    outer loop
      vertex 50.5094 89.9211 25
      vertex 41.7 82.2686 25
      vertex 56.7 67.2686 25
    endloop
  endfacet
  facet normal -0 0 1
    outer loop
      vertex 51.2448 -0.933686 25
      vertex 56.7 -16.1314 25
      vertex 51.519 0 25
    endloop
  endfacet
  facet normal -0 0 1
    outer loop
      vertex 50.5094 -1.57093 25
      vertex 56.7 -16.1314 25
      vertex 51.2448 -0.933686 25
    endloop
  endfacet
  facet normal -0 0 1
    outer loop
      vertex 49.5462 -1.70942 25
      vertex 56.7 -16.1314 25
      vertex 50.5094 -1.57093 25
    endloop
  endfacet
  facet normal 0 0 1
    outer loop
      vertex 41.7 -1.13138 25
      vertex 49.5462 -1.70942 25
      vertex 48.6611 -1.30518 25
    endloop
  endfacet
  facet normal -0 0 1
    outer loop
      vertex 41.7 -1.13138 25
      vertex 48.6611 -1.30518 25
      vertex 48.135 -0.486551 25
    endloop
  endfacet
  facet normal 0 0 1
    outer loop
      vertex 41.7 -1.13138 25
      vertex 48.135 -0.486551 25
      vertex 41.7 1.13138 25
    endloop
  endfacet
  facet normal 0 0 1
    outer loop
      vertex 49.5462 -1.70942 25
      vertex 41.7 -1.13138 25
      vertex 56.7 -16.1314 25
    endloop
  endfacet
  facet normal 0 0 1
    outer loop
      vertex 41.7 1.13138 25
      vertex 40.5686 0 25
      vertex 41.7 -1.13138 25
    endloop
  endfacet
  facet normal 0 0 1
    outer loop
      vertex 26.7 16.1314 25
      vertex 40.5686 0 25
      vertex 41.7 1.13138 25
    endloop
  endfacet
  facet normal 0 0 1
    outer loop
      vertex 40.5686 0 25
      vertex 26.7 16.1314 25
      vertex 25.5686 15 25
    endloop
  endfacet
  facet normal 0 1 -0
    outer loop
      vertex 58.3 100 0
      vertex -58.3 100 25
      vertex 58.3 100 25
    endloop
  endfacet
  facet normal 0 1 0
    outer loop
      vertex -58.3 100 25
      vertex 58.3 100 0
      vertex -58.3 100 0
    endloop
  endfacet
  facet normal -1 0 0
    outer loop
      vertex -58.3 -100 0
      vertex -58.3 100 25
      vertex -58.3 100 0
    endloop
  endfacet
  facet normal -1 -0 0
    outer loop
      vertex -58.3 100 25
      vertex -58.3 -100 0
      vertex -58.3 -100 25
    endloop
  endfacet
  facet normal 0 -1 0
    outer loop
      vertex -58.3 -100 0
      vertex 58.3 -100 25
      vertex -58.3 -100 25
    endloop
  endfacet
  facet normal 0 -1 -0
    outer loop
      vertex 58.3 -100 25
      vertex -58.3 -100 0
      vertex 58.3 -100 0
    endloop
  endfacet
  facet normal 1 -0 0
    outer loop
      vertex 58.3 -100 25
      vertex 58.3 100 0
      vertex 58.3 100 25
    endloop
  endfacet
  facet normal 1 0 0
    outer loop
      vertex 58.3 100 0
      vertex 58.3 -100 25
      vertex 58.3 -100 0
    endloop
  endfacet
  facet normal 1 -0 0
    outer loop
      vertex -24.7686 16.9314 25
      vertex -24.7686 66.4686 0
      vertex -24.7686 66.4686 25
    endloop
  endfacet
  facet normal 1 0 0
    outer loop
      vertex -24.7686 66.4686 0
      vertex -24.7686 16.9314 25
      vertex -24.7686 16.9314 0
    endloop
  endfacet
  facet normal 0 -1 0
    outer loop
      vertex -24.7686 66.4686 0
      vertex 24.7686 66.4686 25
      vertex -24.7686 66.4686 25
    endloop
  endfacet
  facet normal 0 -1 -0
    outer loop
      vertex 24.7686 66.4686 25
      vertex -24.7686 66.4686 0
      vertex 24.7686 66.4686 0
    endloop
  endfacet
  facet normal -1 0 0
    outer loop
      vertex 24.7686 16.9314 0
      vertex 24.7686 66.4686 25
      vertex 24.7686 66.4686 0
    endloop
  endfacet
  facet normal -1 -0 0
    outer loop
      vertex 24.7686 66.4686 25
      vertex 24.7686 16.9314 0
      vertex 24.7686 16.9314 25
    endloop
  endfacet
  facet normal 0 1 -0
    outer loop
      vertex 24.7686 16.9314 0
      vertex -24.7686 16.9314 25
      vertex 24.7686 16.9314 25
    endloop
  endfacet
  facet normal 0 1 0
    outer loop
      vertex -24.7686 16.9314 25
      vertex 24.7686 16.9314 0
      vertex -24.7686 16.9314 0
    endloop
  endfacet
  facet normal 1 -0 0
    outer loop
      vertex -24.7686 -66.4686 25
      vertex -24.7686 -16.9314 0
      vertex -24.7686 -16.9314 25
    endloop
  endfacet
  facet normal 1 0 0
    outer loop
      vertex -24.7686 -16.9314 0
      vertex -24.7686 -66.4686 25
      vertex -24.7686 -66.4686 0
    endloop
  endfacet
  facet normal 0 -1 0
    outer loop
      vertex -24.7686 -16.9314 0
      vertex 24.7686 -16.9314 25
      vertex -24.7686 -16.9314 25
    endloop
  endfacet
  facet normal 0 -1 -0
    outer loop
      vertex 24.7686 -16.9314 25
      vertex -24.7686 -16.9314 0
      vertex 24.7686 -16.9314 0
    endloop
  endfacet
  facet normal -1 0 0
    outer loop
      vertex 24.7686 -66.4686 0
      vertex 24.7686 -16.9314 25
      vertex 24.7686 -16.9314 0
    endloop
  endfacet
  facet normal -1 -0 0
    outer loop
      vertex 24.7686 -16.9314 25
      vertex 24.7686 -66.4686 0
      vertex 24.7686 -66.4686 25
    endloop
  endfacet
  facet normal 0 1 -0
    outer loop
      vertex 24.7686 -66.4686 0
      vertex -24.7686 -66.4686 25
      vertex 24.7686 -66.4686 25
    endloop
  endfacet
  facet normal 0 1 0
    outer loop
      vertex -24.7686 -66.4686 25
      vertex 24.7686 -66.4686 0
      vertex -24.7686 -66.4686 0
    endloop
  endfacet
  facet normal -0.707107 -0.707107 0
    outer loop
      vertex 40.5686 83.4 0
      vertex 25.5686 98.4 25
      vertex 25.5686 98.4 0
    endloop
  endfacet
  facet normal -0.707107 -0.707107 0
    outer loop
      vertex 25.5686 98.4 25
      vertex 40.5686 83.4 0
      vertex 40.5686 83.4 25
    endloop
  endfacet
  facet normal 0 -1 0
    outer loop
      vertex -25.5686 98.4 0
      vertex 25.5686 98.4 25
      vertex -25.5686 98.4 25
    endloop
  endfacet
  facet normal 0 -1 -0
    outer loop
      vertex 25.5686 98.4 25
      vertex -25.5686 98.4 0
      vertex 25.5686 98.4 0
    endloop
  endfacet
  facet normal 0.707106 -0.707107 0
    outer loop
      vertex -40.5686 83.4 0
      vertex -25.5686 98.4 25
      vertex -40.5686 83.4 25
    endloop
  endfacet
  facet normal 0.707106 -0.707107 0
    outer loop
      vertex -25.5686 98.4 25
      vertex -40.5686 83.4 0
      vertex -25.5686 98.4 0
    endloop
  endfacet
  facet normal 0.707107 0.707107 0
    outer loop
      vertex -25.5686 68.4 25
      vertex -40.5686 83.4 0
      vertex -40.5686 83.4 25
    endloop
  endfacet
  facet normal 0.707107 0.707107 0
    outer loop
      vertex -40.5686 83.4 0
      vertex -25.5686 68.4 25
      vertex -25.5686 68.4 0
    endloop
  endfacet
  facet normal 0 1 -0
    outer loop
      vertex 25.5686 68.4 0
      vertex -25.5686 68.4 25
      vertex 25.5686 68.4 25
    endloop
  endfacet
  facet normal 0 1 0
    outer loop
      vertex -25.5686 68.4 25
      vertex 25.5686 68.4 0
      vertex -25.5686 68.4 0
    endloop
  endfacet
  facet normal -0.707106 0.707107 0
    outer loop
      vertex 40.5686 83.4 0
      vertex 25.5686 68.4 25
      vertex 40.5686 83.4 25
    endloop
  endfacet
  facet normal -0.707106 0.707107 0
    outer loop
      vertex 25.5686 68.4 25
      vertex 40.5686 83.4 0
      vertex 25.5686 68.4 0
    endloop
  endfacet
  facet normal -1 0 0
    outer loop
      vertex -26.7 16.1314 0
      vertex -26.7 67.2686 25
      vertex -26.7 67.2686 0
    endloop
  endfacet
  facet normal -1 -0 0
    outer loop
      vertex -26.7 67.2686 25
      vertex -26.7 16.1314 0
      vertex -26.7 16.1314 25
    endloop
  endfacet
  facet normal -0.707107 -0.707107 0
    outer loop
      vertex -26.7 67.2686 0
      vertex -41.7 82.2686 25
      vertex -41.7 82.2686 0
    endloop
  endfacet
  facet normal -0.707107 -0.707107 0
    outer loop
      vertex -41.7 82.2686 25
      vertex -26.7 67.2686 0
      vertex -26.7 67.2686 25
    endloop
  endfacet
  facet normal 0.707107 -0.707107 0
    outer loop
      vertex -56.7 67.2686 25
      vertex -41.7 82.2686 0
      vertex -41.7 82.2686 25
    endloop
  endfacet
  facet normal 0.707107 -0.707107 0
    outer loop
      vertex -41.7 82.2686 0
      vertex -56.7 67.2686 25
      vertex -56.7 67.2686 0
    endloop
  endfacet
  facet normal 1 -0 0
    outer loop
      vertex -56.7 16.1314 25
      vertex -56.7 67.2686 0
      vertex -56.7 67.2686 25
    endloop
  endfacet
  facet normal 1 0 0
    outer loop
      vertex -56.7 67.2686 0
      vertex -56.7 16.1314 25
      vertex -56.7 16.1314 0
    endloop
  endfacet
  facet normal 0.707107 0.707107 0
    outer loop
      vertex -41.7 1.13138 25
      vertex -56.7 16.1314 0
      vertex -56.7 16.1314 25
    endloop
  endfacet
  facet normal 0.707107 0.707107 0
    outer loop
      vertex -56.7 16.1314 0
      vertex -41.7 1.13138 25
      vertex -41.7 1.13138 0
    endloop
  endfacet
  facet normal -0.707107 0.707107 0
    outer loop
      vertex -41.7 1.13138 0
      vertex -26.7 16.1314 25
      vertex -26.7 16.1314 0
    endloop
  endfacet
  facet normal -0.707107 0.707107 0
    outer loop
      vertex -26.7 16.1314 25
      vertex -41.7 1.13138 0
      vertex -41.7 1.13138 25
    endloop
  endfacet
  facet normal -1 0 0
    outer loop
      vertex 56.7 16.1314 0
      vertex 56.7 67.2686 25
      vertex 56.7 67.2686 0
    endloop
  endfacet
  facet normal -1 -0 0
    outer loop
      vertex 56.7 67.2686 25
      vertex 56.7 16.1314 0
      vertex 56.7 16.1314 25
    endloop
  endfacet
  facet normal -0.707107 -0.707107 0
    outer loop
      vertex 56.7 67.2686 0
      vertex 41.7 82.2686 25
      vertex 41.7 82.2686 0
    endloop
  endfacet
  facet normal -0.707107 -0.707107 0
    outer loop
      vertex 41.7 82.2686 25
      vertex 56.7 67.2686 0
      vertex 56.7 67.2686 25
    endloop
  endfacet
  facet normal 0.707107 -0.707107 0
    outer loop
      vertex 26.7 67.2686 25
      vertex 41.7 82.2686 0
      vertex 41.7 82.2686 25
    endloop
  endfacet
  facet normal 0.707107 -0.707107 0
    outer loop
      vertex 41.7 82.2686 0
      vertex 26.7 67.2686 25
      vertex 26.7 67.2686 0
    endloop
  endfacet
  facet normal 1 -0 0
    outer loop
      vertex 26.7 16.1314 25
      vertex 26.7 67.2686 0
      vertex 26.7 67.2686 25
    endloop
  endfacet
  facet normal 1 0 0
    outer loop
      vertex 26.7 67.2686 0
      vertex 26.7 16.1314 25
      vertex 26.7 16.1314 0
    endloop
  endfacet
  facet normal 0.707107 0.707107 0
    outer loop
      vertex 41.7 1.13138 25
      vertex 26.7 16.1314 0
      vertex 26.7 16.1314 25
    endloop
  endfacet
  facet normal 0.707107 0.707107 0
    outer loop
      vertex 26.7 16.1314 0
      vertex 41.7 1.13138 25
      vertex 41.7 1.13138 0
    endloop
  endfacet
  facet normal -0.707107 0.707107 0
    outer loop
      vertex 41.7 1.13138 0
      vertex 56.7 16.1314 25
      vertex 56.7 16.1314 0
    endloop
  endfacet
  facet normal -0.707107 0.707107 0
    outer loop
      vertex 56.7 16.1314 25
      vertex 41.7 1.13138 0
      vertex 41.7 1.13138 25
    endloop
  endfacet
  facet normal -0.707106 -0.707107 0
    outer loop
      vertex 25.5686 15 0
      vertex 40.5686 0 25
      vertex 25.5686 15 25
    endloop
  endfacet
  facet normal -0.707106 -0.707107 -0
    outer loop
      vertex 40.5686 0 25
      vertex 25.5686 15 0
      vertex 40.5686 0 0
    endloop
  endfacet
  facet normal -2.98389e-007 -1 0
    outer loop
      vertex -25.5686 15 0
      vertex 25.5686 15 25
      vertex -25.5686 15 25
    endloop
  endfacet
  facet normal -2.98389e-007 -1 -0
    outer loop
      vertex 25.5686 15 25
      vertex -25.5686 15 0
      vertex 25.5686 15 0
    endloop
  endfacet
  facet normal 0.707106 -0.707107 0
    outer loop
      vertex -40.5686 0 0
      vertex -25.5686 15 25
      vertex -40.5686 0 25
    endloop
  endfacet
  facet normal 0.707106 -0.707107 0
    outer loop
      vertex -25.5686 15 25
      vertex -40.5686 0 0
      vertex -25.5686 15 0
    endloop
  endfacet
  facet normal 0.707106 0.707107 -0
    outer loop
      vertex -25.5686 -15 0
      vertex -40.5686 0 25
      vertex -25.5686 -15 25
    endloop
  endfacet
  facet normal 0.707106 0.707107 0
    outer loop
      vertex -40.5686 0 25
      vertex -25.5686 -15 0
      vertex -40.5686 0 0
    endloop
  endfacet
  facet normal 2.98389e-007 1 -0
    outer loop
      vertex 25.5686 -15 0
      vertex -25.5686 -15 25
      vertex 25.5686 -15 25
    endloop
  endfacet
  facet normal 2.98389e-007 1 0
    outer loop
      vertex -25.5686 -15 25
      vertex 25.5686 -15 0
      vertex -25.5686 -15 0
    endloop
  endfacet
  facet normal -0.707106 0.707107 0
    outer loop
      vertex 40.5686 0 0
      vertex 25.5686 -15 25
      vertex 40.5686 0 25
    endloop
  endfacet
  facet normal -0.707106 0.707107 0
    outer loop
      vertex 25.5686 -15 25
      vertex 40.5686 0 0
      vertex 25.5686 -15 0
    endloop
  endfacet
  facet normal -1 0 0
    outer loop
      vertex -26.7 -67.2686 0
      vertex -26.7 -16.1314 25
      vertex -26.7 -16.1314 0
    endloop
  endfacet
  facet normal -1 -0 0
    outer loop
      vertex -26.7 -16.1314 25
      vertex -26.7 -67.2686 0
      vertex -26.7 -67.2686 25
    endloop
  endfacet
  facet normal -0.707107 -0.707107 0
    outer loop
      vertex -26.7 -16.1314 0
      vertex -41.7 -1.13138 25
      vertex -41.7 -1.13138 0
    endloop
  endfacet
  facet normal -0.707107 -0.707107 0
    outer loop
      vertex -41.7 -1.13138 25
      vertex -26.7 -16.1314 0
      vertex -26.7 -16.1314 25
    endloop
  endfacet
  facet normal 0.707107 -0.707107 0
    outer loop
      vertex -56.7 -16.1314 25
      vertex -41.7 -1.13138 0
      vertex -41.7 -1.13138 25
    endloop
  endfacet
  facet normal 0.707107 -0.707107 0
    outer loop
      vertex -41.7 -1.13138 0
      vertex -56.7 -16.1314 25
      vertex -56.7 -16.1314 0
    endloop
  endfacet
  facet normal 1 -0 0
    outer loop
      vertex -56.7 -67.2686 25
      vertex -56.7 -16.1314 0
      vertex -56.7 -16.1314 25
    endloop
  endfacet
  facet normal 1 0 0
    outer loop
      vertex -56.7 -16.1314 0
      vertex -56.7 -67.2686 25
      vertex -56.7 -67.2686 0
    endloop
  endfacet
  facet normal 0.707107 0.707107 0
    outer loop
      vertex -41.7 -82.2686 25
      vertex -56.7 -67.2686 0
      vertex -56.7 -67.2686 25
    endloop
  endfacet
  facet normal 0.707107 0.707107 0
    outer loop
      vertex -56.7 -67.2686 0
      vertex -41.7 -82.2686 25
      vertex -41.7 -82.2686 0
    endloop
  endfacet
  facet normal -0.707107 0.707107 0
    outer loop
      vertex -41.7 -82.2686 0
      vertex -26.7 -67.2686 25
      vertex -26.7 -67.2686 0
    endloop
  endfacet
  facet normal -0.707107 0.707107 0
    outer loop
      vertex -26.7 -67.2686 25
      vertex -41.7 -82.2686 0
      vertex -41.7 -82.2686 25
    endloop
  endfacet
  facet normal -1 0 0
    outer loop
      vertex 56.7 -67.2686 0
      vertex 56.7 -16.1314 25
      vertex 56.7 -16.1314 0
    endloop
  endfacet
  facet normal -1 -0 0
    outer loop
      vertex 56.7 -16.1314 25
      vertex 56.7 -67.2686 0
      vertex 56.7 -67.2686 25
    endloop
  endfacet
  facet normal -0.707107 -0.707107 0
    outer loop
      vertex 56.7 -16.1314 0
      vertex 41.7 -1.13138 25
      vertex 41.7 -1.13138 0
    endloop
  endfacet
  facet normal -0.707107 -0.707107 0
    outer loop
      vertex 41.7 -1.13138 25
      vertex 56.7 -16.1314 0
      vertex 56.7 -16.1314 25
    endloop
  endfacet
  facet normal 0.707107 -0.707107 0
    outer loop
      vertex 26.7 -16.1314 25
      vertex 41.7 -1.13138 0
      vertex 41.7 -1.13138 25
    endloop
  endfacet
  facet normal 0.707107 -0.707107 0
    outer loop
      vertex 41.7 -1.13138 0
      vertex 26.7 -16.1314 25
      vertex 26.7 -16.1314 0
    endloop
  endfacet
  facet normal 1 -0 0
    outer loop
      vertex 26.7 -67.2686 25
      vertex 26.7 -16.1314 0
      vertex 26.7 -16.1314 25
    endloop
  endfacet
  facet normal 1 0 0
    outer loop
      vertex 26.7 -16.1314 0
      vertex 26.7 -67.2686 25
      vertex 26.7 -67.2686 0
    endloop
  endfacet
  facet normal 0.707107 0.707107 0
    outer loop
      vertex 41.7 -82.2686 25
      vertex 26.7 -67.2686 0
      vertex 26.7 -67.2686 25
    endloop
  endfacet
  facet normal 0.707107 0.707107 0
    outer loop
      vertex 26.7 -67.2686 0
      vertex 41.7 -82.2686 25
      vertex 41.7 -82.2686 0
    endloop
  endfacet
  facet normal -0.707107 0.707107 0
    outer loop
      vertex 41.7 -82.2686 0
      vertex 56.7 -67.2686 25
      vertex 56.7 -67.2686 0
    endloop
  endfacet
  facet normal -0.707107 0.707107 0
    outer loop
      vertex 56.7 -67.2686 25
      vertex 41.7 -82.2686 0
      vertex 41.7 -82.2686 25
    endloop
  endfacet
  facet normal -0.707107 -0.707107 0
    outer loop
      vertex 40.5686 -83.4 0
      vertex 25.5686 -68.4 25
      vertex 25.5686 -68.4 0
    endloop
  endfacet
  facet normal -0.707107 -0.707107 0
    outer loop
      vertex 25.5686 -68.4 25
      vertex 40.5686 -83.4 0
      vertex 40.5686 -83.4 25
    endloop
  endfacet
  facet normal 0 -1 0
    outer loop
      vertex -25.5686 -68.4 0
      vertex 25.5686 -68.4 25
      vertex -25.5686 -68.4 25
    endloop
  endfacet
  facet normal 0 -1 -0
    outer loop
      vertex 25.5686 -68.4 25
      vertex -25.5686 -68.4 0
      vertex 25.5686 -68.4 0
    endloop
  endfacet
  facet normal 0.707106 -0.707107 0
    outer loop
      vertex -40.5686 -83.4 0
      vertex -25.5686 -68.4 25
      vertex -40.5686 -83.4 25
    endloop
  endfacet
  facet normal 0.707106 -0.707107 0
    outer loop
      vertex -25.5686 -68.4 25
      vertex -40.5686 -83.4 0
      vertex -25.5686 -68.4 0
    endloop
  endfacet
  facet normal 0.707107 0.707107 0
    outer loop
      vertex -25.5686 -98.4 25
      vertex -40.5686 -83.4 0
      vertex -40.5686 -83.4 25
    endloop
  endfacet
  facet normal 0.707107 0.707107 0
    outer loop
      vertex -40.5686 -83.4 0
      vertex -25.5686 -98.4 25
      vertex -25.5686 -98.4 0
    endloop
  endfacet
  facet normal 0 1 -0
    outer loop
      vertex 25.5686 -98.4 0
      vertex -25.5686 -98.4 25
      vertex 25.5686 -98.4 25
    endloop
  endfacet
  facet normal 0 1 0
    outer loop
      vertex -25.5686 -98.4 25
      vertex 25.5686 -98.4 0
      vertex -25.5686 -98.4 0
    endloop
  endfacet
  facet normal -0.707106 0.707107 0
    outer loop
      vertex 40.5686 -83.4 0
      vertex 25.5686 -98.4 25
      vertex 40.5686 -83.4 25
    endloop
  endfacet
  facet normal -0.707106 0.707107 0
    outer loop
      vertex 25.5686 -98.4 25
      vertex 40.5686 -83.4 0
      vertex 25.5686 -98.4 0
    endloop
  endfacet
  facet normal -0.959493 -0.281732 0
    outer loop
      vertex 51.519 0 1
      vertex 51.2448 0.933686 25
      vertex 51.2448 0.933686 1
    endloop
  endfacet
  facet normal -0.959493 -0.281732 0
    outer loop
      vertex 51.2448 0.933686 25
      vertex 51.519 0 1
      vertex 51.519 0 25
    endloop
  endfacet
  facet normal 1 -0 0
    outer loop
      vertex 48.135 -0.486551 25
      vertex 48.135 0.486551 1
      vertex 48.135 0.486551 25
    endloop
  endfacet
  facet normal 1 0 0
    outer loop
      vertex 48.135 0.486551 1
      vertex 48.135 -0.486551 25
      vertex 48.135 -0.486551 1
    endloop
  endfacet
  facet normal 0 0 1
    outer loop
      vertex 51.2448 0.933686 1
      vertex 51.2448 -0.933686 1
      vertex 51.519 0 1
    endloop
  endfacet
  facet normal 0 0 1
    outer loop
      vertex 50.5094 1.57093 1
      vertex 51.2448 -0.933686 1
      vertex 51.2448 0.933686 1
    endloop
  endfacet
  facet normal 0 0 1
    outer loop
      vertex 50.5094 1.57093 1
      vertex 50.5094 -1.57093 1
      vertex 51.2448 -0.933686 1
    endloop
  endfacet
  facet normal 0 0 1
    outer loop
      vertex 49.5462 1.70942 1
      vertex 50.5094 -1.57093 1
      vertex 50.5094 1.57093 1
    endloop
  endfacet
  facet normal 0 0 1
    outer loop
      vertex 49.5462 1.70942 1
      vertex 49.5462 -1.70942 1
      vertex 50.5094 -1.57093 1
    endloop
  endfacet
  facet normal -0 0 1
    outer loop
      vertex 48.6611 1.30518 1
      vertex 49.5462 -1.70942 1
      vertex 49.5462 1.70942 1
    endloop
  endfacet
  facet normal 0 0 1
    outer loop
      vertex 48.6611 1.30518 1
      vertex 48.6611 -1.30518 1
      vertex 49.5462 -1.70942 1
    endloop
  endfacet
  facet normal -0 0 1
    outer loop
      vertex 48.135 0.486551 1
      vertex 48.6611 -1.30518 1
      vertex 48.6611 1.30518 1
    endloop
  endfacet
  facet normal 0 0 1
    outer loop
      vertex 48.6611 -1.30518 1
      vertex 48.135 0.486551 1
      vertex 48.135 -0.486551 1
    endloop
  endfacet
  facet normal -0.142315 -0.989821 0
    outer loop
      vertex 49.5462 1.70942 1
      vertex 50.5094 1.57093 25
      vertex 49.5462 1.70942 25
    endloop
  endfacet
  facet normal -0.142315 -0.989821 -0
    outer loop
      vertex 50.5094 1.57093 25
      vertex 49.5462 1.70942 1
      vertex 50.5094 1.57093 1
    endloop
  endfacet
  facet normal -0.654862 -0.755748 0
    outer loop
      vertex 50.5094 1.57093 1
      vertex 51.2448 0.933686 25
      vertex 50.5094 1.57093 25
    endloop
  endfacet
  facet normal -0.654862 -0.755748 -0
    outer loop
      vertex 51.2448 0.933686 25
      vertex 50.5094 1.57093 1
      vertex 51.2448 0.933686 1
    endloop
  endfacet
  facet normal 0.415416 -0.909632 0
    outer loop
      vertex 48.6611 1.30518 1
      vertex 49.5462 1.70942 25
      vertex 48.6611 1.30518 25
    endloop
  endfacet
  facet normal 0.415416 -0.909632 0
    outer loop
      vertex 49.5462 1.70942 25
      vertex 48.6611 1.30518 1
      vertex 49.5462 1.70942 1
    endloop
  endfacet
  facet normal -0.654862 0.755748 0
    outer loop
      vertex 51.2448 -0.933686 1
      vertex 50.5094 -1.57093 25
      vertex 51.2448 -0.933686 25
    endloop
  endfacet
  facet normal -0.654862 0.755748 0
    outer loop
      vertex 50.5094 -1.57093 25
      vertex 51.2448 -0.933686 1
      vertex 50.5094 -1.57093 1
    endloop
  endfacet
  facet normal 0.841253 0.540641 0
    outer loop
      vertex 48.6611 -1.30518 25
      vertex 48.135 -0.486551 1
      vertex 48.135 -0.486551 25
    endloop
  endfacet
  facet normal 0.841253 0.540641 0
    outer loop
      vertex 48.135 -0.486551 1
      vertex 48.6611 -1.30518 25
      vertex 48.6611 -1.30518 1
    endloop
  endfacet
  facet normal 0.841253 -0.540641 0
    outer loop
      vertex 48.135 0.486551 25
      vertex 48.6611 1.30518 1
      vertex 48.6611 1.30518 25
    endloop
  endfacet
  facet normal 0.841253 -0.540641 0
    outer loop
      vertex 48.6611 1.30518 1
      vertex 48.135 0.486551 25
      vertex 48.135 0.486551 1
    endloop
  endfacet
  facet normal -0.959493 0.281732 0
    outer loop
      vertex 51.2448 -0.933686 1
      vertex 51.519 0 25
      vertex 51.519 0 1
    endloop
  endfacet
  facet normal -0.959493 0.281732 0
    outer loop
      vertex 51.519 0 25
      vertex 51.2448 -0.933686 1
      vertex 51.2448 -0.933686 25
    endloop
  endfacet
  facet normal 0.415416 0.909632 -0
    outer loop
      vertex 49.5462 -1.70942 1
      vertex 48.6611 -1.30518 25
      vertex 49.5462 -1.70942 25
    endloop
  endfacet
  facet normal 0.415416 0.909632 0
    outer loop
      vertex 48.6611 -1.30518 25
      vertex 49.5462 -1.70942 1
      vertex 48.6611 -1.30518 1
    endloop
  endfacet
  facet normal -0.142315 0.989821 0
    outer loop
      vertex 50.5094 -1.57093 1
      vertex 49.5462 -1.70942 25
      vertex 50.5094 -1.57093 25
    endloop
  endfacet
  facet normal -0.142315 0.989821 0
    outer loop
      vertex 49.5462 -1.70942 25
      vertex 50.5094 -1.57093 1
      vertex 49.5462 -1.70942 1
    endloop
  endfacet
  facet normal -0.959493 -0.281732 0
    outer loop
      vertex -48.065 0 1
      vertex -48.3392 0.933686 25
      vertex -48.3392 0.933686 1
    endloop
  endfacet
  facet normal -0.959493 -0.281732 0
    outer loop
      vertex -48.3392 0.933686 25
      vertex -48.065 0 1
      vertex -48.065 0 25
    endloop
  endfacet
  facet normal 1 -0 0
    outer loop
      vertex -51.449 -0.486551 25
      vertex -51.449 0.486551 1
      vertex -51.449 0.486551 25
    endloop
  endfacet
  facet normal 1 0 0
    outer loop
      vertex -51.449 0.486551 1
      vertex -51.449 -0.486551 25
      vertex -51.449 -0.486551 1
    endloop
  endfacet
  facet normal -0.142315 -0.989821 0
    outer loop
      vertex -50.0378 1.70942 1
      vertex -49.0746 1.57093 25
      vertex -50.0378 1.70942 25
    endloop
  endfacet
  facet normal -0.142315 -0.989821 -0
    outer loop
      vertex -49.0746 1.57093 25
      vertex -50.0378 1.70942 1
      vertex -49.0746 1.57093 1
    endloop
  endfacet
  facet normal -0.65486 -0.75575 0
    outer loop
      vertex -49.0746 1.57093 1
      vertex -48.3392 0.933686 25
      vertex -49.0746 1.57093 25
    endloop
  endfacet
  facet normal -0.65486 -0.75575 -0
    outer loop
      vertex -48.3392 0.933686 25
      vertex -49.0746 1.57093 1
      vertex -48.3392 0.933686 1
    endloop
  endfacet
  facet normal 0.415416 -0.909632 0
    outer loop
      vertex -50.9229 1.30518 1
      vertex -50.0378 1.70942 25
      vertex -50.9229 1.30518 25
    endloop
  endfacet
  facet normal 0.415416 -0.909632 0
    outer loop
      vertex -50.0378 1.70942 25
      vertex -50.9229 1.30518 1
      vertex -50.0378 1.70942 1
    endloop
  endfacet
  facet normal -0.65486 0.75575 0
    outer loop
      vertex -48.3392 -0.933686 1
      vertex -49.0746 -1.57093 25
      vertex -48.3392 -0.933686 25
    endloop
  endfacet
  facet normal -0.65486 0.75575 0
    outer loop
      vertex -49.0746 -1.57093 25
      vertex -48.3392 -0.933686 1
      vertex -49.0746 -1.57093 1
    endloop
  endfacet
  facet normal 0 0 1
    outer loop
      vertex -48.3392 0.933686 1
      vertex -48.3392 -0.933686 1
      vertex -48.065 0 1
    endloop
  endfacet
  facet normal 0 0 1
    outer loop
      vertex -49.0746 1.57093 1
      vertex -48.3392 -0.933686 1
      vertex -48.3392 0.933686 1
    endloop
  endfacet
  facet normal 0 0 1
    outer loop
      vertex -49.0746 1.57093 1
      vertex -49.0746 -1.57093 1
      vertex -48.3392 -0.933686 1
    endloop
  endfacet
  facet normal 0 0 1
    outer loop
      vertex -50.0378 1.70942 1
      vertex -49.0746 -1.57093 1
      vertex -49.0746 1.57093 1
    endloop
  endfacet
  facet normal 0 0 1
    outer loop
      vertex -50.0378 1.70942 1
      vertex -50.0378 -1.70942 1
      vertex -49.0746 -1.57093 1
    endloop
  endfacet
  facet normal -0 0 1
    outer loop
      vertex -50.9229 1.30518 1
      vertex -50.0378 -1.70942 1
      vertex -50.0378 1.70942 1
    endloop
  endfacet
  facet normal 0 0 1
    outer loop
      vertex -50.9229 1.30518 1
      vertex -50.9229 -1.30518 1
      vertex -50.0378 -1.70942 1
    endloop
  endfacet
  facet normal -0 0 1
    outer loop
      vertex -51.449 0.486551 1
      vertex -50.9229 -1.30518 1
      vertex -50.9229 1.30518 1
    endloop
  endfacet
  facet normal 0 0 1
    outer loop
      vertex -50.9229 -1.30518 1
      vertex -51.449 0.486551 1
      vertex -51.449 -0.486551 1
    endloop
  endfacet
  facet normal 0.841253 -0.540641 0
    outer loop
      vertex -51.449 0.486551 25
      vertex -50.9229 1.30518 1
      vertex -50.9229 1.30518 25
    endloop
  endfacet
  facet normal 0.841253 -0.540641 0
    outer loop
      vertex -50.9229 1.30518 1
      vertex -51.449 0.486551 25
      vertex -51.449 0.486551 1
    endloop
  endfacet
  facet normal -0.959493 0.281732 0
    outer loop
      vertex -48.3392 -0.933686 1
      vertex -48.065 0 25
      vertex -48.065 0 1
    endloop
  endfacet
  facet normal -0.959493 0.281732 0
    outer loop
      vertex -48.065 0 25
      vertex -48.3392 -0.933686 1
      vertex -48.3392 -0.933686 25
    endloop
  endfacet
  facet normal -0.142315 0.989821 0
    outer loop
      vertex -49.0746 -1.57093 1
      vertex -50.0378 -1.70942 25
      vertex -49.0746 -1.57093 25
    endloop
  endfacet
  facet normal -0.142315 0.989821 0
    outer loop
      vertex -50.0378 -1.70942 25
      vertex -49.0746 -1.57093 1
      vertex -50.0378 -1.70942 1
    endloop
  endfacet
  facet normal 0.841253 0.540641 0
    outer loop
      vertex -50.9229 -1.30518 25
      vertex -51.449 -0.486551 1
      vertex -51.449 -0.486551 25
    endloop
  endfacet
  facet normal 0.841253 0.540641 0
    outer loop
      vertex -51.449 -0.486551 1
      vertex -50.9229 -1.30518 25
      vertex -50.9229 -1.30518 1
    endloop
  endfacet
  facet normal 0.415416 0.909632 -0
    outer loop
      vertex -50.0378 -1.70942 1
      vertex -50.9229 -1.30518 25
      vertex -50.0378 -1.70942 25
    endloop
  endfacet
  facet normal 0.415416 0.909632 0
    outer loop
      vertex -50.9229 -1.30518 25
      vertex -50.0378 -1.70942 1
      vertex -50.9229 -1.30518 1
    endloop
  endfacet
  facet normal -0.959494 -0.28173 0
    outer loop
      vertex 51.519 91.492 1
      vertex 51.2448 92.4257 25
      vertex 51.2448 92.4257 1
    endloop
  endfacet
  facet normal -0.959494 -0.28173 0
    outer loop
      vertex 51.2448 92.4257 25
      vertex 51.519 91.492 1
      vertex 51.519 91.492 25
    endloop
  endfacet
  facet normal 1 -0 0
    outer loop
      vertex 48.135 91.0054 25
      vertex 48.135 91.9786 1
      vertex 48.135 91.9786 25
    endloop
  endfacet
  facet normal 1 0 0
    outer loop
      vertex 48.135 91.9786 1
      vertex 48.135 91.0054 25
      vertex 48.135 91.0054 1
    endloop
  endfacet
  facet normal -0.142316 0.989821 0
    outer loop
      vertex 50.5094 89.9211 1
      vertex 49.5462 89.7826 25
      vertex 50.5094 89.9211 25
    endloop
  endfacet
  facet normal -0.142316 0.989821 0
    outer loop
      vertex 49.5462 89.7826 25
      vertex 50.5094 89.9211 1
      vertex 49.5462 89.7826 1
    endloop
  endfacet
  facet normal 0.415416 -0.909631 0
    outer loop
      vertex 48.6611 92.7972 1
      vertex 49.5462 93.2014 25
      vertex 48.6611 92.7972 25
    endloop
  endfacet
  facet normal 0.415416 -0.909631 0
    outer loop
      vertex 49.5462 93.2014 25
      vertex 48.6611 92.7972 1
      vertex 49.5462 93.2014 1
    endloop
  endfacet
  facet normal -0.654861 -0.75575 0
    outer loop
      vertex 50.5094 93.0629 1
      vertex 51.2448 92.4257 25
      vertex 50.5094 93.0629 25
    endloop
  endfacet
  facet normal -0.654861 -0.75575 -0
    outer loop
      vertex 51.2448 92.4257 25
      vertex 50.5094 93.0629 1
      vertex 51.2448 92.4257 1
    endloop
  endfacet
  facet normal 0.841253 -0.540641 0
    outer loop
      vertex 48.135 91.9786 25
      vertex 48.6611 92.7972 1
      vertex 48.6611 92.7972 25
    endloop
  endfacet
  facet normal 0.841253 -0.540641 0
    outer loop
      vertex 48.6611 92.7972 1
      vertex 48.135 91.9786 25
      vertex 48.135 91.9786 1
    endloop
  endfacet
  facet normal -0.142316 -0.989821 0
    outer loop
      vertex 49.5462 93.2014 1
      vertex 50.5094 93.0629 25
      vertex 49.5462 93.2014 25
    endloop
  endfacet
  facet normal -0.142316 -0.989821 -0
    outer loop
      vertex 50.5094 93.0629 25
      vertex 49.5462 93.2014 1
      vertex 50.5094 93.0629 1
    endloop
  endfacet
  facet normal -0.959493 0.281732 0
    outer loop
      vertex 51.2448 90.5583 1
      vertex 51.519 91.492 25
      vertex 51.519 91.492 1
    endloop
  endfacet
  facet normal -0.959493 0.281732 0
    outer loop
      vertex 51.519 91.492 25
      vertex 51.2448 90.5583 1
      vertex 51.2448 90.5583 25
    endloop
  endfacet
  facet normal 0 0 1
    outer loop
      vertex 51.2448 92.4257 1
      vertex 51.2448 90.5583 1
      vertex 51.519 91.492 1
    endloop
  endfacet
  facet normal 0 0 1
    outer loop
      vertex 50.5094 93.0629 1
      vertex 51.2448 90.5583 1
      vertex 51.2448 92.4257 1
    endloop
  endfacet
  facet normal 0 0 1
    outer loop
      vertex 50.5094 93.0629 1
      vertex 50.5094 89.9211 1
      vertex 51.2448 90.5583 1
    endloop
  endfacet
  facet normal 0 0 1
    outer loop
      vertex 49.5462 93.2014 1
      vertex 50.5094 89.9211 1
      vertex 50.5094 93.0629 1
    endloop
  endfacet
  facet normal 0 0 1
    outer loop
      vertex 49.5462 93.2014 1
      vertex 49.5462 89.7826 1
      vertex 50.5094 89.9211 1
    endloop
  endfacet
  facet normal -0 0 1
    outer loop
      vertex 48.6611 92.7972 1
      vertex 49.5462 89.7826 1
      vertex 49.5462 93.2014 1
    endloop
  endfacet
  facet normal 0 0 1
    outer loop
      vertex 48.6611 92.7972 1
      vertex 48.6611 90.1868 1
      vertex 49.5462 89.7826 1
    endloop
  endfacet
  facet normal -0 0 1
    outer loop
      vertex 48.135 91.9786 1
      vertex 48.6611 90.1868 1
      vertex 48.6611 92.7972 1
    endloop
  endfacet
  facet normal 0 0 1
    outer loop
      vertex 48.6611 90.1868 1
      vertex 48.135 91.9786 1
      vertex 48.135 91.0054 1
    endloop
  endfacet
  facet normal -0.654861 0.75575 0
    outer loop
      vertex 51.2448 90.5583 1
      vertex 50.5094 89.9211 25
      vertex 51.2448 90.5583 25
    endloop
  endfacet
  facet normal -0.654861 0.75575 0
    outer loop
      vertex 50.5094 89.9211 25
      vertex 51.2448 90.5583 1
      vertex 50.5094 89.9211 1
    endloop
  endfacet
  facet normal 0.415416 0.909631 -0
    outer loop
      vertex 49.5462 89.7826 1
      vertex 48.6611 90.1868 25
      vertex 49.5462 89.7826 25
    endloop
  endfacet
  facet normal 0.415416 0.909631 0
    outer loop
      vertex 48.6611 90.1868 25
      vertex 49.5462 89.7826 1
      vertex 48.6611 90.1868 1
    endloop
  endfacet
  facet normal 0.841253 0.540641 0
    outer loop
      vertex 48.6611 90.1868 25
      vertex 48.135 91.0054 1
      vertex 48.135 91.0054 25
    endloop
  endfacet
  facet normal 0.841253 0.540641 0
    outer loop
      vertex 48.135 91.0054 1
      vertex 48.6611 90.1868 25
      vertex 48.6611 90.1868 1
    endloop
  endfacet
  facet normal -0.959494 -0.28173 0
    outer loop
      vertex -48.065 91.492 1
      vertex -48.3392 92.4257 25
      vertex -48.3392 92.4257 1
    endloop
  endfacet
  facet normal -0.959494 -0.28173 0
    outer loop
      vertex -48.3392 92.4257 25
      vertex -48.065 91.492 1
      vertex -48.065 91.492 25
    endloop
  endfacet
  facet normal 1 -0 0
    outer loop
      vertex -51.449 91.0054 25
      vertex -51.449 91.9786 1
      vertex -51.449 91.9786 25
    endloop
  endfacet
  facet normal 1 0 0
    outer loop
      vertex -51.449 91.9786 1
      vertex -51.449 91.0054 25
      vertex -51.449 91.0054 1
    endloop
  endfacet
  facet normal -0.142316 0.989821 0
    outer loop
      vertex -49.0746 89.9211 1
      vertex -50.0378 89.7826 25
      vertex -49.0746 89.9211 25
    endloop
  endfacet
  facet normal -0.142316 0.989821 0
    outer loop
      vertex -50.0378 89.7826 25
      vertex -49.0746 89.9211 1
      vertex -50.0378 89.7826 1
    endloop
  endfacet
  facet normal 0.415416 -0.909631 0
    outer loop
      vertex -50.9229 92.7972 1
      vertex -50.0378 93.2014 25
      vertex -50.9229 92.7972 25
    endloop
  endfacet
  facet normal 0.415416 -0.909631 0
    outer loop
      vertex -50.0378 93.2014 25
      vertex -50.9229 92.7972 1
      vertex -50.0378 93.2014 1
    endloop
  endfacet
  facet normal -0.654859 -0.755751 0
    outer loop
      vertex -49.0746 93.0629 1
      vertex -48.3392 92.4257 25
      vertex -49.0746 93.0629 25
    endloop
  endfacet
  facet normal -0.654859 -0.755751 -0
    outer loop
      vertex -48.3392 92.4257 25
      vertex -49.0746 93.0629 1
      vertex -48.3392 92.4257 1
    endloop
  endfacet
  facet normal 0.841253 -0.540641 0
    outer loop
      vertex -51.449 91.9786 25
      vertex -50.9229 92.7972 1
      vertex -50.9229 92.7972 25
    endloop
  endfacet
  facet normal 0.841253 -0.540641 0
    outer loop
      vertex -50.9229 92.7972 1
      vertex -51.449 91.9786 25
      vertex -51.449 91.9786 1
    endloop
  endfacet
  facet normal -0.142316 -0.989821 0
    outer loop
      vertex -50.0378 93.2014 1
      vertex -49.0746 93.0629 25
      vertex -50.0378 93.2014 25
    endloop
  endfacet
  facet normal -0.142316 -0.989821 -0
    outer loop
      vertex -49.0746 93.0629 25
      vertex -50.0378 93.2014 1
      vertex -49.0746 93.0629 1
    endloop
  endfacet
  facet normal 0.841253 0.540641 0
    outer loop
      vertex -50.9229 90.1868 25
      vertex -51.449 91.0054 1
      vertex -51.449 91.0054 25
    endloop
  endfacet
  facet normal 0.841253 0.540641 0
    outer loop
      vertex -51.449 91.0054 1
      vertex -50.9229 90.1868 25
      vertex -50.9229 90.1868 1
    endloop
  endfacet
  facet normal 0 0 1
    outer loop
      vertex -48.3392 92.4257 1
      vertex -48.3392 90.5583 1
      vertex -48.065 91.492 1
    endloop
  endfacet
  facet normal 0 0 1
    outer loop
      vertex -49.0746 93.0629 1
      vertex -48.3392 90.5583 1
      vertex -48.3392 92.4257 1
    endloop
  endfacet
  facet normal 0 0 1
    outer loop
      vertex -49.0746 93.0629 1
      vertex -49.0746 89.9211 1
      vertex -48.3392 90.5583 1
    endloop
  endfacet
  facet normal 0 0 1
    outer loop
      vertex -50.0378 93.2014 1
      vertex -49.0746 89.9211 1
      vertex -49.0746 93.0629 1
    endloop
  endfacet
  facet normal 0 0 1
    outer loop
      vertex -50.0378 93.2014 1
      vertex -50.0378 89.7826 1
      vertex -49.0746 89.9211 1
    endloop
  endfacet
  facet normal -0 0 1
    outer loop
      vertex -50.9229 92.7972 1
      vertex -50.0378 89.7826 1
      vertex -50.0378 93.2014 1
    endloop
  endfacet
  facet normal 0 0 1
    outer loop
      vertex -50.9229 92.7972 1
      vertex -50.9229 90.1868 1
      vertex -50.0378 89.7826 1
    endloop
  endfacet
  facet normal -0 0 1
    outer loop
      vertex -51.449 91.9786 1
      vertex -50.9229 90.1868 1
      vertex -50.9229 92.7972 1
    endloop
  endfacet
  facet normal 0 0 1
    outer loop
      vertex -50.9229 90.1868 1
      vertex -51.449 91.9786 1
      vertex -51.449 91.0054 1
    endloop
  endfacet
  facet normal -0.654859 0.755751 0
    outer loop
      vertex -48.3392 90.5583 1
      vertex -49.0746 89.9211 25
      vertex -48.3392 90.5583 25
    endloop
  endfacet
  facet normal -0.654859 0.755751 0
    outer loop
      vertex -49.0746 89.9211 25
      vertex -48.3392 90.5583 1
      vertex -49.0746 89.9211 1
    endloop
  endfacet
  facet normal 0.415416 0.909631 -0
    outer loop
      vertex -50.0378 89.7826 1
      vertex -50.9229 90.1868 25
      vertex -50.0378 89.7826 25
    endloop
  endfacet
  facet normal 0.415416 0.909631 0
    outer loop
      vertex -50.9229 90.1868 25
      vertex -50.0378 89.7826 1
      vertex -50.9229 90.1868 1
    endloop
  endfacet
  facet normal -0.959493 0.281732 0
    outer loop
      vertex -48.3392 90.5583 1
      vertex -48.065 91.492 25
      vertex -48.065 91.492 1
    endloop
  endfacet
  facet normal -0.959493 0.281732 0
    outer loop
      vertex -48.065 91.492 25
      vertex -48.3392 90.5583 1
      vertex -48.3392 90.5583 25
    endloop
  endfacet
  facet normal -0.959493 -0.281732 0
    outer loop
      vertex 51.519 -91.492 1
      vertex 51.2448 -90.5583 25
      vertex 51.2448 -90.5583 1
    endloop
  endfacet
  facet normal -0.959493 -0.281732 0
    outer loop
      vertex 51.2448 -90.5583 25
      vertex 51.519 -91.492 1
      vertex 51.519 -91.492 25
    endloop
  endfacet
  facet normal 1 -0 0
    outer loop
      vertex 48.135 -91.9786 25
      vertex 48.135 -91.0054 1
      vertex 48.135 -91.0054 25
    endloop
  endfacet
  facet normal 1 0 0
    outer loop
      vertex 48.135 -91.0054 1
      vertex 48.135 -91.9786 25
      vertex 48.135 -91.9786 1
    endloop
  endfacet
  facet normal 0 0 1
    outer loop
      vertex 51.2448 -90.5583 1
      vertex 51.2448 -92.4257 1
      vertex 51.519 -91.492 1
    endloop
  endfacet
  facet normal 0 0 1
    outer loop
      vertex 50.5094 -89.9211 1
      vertex 51.2448 -92.4257 1
      vertex 51.2448 -90.5583 1
    endloop
  endfacet
  facet normal 0 0 1
    outer loop
      vertex 50.5094 -89.9211 1
      vertex 50.5094 -93.0629 1
      vertex 51.2448 -92.4257 1
    endloop
  endfacet
  facet normal 0 0 1
    outer loop
      vertex 49.5462 -89.7826 1
      vertex 50.5094 -93.0629 1
      vertex 50.5094 -89.9211 1
    endloop
  endfacet
  facet normal 0 0 1
    outer loop
      vertex 49.5462 -89.7826 1
      vertex 49.5462 -93.2014 1
      vertex 50.5094 -93.0629 1
    endloop
  endfacet
  facet normal -0 0 1
    outer loop
      vertex 48.6611 -90.1868 1
      vertex 49.5462 -93.2014 1
      vertex 49.5462 -89.7826 1
    endloop
  endfacet
  facet normal 0 0 1
    outer loop
      vertex 48.6611 -90.1868 1
      vertex 48.6611 -92.7972 1
      vertex 49.5462 -93.2014 1
    endloop
  endfacet
  facet normal -0 0 1
    outer loop
      vertex 48.135 -91.0054 1
      vertex 48.6611 -92.7972 1
      vertex 48.6611 -90.1868 1
    endloop
  endfacet
  facet normal 0 0 1
    outer loop
      vertex 48.6611 -92.7972 1
      vertex 48.135 -91.0054 1
      vertex 48.135 -91.9786 1
    endloop
  endfacet
  facet normal -0.142316 -0.989821 0
    outer loop
      vertex 49.5462 -89.7826 1
      vertex 50.5094 -89.9211 25
      vertex 49.5462 -89.7826 25
    endloop
  endfacet
  facet normal -0.142316 -0.989821 -0
    outer loop
      vertex 50.5094 -89.9211 25
      vertex 49.5462 -89.7826 1
      vertex 50.5094 -89.9211 1
    endloop
  endfacet
  facet normal -0.654861 -0.75575 0
    outer loop
      vertex 50.5094 -89.9211 1
      vertex 51.2448 -90.5583 25
      vertex 50.5094 -89.9211 25
    endloop
  endfacet
  facet normal -0.654861 -0.75575 -0
    outer loop
      vertex 51.2448 -90.5583 25
      vertex 50.5094 -89.9211 1
      vertex 51.2448 -90.5583 1
    endloop
  endfacet
  facet normal 0.415416 -0.909631 0
    outer loop
      vertex 48.6611 -90.1868 1
      vertex 49.5462 -89.7826 25
      vertex 48.6611 -90.1868 25
    endloop
  endfacet
  facet normal 0.415416 -0.909631 0
    outer loop
      vertex 49.5462 -89.7826 25
      vertex 48.6611 -90.1868 1
      vertex 49.5462 -89.7826 1
    endloop
  endfacet
  facet normal -0.142316 0.989821 0
    outer loop
      vertex 50.5094 -93.0629 1
      vertex 49.5462 -93.2014 25
      vertex 50.5094 -93.0629 25
    endloop
  endfacet
  facet normal -0.142316 0.989821 0
    outer loop
      vertex 49.5462 -93.2014 25
      vertex 50.5094 -93.0629 1
      vertex 49.5462 -93.2014 1
    endloop
  endfacet
  facet normal -0.654861 0.75575 0
    outer loop
      vertex 51.2448 -92.4257 1
      vertex 50.5094 -93.0629 25
      vertex 51.2448 -92.4257 25
    endloop
  endfacet
  facet normal -0.654861 0.75575 0
    outer loop
      vertex 50.5094 -93.0629 25
      vertex 51.2448 -92.4257 1
      vertex 50.5094 -93.0629 1
    endloop
  endfacet
  facet normal 0.841253 0.540641 0
    outer loop
      vertex 48.6611 -92.7972 25
      vertex 48.135 -91.9786 1
      vertex 48.135 -91.9786 25
    endloop
  endfacet
  facet normal 0.841253 0.540641 0
    outer loop
      vertex 48.135 -91.9786 1
      vertex 48.6611 -92.7972 25
      vertex 48.6611 -92.7972 1
    endloop
  endfacet
  facet normal 0.841253 -0.540641 0
    outer loop
      vertex 48.135 -91.0054 25
      vertex 48.6611 -90.1868 1
      vertex 48.6611 -90.1868 25
    endloop
  endfacet
  facet normal 0.841253 -0.540641 0
    outer loop
      vertex 48.6611 -90.1868 1
      vertex 48.135 -91.0054 25
      vertex 48.135 -91.0054 1
    endloop
  endfacet
  facet normal -0.959494 0.28173 0
    outer loop
      vertex 51.2448 -92.4257 1
      vertex 51.519 -91.492 25
      vertex 51.519 -91.492 1
    endloop
  endfacet
  facet normal -0.959494 0.28173 0
    outer loop
      vertex 51.519 -91.492 25
      vertex 51.2448 -92.4257 1
      vertex 51.2448 -92.4257 25
    endloop
  endfacet
  facet normal 0.415416 0.909631 -0
    outer loop
      vertex 49.5462 -93.2014 1
      vertex 48.6611 -92.7972 25
      vertex 49.5462 -93.2014 25
    endloop
  endfacet
  facet normal 0.415416 0.909631 0
    outer loop
      vertex 48.6611 -92.7972 25
      vertex 49.5462 -93.2014 1
      vertex 48.6611 -92.7972 1
    endloop
  endfacet
  facet normal -0.959493 -0.281732 0
    outer loop
      vertex -48.065 -91.492 1
      vertex -48.3392 -90.5583 25
      vertex -48.3392 -90.5583 1
    endloop
  endfacet
  facet normal -0.959493 -0.281732 0
    outer loop
      vertex -48.3392 -90.5583 25
      vertex -48.065 -91.492 1
      vertex -48.065 -91.492 25
    endloop
  endfacet
  facet normal 1 -0 0
    outer loop
      vertex -51.449 -91.9786 25
      vertex -51.449 -91.0054 1
      vertex -51.449 -91.0054 25
    endloop
  endfacet
  facet normal 1 0 0
    outer loop
      vertex -51.449 -91.0054 1
      vertex -51.449 -91.9786 25
      vertex -51.449 -91.9786 1
    endloop
  endfacet
  facet normal 0 0 1
    outer loop
      vertex -48.3392 -90.5583 1
      vertex -48.3392 -92.4257 1
      vertex -48.065 -91.492 1
    endloop
  endfacet
  facet normal 0 0 1
    outer loop
      vertex -49.0746 -89.9211 1
      vertex -48.3392 -92.4257 1
      vertex -48.3392 -90.5583 1
    endloop
  endfacet
  facet normal 0 0 1
    outer loop
      vertex -49.0746 -89.9211 1
      vertex -49.0746 -93.0629 1
      vertex -48.3392 -92.4257 1
    endloop
  endfacet
  facet normal 0 0 1
    outer loop
      vertex -50.0378 -89.7826 1
      vertex -49.0746 -93.0629 1
      vertex -49.0746 -89.9211 1
    endloop
  endfacet
  facet normal 0 0 1
    outer loop
      vertex -50.0378 -89.7826 1
      vertex -50.0378 -93.2014 1
      vertex -49.0746 -93.0629 1
    endloop
  endfacet
  facet normal -0 0 1
    outer loop
      vertex -50.9229 -90.1868 1
      vertex -50.0378 -93.2014 1
      vertex -50.0378 -89.7826 1
    endloop
  endfacet
  facet normal 0 0 1
    outer loop
      vertex -50.9229 -90.1868 1
      vertex -50.9229 -92.7972 1
      vertex -50.0378 -93.2014 1
    endloop
  endfacet
  facet normal -0 0 1
    outer loop
      vertex -51.449 -91.0054 1
      vertex -50.9229 -92.7972 1
      vertex -50.9229 -90.1868 1
    endloop
  endfacet
  facet normal 0 0 1
    outer loop
      vertex -50.9229 -92.7972 1
      vertex -51.449 -91.0054 1
      vertex -51.449 -91.9786 1
    endloop
  endfacet
  facet normal -0.142316 -0.989821 0
    outer loop
      vertex -50.0378 -89.7826 1
      vertex -49.0746 -89.9211 25
      vertex -50.0378 -89.7826 25
    endloop
  endfacet
  facet normal -0.142316 -0.989821 -0
    outer loop
      vertex -49.0746 -89.9211 25
      vertex -50.0378 -89.7826 1
      vertex -49.0746 -89.9211 1
    endloop
  endfacet
  facet normal -0.654859 -0.755751 0
    outer loop
      vertex -49.0746 -89.9211 1
      vertex -48.3392 -90.5583 25
      vertex -49.0746 -89.9211 25
    endloop
  endfacet
  facet normal -0.654859 -0.755751 -0
    outer loop
      vertex -48.3392 -90.5583 25
      vertex -49.0746 -89.9211 1
      vertex -48.3392 -90.5583 1
    endloop
  endfacet
  facet normal -0.142316 0.989821 0
    outer loop
      vertex -49.0746 -93.0629 1
      vertex -50.0378 -93.2014 25
      vertex -49.0746 -93.0629 25
    endloop
  endfacet
  facet normal -0.142316 0.989821 0
    outer loop
      vertex -50.0378 -93.2014 25
      vertex -49.0746 -93.0629 1
      vertex -50.0378 -93.2014 1
    endloop
  endfacet
  facet normal -0.654859 0.755751 0
    outer loop
      vertex -48.3392 -92.4257 1
      vertex -49.0746 -93.0629 25
      vertex -48.3392 -92.4257 25
    endloop
  endfacet
  facet normal -0.654859 0.755751 0
    outer loop
      vertex -49.0746 -93.0629 25
      vertex -48.3392 -92.4257 1
      vertex -49.0746 -93.0629 1
    endloop
  endfacet
  facet normal 0.841253 0.540641 0
    outer loop
      vertex -50.9229 -92.7972 25
      vertex -51.449 -91.9786 1
      vertex -51.449 -91.9786 25
    endloop
  endfacet
  facet normal 0.841253 0.540641 0
    outer loop
      vertex -51.449 -91.9786 1
      vertex -50.9229 -92.7972 25
      vertex -50.9229 -92.7972 1
    endloop
  endfacet
  facet normal 0.841253 -0.540641 0
    outer loop
      vertex -51.449 -91.0054 25
      vertex -50.9229 -90.1868 1
      vertex -50.9229 -90.1868 25
    endloop
  endfacet
  facet normal 0.841253 -0.540641 0
    outer loop
      vertex -50.9229 -90.1868 1
      vertex -51.449 -91.0054 25
      vertex -51.449 -91.0054 1
    endloop
  endfacet
  facet normal 0.415416 -0.909631 0
    outer loop
      vertex -50.9229 -90.1868 1
      vertex -50.0378 -89.7826 25
      vertex -50.9229 -90.1868 25
    endloop
  endfacet
  facet normal 0.415416 -0.909631 0
    outer loop
      vertex -50.0378 -89.7826 25
      vertex -50.9229 -90.1868 1
      vertex -50.0378 -89.7826 1
    endloop
  endfacet
  facet normal -0.959494 0.28173 0
    outer loop
      vertex -48.3392 -92.4257 1
      vertex -48.065 -91.492 25
      vertex -48.065 -91.492 1
    endloop
  endfacet
  facet normal -0.959494 0.28173 0
    outer loop
      vertex -48.065 -91.492 25
      vertex -48.3392 -92.4257 1
      vertex -48.3392 -92.4257 25
    endloop
  endfacet
  facet normal 0.415416 0.909631 -0
    outer loop
      vertex -50.0378 -93.2014 1
      vertex -50.9229 -92.7972 25
      vertex -50.0378 -93.2014 25
    endloop
  endfacet
  facet normal 0.415416 0.909631 0
    outer loop
      vertex -50.9229 -92.7972 25
      vertex -50.0378 -93.2014 1
      vertex -50.9229 -92.7972 1
    endloop
  endfacet
endsolid OpenSCAD_Model
