solid OpenSCAD_Model
  facet normal 0 -0 -1
    outer loop
      vertex 25.5686 98.4 0
      vertex 40.5686 83.4 0
      vertex 25.5686 68.4 0
    endloop
  endfacet
  facet normal 0 0 -1
    outer loop
      vertex -25.5686 98.4 0
      vertex -25.5686 68.4 0
      vertex -40.5686 83.4 0
    endloop
  endfacet
  facet normal -0 0 -1
    outer loop
      vertex 25.5686 98.4 0
      vertex 25.5686 68.4 0
      vertex -25.5686 98.4 0
    endloop
  endfacet
  facet normal 0 -0 -1
    outer loop
      vertex -25.5686 98.4 0
      vertex 25.5686 68.4 0
      vertex -25.5686 68.4 0
    endloop
  endfacet
  facet normal 0 0 -1
    outer loop
      vertex -26.7 67.2686 0
      vertex -56.7 67.2686 0
      vertex -41.7 82.2686 0
    endloop
  endfacet
  facet normal 0 0 -1
    outer loop
      vertex -26.7 16.1314 0
      vertex -56.7 67.2686 0
      vertex -26.7 67.2686 0
    endloop
  endfacet
  facet normal 0 0 -1
    outer loop
      vertex 26.7 67.2686 0
      vertex 56.7 16.1314 0
      vertex 26.7 16.1314 0
    endloop
  endfacet
  facet normal 0 0 -1
    outer loop
      vertex -26.7 16.1314 0
      vertex -56.7 16.1314 0
      vertex -56.7 67.2686 0
    endloop
  endfacet
  facet normal -0 0 -1
    outer loop
      vertex -26.7 16.1314 0
      vertex -41.7 1.13138 0
      vertex -56.7 16.1314 0
    endloop
  endfacet
  facet normal 0 0 -1
    outer loop
      vertex -26.7 -67.2686 0
      vertex -56.7 -67.2686 0
      vertex -56.7 -16.1314 0
    endloop
  endfacet
  facet normal 0 -0 -1
    outer loop
      vertex 41.7 82.2686 0
      vertex 56.7 67.2686 0
      vertex 26.7 67.2686 0
    endloop
  endfacet
  facet normal 0 0 -1
    outer loop
      vertex 26.7 67.2686 0
      vertex 56.7 67.2686 0
      vertex 56.7 16.1314 0
    endloop
  endfacet
  facet normal -0 0 -1
    outer loop
      vertex 25.5686 15 0
      vertex 25.5686 -15 0
      vertex -25.5686 15 0
    endloop
  endfacet
  facet normal 0 0 -1
    outer loop
      vertex 26.7 16.1314 0
      vertex 56.7 16.1314 0
      vertex 41.7 1.13138 0
    endloop
  endfacet
  facet normal 0 0 -1
    outer loop
      vertex -25.5686 15 0
      vertex -25.5686 -15 0
      vertex -40.5686 0 0
    endloop
  endfacet
  facet normal -0 0 -1
    outer loop
      vertex 56.7 -67.2686 0
      vertex 41.7 -82.2686 0
      vertex 26.7 -67.2686 0
    endloop
  endfacet
  facet normal -0 -0 -1
    outer loop
      vertex 56.7 -16.1314 0
      vertex 56.7 -67.2686 0
      vertex 26.7 -16.1314 0
    endloop
  endfacet
  facet normal 0 -0 -1
    outer loop
      vertex 25.5686 15 0
      vertex 40.5686 0 0
      vertex 25.5686 -15 0
    endloop
  endfacet
  facet normal 0 0 -1
    outer loop
      vertex -26.7 -67.2686 0
      vertex -56.7 -16.1314 0
      vertex -26.7 -16.1314 0
    endloop
  endfacet
  facet normal 0 -0 -1
    outer loop
      vertex -25.5686 15 0
      vertex 25.5686 -15 0
      vertex -25.5686 -15 0
    endloop
  endfacet
  facet normal 0 0 -1
    outer loop
      vertex -26.7 -16.1314 0
      vertex -56.7 -16.1314 0
      vertex -41.7 -1.13138 0
    endloop
  endfacet
  facet normal 0 0 -1
    outer loop
      vertex 26.7 -16.1314 0
      vertex 56.7 -67.2686 0
      vertex 26.7 -67.2686 0
    endloop
  endfacet
  facet normal -0 0 -1
    outer loop
      vertex -26.7 -67.2686 0
      vertex -41.7 -82.2686 0
      vertex -56.7 -67.2686 0
    endloop
  endfacet
  facet normal -0 0 -1
    outer loop
      vertex 40.5686 -83.4 0
      vertex 25.5686 -98.4 0
      vertex 25.5686 -68.4 0
    endloop
  endfacet
  facet normal 0 0 -1
    outer loop
      vertex 56.7 -16.1314 0
      vertex 26.7 -16.1314 0
      vertex 41.7 -1.13138 0
    endloop
  endfacet
  facet normal 0 0 -1
    outer loop
      vertex 25.5686 -98.4 0
      vertex -25.5686 -68.4 0
      vertex 25.5686 -68.4 0
    endloop
  endfacet
  facet normal 0 0 -1
    outer loop
      vertex -25.5686 -98.4 0
      vertex -40.5686 -83.4 0
      vertex -25.5686 -68.4 0
    endloop
  endfacet
  facet normal 0 0 -1
    outer loop
      vertex 25.5686 -98.4 0
      vertex -25.5686 -98.4 0
      vertex -25.5686 -68.4 0
    endloop
  endfacet
  facet normal 0 0 1
    outer loop
      vertex 25.5686 68.4 1.2
      vertex 40.5686 83.4 1.2
      vertex 25.5686 98.4 1.2
    endloop
  endfacet
  facet normal -0 0 1
    outer loop
      vertex -40.5686 83.4 1.2
      vertex -25.5686 68.4 1.2
      vertex -25.5686 98.4 1.2
    endloop
  endfacet
  facet normal -0 0 1
    outer loop
      vertex -25.5686 98.4 1.2
      vertex 25.5686 68.4 1.2
      vertex 25.5686 98.4 1.2
    endloop
  endfacet
  facet normal 0 0 1
    outer loop
      vertex -25.5686 68.4 1.2
      vertex 25.5686 68.4 1.2
      vertex -25.5686 98.4 1.2
    endloop
  endfacet
  facet normal 0 0 1
    outer loop
      vertex -41.7 82.2686 1.2
      vertex -56.7 67.2686 1.2
      vertex -26.7 67.2686 1.2
    endloop
  endfacet
  facet normal 0 0 1
    outer loop
      vertex -26.7 67.2686 1.2
      vertex -56.7 67.2686 1.2
      vertex -26.7 16.1314 1.2
    endloop
  endfacet
  facet normal 0 0 1
    outer loop
      vertex 26.7 16.1314 1.2
      vertex 56.7 16.1314 1.2
      vertex 26.7 67.2686 1.2
    endloop
  endfacet
  facet normal 0 0 1
    outer loop
      vertex -56.7 67.2686 1.2
      vertex -56.7 16.1314 1.2
      vertex -26.7 16.1314 1.2
    endloop
  endfacet
  facet normal -0 0 1
    outer loop
      vertex -56.7 16.1314 1.2
      vertex -41.7 1.13138 1.2
      vertex -26.7 16.1314 1.2
    endloop
  endfacet
  facet normal 0 0 1
    outer loop
      vertex -56.7 -16.1314 1.2
      vertex -56.7 -67.2686 1.2
      vertex -26.7 -67.2686 1.2
    endloop
  endfacet
  facet normal 0 0 1
    outer loop
      vertex 26.7 67.2686 1.2
      vertex 56.7 67.2686 1.2
      vertex 41.7 82.2686 1.2
    endloop
  endfacet
  facet normal 0 -0 1
    outer loop
      vertex 56.7 16.1314 1.2
      vertex 56.7 67.2686 1.2
      vertex 26.7 67.2686 1.2
    endloop
  endfacet
  facet normal 0 0 1
    outer loop
      vertex -25.5686 15 1.2
      vertex 25.5686 -15 1.2
      vertex 25.5686 15 1.2
    endloop
  endfacet
  facet normal 0 -0 1
    outer loop
      vertex 41.7 1.13138 1.2
      vertex 56.7 16.1314 1.2
      vertex 26.7 16.1314 1.2
    endloop
  endfacet
  facet normal -0 0 1
    outer loop
      vertex -40.5686 0 1.2
      vertex -25.5686 -15 1.2
      vertex -25.5686 15 1.2
    endloop
  endfacet
  facet normal -0 0 1
    outer loop
      vertex 26.7 -67.2686 1.2
      vertex 41.7 -82.2686 1.2
      vertex 56.7 -67.2686 1.2
    endloop
  endfacet
  facet normal -0 0 1
    outer loop
      vertex 26.7 -16.1314 1.2
      vertex 56.7 -67.2686 1.2
      vertex 56.7 -16.1314 1.2
    endloop
  endfacet
  facet normal 0 0 1
    outer loop
      vertex 25.5686 -15 1.2
      vertex 40.5686 0 1.2
      vertex 25.5686 15 1.2
    endloop
  endfacet
  facet normal 0 0 1
    outer loop
      vertex -26.7 -16.1314 1.2
      vertex -56.7 -16.1314 1.2
      vertex -26.7 -67.2686 1.2
    endloop
  endfacet
  facet normal -0 0 1
    outer loop
      vertex -25.5686 -15 1.2
      vertex 25.5686 -15 1.2
      vertex -25.5686 15 1.2
    endloop
  endfacet
  facet normal 0 0 1
    outer loop
      vertex -41.7 -1.13138 1.2
      vertex -56.7 -16.1314 1.2
      vertex -26.7 -16.1314 1.2
    endloop
  endfacet
  facet normal 0 0 1
    outer loop
      vertex 26.7 -67.2686 1.2
      vertex 56.7 -67.2686 1.2
      vertex 26.7 -16.1314 1.2
    endloop
  endfacet
  facet normal -0 0 1
    outer loop
      vertex -56.7 -67.2686 1.2
      vertex -41.7 -82.2686 1.2
      vertex -26.7 -67.2686 1.2
    endloop
  endfacet
  facet normal 0 0 1
    outer loop
      vertex 25.5686 -68.4 1.2
      vertex 25.5686 -98.4 1.2
      vertex 40.5686 -83.4 1.2
    endloop
  endfacet
  facet normal 0 0 1
    outer loop
      vertex 41.7 -1.13138 1.2
      vertex 26.7 -16.1314 1.2
      vertex 56.7 -16.1314 1.2
    endloop
  endfacet
  facet normal 0 0 1
    outer loop
      vertex 25.5686 -68.4 1.2
      vertex -25.5686 -68.4 1.2
      vertex 25.5686 -98.4 1.2
    endloop
  endfacet
  facet normal 0 0 1
    outer loop
      vertex -25.5686 -68.4 1.2
      vertex -40.5686 -83.4 1.2
      vertex -25.5686 -98.4 1.2
    endloop
  endfacet
  facet normal 0 0 1
    outer loop
      vertex -25.5686 -68.4 1.2
      vertex -25.5686 -98.4 1.2
      vertex 25.5686 -98.4 1.2
    endloop
  endfacet
  facet normal 0.707107 0.707107 0
    outer loop
      vertex 25.5686 98.4 0
      vertex 40.5686 83.4 1.2
      vertex 40.5686 83.4 0
    endloop
  endfacet
  facet normal 0.707107 0.707107 -0
    outer loop
      vertex 25.5686 98.4 0
      vertex 25.5686 98.4 1.2
      vertex 40.5686 83.4 1.2
    endloop
  endfacet
  facet normal 0 1 0
    outer loop
      vertex -25.5686 98.4 0
      vertex 25.5686 98.4 1.2
      vertex 25.5686 98.4 0
    endloop
  endfacet
  facet normal 0 1 0
    outer loop
      vertex -25.5686 98.4 0
      vertex -25.5686 98.4 1.2
      vertex 25.5686 98.4 1.2
    endloop
  endfacet
  facet normal -0.707106 0.707107 0
    outer loop
      vertex -40.5686 83.4 0
      vertex -25.5686 98.4 1.2
      vertex -25.5686 98.4 0
    endloop
  endfacet
  facet normal -0.707106 0.707107 0
    outer loop
      vertex -40.5686 83.4 0
      vertex -40.5686 83.4 1.2
      vertex -25.5686 98.4 1.2
    endloop
  endfacet
  facet normal -0.707107 -0.707107 0
    outer loop
      vertex -25.5686 68.4 0
      vertex -40.5686 83.4 1.2
      vertex -40.5686 83.4 0
    endloop
  endfacet
  facet normal -0.707107 -0.707107 0
    outer loop
      vertex -25.5686 68.4 0
      vertex -25.5686 68.4 1.2
      vertex -40.5686 83.4 1.2
    endloop
  endfacet
  facet normal 0 -1 0
    outer loop
      vertex 25.5686 68.4 0
      vertex -25.5686 68.4 1.2
      vertex -25.5686 68.4 0
    endloop
  endfacet
  facet normal 0 -1 0
    outer loop
      vertex 25.5686 68.4 0
      vertex 25.5686 68.4 1.2
      vertex -25.5686 68.4 1.2
    endloop
  endfacet
  facet normal 0.707106 -0.707107 0
    outer loop
      vertex 40.5686 83.4 0
      vertex 25.5686 68.4 1.2
      vertex 25.5686 68.4 0
    endloop
  endfacet
  facet normal 0.707106 -0.707107 0
    outer loop
      vertex 40.5686 83.4 0
      vertex 40.5686 83.4 1.2
      vertex 25.5686 68.4 1.2
    endloop
  endfacet
  facet normal 1 0 0
    outer loop
      vertex -26.7 67.2686 0
      vertex -26.7 16.1314 1.2
      vertex -26.7 16.1314 0
    endloop
  endfacet
  facet normal 1 0 -0
    outer loop
      vertex -26.7 67.2686 0
      vertex -26.7 67.2686 1.2
      vertex -26.7 16.1314 1.2
    endloop
  endfacet
  facet normal 0.707107 0.707107 0
    outer loop
      vertex -41.7 82.2686 0
      vertex -26.7 67.2686 1.2
      vertex -26.7 67.2686 0
    endloop
  endfacet
  facet normal 0.707107 0.707107 -0
    outer loop
      vertex -41.7 82.2686 0
      vertex -41.7 82.2686 1.2
      vertex -26.7 67.2686 1.2
    endloop
  endfacet
  facet normal -0.707107 0.707107 0
    outer loop
      vertex -56.7 67.2686 0
      vertex -41.7 82.2686 1.2
      vertex -41.7 82.2686 0
    endloop
  endfacet
  facet normal -0.707107 0.707107 0
    outer loop
      vertex -56.7 67.2686 0
      vertex -56.7 67.2686 1.2
      vertex -41.7 82.2686 1.2
    endloop
  endfacet
  facet normal -1 0 0
    outer loop
      vertex -56.7 16.1314 0
      vertex -56.7 67.2686 1.2
      vertex -56.7 67.2686 0
    endloop
  endfacet
  facet normal -1 0 0
    outer loop
      vertex -56.7 16.1314 0
      vertex -56.7 16.1314 1.2
      vertex -56.7 67.2686 1.2
    endloop
  endfacet
  facet normal -0.707107 -0.707107 0
    outer loop
      vertex -41.7 1.13138 0
      vertex -56.7 16.1314 1.2
      vertex -56.7 16.1314 0
    endloop
  endfacet
  facet normal -0.707107 -0.707107 0
    outer loop
      vertex -41.7 1.13138 0
      vertex -41.7 1.13138 1.2
      vertex -56.7 16.1314 1.2
    endloop
  endfacet
  facet normal 0.707107 -0.707107 0
    outer loop
      vertex -26.7 16.1314 0
      vertex -41.7 1.13138 1.2
      vertex -41.7 1.13138 0
    endloop
  endfacet
  facet normal 0.707107 -0.707107 0
    outer loop
      vertex -26.7 16.1314 0
      vertex -26.7 16.1314 1.2
      vertex -41.7 1.13138 1.2
    endloop
  endfacet
  facet normal 1 0 0
    outer loop
      vertex 56.7 67.2686 0
      vertex 56.7 16.1314 1.2
      vertex 56.7 16.1314 0
    endloop
  endfacet
  facet normal 1 0 -0
    outer loop
      vertex 56.7 67.2686 0
      vertex 56.7 67.2686 1.2
      vertex 56.7 16.1314 1.2
    endloop
  endfacet
  facet normal 0.707107 0.707107 0
    outer loop
      vertex 41.7 82.2686 0
      vertex 56.7 67.2686 1.2
      vertex 56.7 67.2686 0
    endloop
  endfacet
  facet normal 0.707107 0.707107 -0
    outer loop
      vertex 41.7 82.2686 0
      vertex 41.7 82.2686 1.2
      vertex 56.7 67.2686 1.2
    endloop
  endfacet
  facet normal -0.707107 0.707107 0
    outer loop
      vertex 26.7 67.2686 0
      vertex 41.7 82.2686 1.2
      vertex 41.7 82.2686 0
    endloop
  endfacet
  facet normal -0.707107 0.707107 0
    outer loop
      vertex 26.7 67.2686 0
      vertex 26.7 67.2686 1.2
      vertex 41.7 82.2686 1.2
    endloop
  endfacet
  facet normal -1 0 0
    outer loop
      vertex 26.7 16.1314 0
      vertex 26.7 67.2686 1.2
      vertex 26.7 67.2686 0
    endloop
  endfacet
  facet normal -1 0 0
    outer loop
      vertex 26.7 16.1314 0
      vertex 26.7 16.1314 1.2
      vertex 26.7 67.2686 1.2
    endloop
  endfacet
  facet normal -0.707107 -0.707107 0
    outer loop
      vertex 41.7 1.13138 0
      vertex 26.7 16.1314 1.2
      vertex 26.7 16.1314 0
    endloop
  endfacet
  facet normal -0.707107 -0.707107 0
    outer loop
      vertex 41.7 1.13138 0
      vertex 41.7 1.13138 1.2
      vertex 26.7 16.1314 1.2
    endloop
  endfacet
  facet normal 0.707107 -0.707107 0
    outer loop
      vertex 56.7 16.1314 0
      vertex 41.7 1.13138 1.2
      vertex 41.7 1.13138 0
    endloop
  endfacet
  facet normal 0.707107 -0.707107 0
    outer loop
      vertex 56.7 16.1314 0
      vertex 56.7 16.1314 1.2
      vertex 41.7 1.13138 1.2
    endloop
  endfacet
  facet normal 0.707106 0.707107 0
    outer loop
      vertex 25.5686 15 0
      vertex 40.5686 0 1.2
      vertex 40.5686 0 0
    endloop
  endfacet
  facet normal 0.707106 0.707107 -0
    outer loop
      vertex 25.5686 15 0
      vertex 25.5686 15 1.2
      vertex 40.5686 0 1.2
    endloop
  endfacet
  facet normal 2.98389e-007 1 0
    outer loop
      vertex -25.5686 15 0
      vertex 25.5686 15 1.2
      vertex 25.5686 15 0
    endloop
  endfacet
  facet normal 2.98389e-007 1 -0
    outer loop
      vertex -25.5686 15 0
      vertex -25.5686 15 1.2
      vertex 25.5686 15 1.2
    endloop
  endfacet
  facet normal -0.707106 0.707107 0
    outer loop
      vertex -40.5686 0 0
      vertex -25.5686 15 1.2
      vertex -25.5686 15 0
    endloop
  endfacet
  facet normal -0.707106 0.707107 0
    outer loop
      vertex -40.5686 0 0
      vertex -40.5686 0 1.2
      vertex -25.5686 15 1.2
    endloop
  endfacet
  facet normal -0.707106 -0.707107 0
    outer loop
      vertex -25.5686 -15 0
      vertex -40.5686 0 1.2
      vertex -40.5686 0 0
    endloop
  endfacet
  facet normal -0.707106 -0.707107 0
    outer loop
      vertex -25.5686 -15 0
      vertex -25.5686 -15 1.2
      vertex -40.5686 0 1.2
    endloop
  endfacet
  facet normal -2.98389e-007 -1 0
    outer loop
      vertex 25.5686 -15 0
      vertex -25.5686 -15 1.2
      vertex -25.5686 -15 0
    endloop
  endfacet
  facet normal -2.98389e-007 -1 0
    outer loop
      vertex 25.5686 -15 0
      vertex 25.5686 -15 1.2
      vertex -25.5686 -15 1.2
    endloop
  endfacet
  facet normal 0.707106 -0.707107 0
    outer loop
      vertex 40.5686 0 0
      vertex 25.5686 -15 1.2
      vertex 25.5686 -15 0
    endloop
  endfacet
  facet normal 0.707106 -0.707107 0
    outer loop
      vertex 40.5686 0 0
      vertex 40.5686 0 1.2
      vertex 25.5686 -15 1.2
    endloop
  endfacet
  facet normal 1 0 0
    outer loop
      vertex -26.7 -16.1314 0
      vertex -26.7 -67.2686 1.2
      vertex -26.7 -67.2686 0
    endloop
  endfacet
  facet normal 1 0 -0
    outer loop
      vertex -26.7 -16.1314 0
      vertex -26.7 -16.1314 1.2
      vertex -26.7 -67.2686 1.2
    endloop
  endfacet
  facet normal 0.707107 0.707107 0
    outer loop
      vertex -41.7 -1.13138 0
      vertex -26.7 -16.1314 1.2
      vertex -26.7 -16.1314 0
    endloop
  endfacet
  facet normal 0.707107 0.707107 -0
    outer loop
      vertex -41.7 -1.13138 0
      vertex -41.7 -1.13138 1.2
      vertex -26.7 -16.1314 1.2
    endloop
  endfacet
  facet normal -0.707107 0.707107 0
    outer loop
      vertex -56.7 -16.1314 0
      vertex -41.7 -1.13138 1.2
      vertex -41.7 -1.13138 0
    endloop
  endfacet
  facet normal -0.707107 0.707107 0
    outer loop
      vertex -56.7 -16.1314 0
      vertex -56.7 -16.1314 1.2
      vertex -41.7 -1.13138 1.2
    endloop
  endfacet
  facet normal -1 0 0
    outer loop
      vertex -56.7 -67.2686 0
      vertex -56.7 -16.1314 1.2
      vertex -56.7 -16.1314 0
    endloop
  endfacet
  facet normal -1 0 0
    outer loop
      vertex -56.7 -67.2686 0
      vertex -56.7 -67.2686 1.2
      vertex -56.7 -16.1314 1.2
    endloop
  endfacet
  facet normal -0.707107 -0.707107 0
    outer loop
      vertex -41.7 -82.2686 0
      vertex -56.7 -67.2686 1.2
      vertex -56.7 -67.2686 0
    endloop
  endfacet
  facet normal -0.707107 -0.707107 0
    outer loop
      vertex -41.7 -82.2686 0
      vertex -41.7 -82.2686 1.2
      vertex -56.7 -67.2686 1.2
    endloop
  endfacet
  facet normal 0.707107 -0.707107 0
    outer loop
      vertex -26.7 -67.2686 0
      vertex -41.7 -82.2686 1.2
      vertex -41.7 -82.2686 0
    endloop
  endfacet
  facet normal 0.707107 -0.707107 0
    outer loop
      vertex -26.7 -67.2686 0
      vertex -26.7 -67.2686 1.2
      vertex -41.7 -82.2686 1.2
    endloop
  endfacet
  facet normal 1 0 0
    outer loop
      vertex 56.7 -16.1314 0
      vertex 56.7 -67.2686 1.2
      vertex 56.7 -67.2686 0
    endloop
  endfacet
  facet normal 1 0 -0
    outer loop
      vertex 56.7 -16.1314 0
      vertex 56.7 -16.1314 1.2
      vertex 56.7 -67.2686 1.2
    endloop
  endfacet
  facet normal 0.707107 0.707107 0
    outer loop
      vertex 41.7 -1.13138 0
      vertex 56.7 -16.1314 1.2
      vertex 56.7 -16.1314 0
    endloop
  endfacet
  facet normal 0.707107 0.707107 -0
    outer loop
      vertex 41.7 -1.13138 0
      vertex 41.7 -1.13138 1.2
      vertex 56.7 -16.1314 1.2
    endloop
  endfacet
  facet normal -0.707107 0.707107 0
    outer loop
      vertex 26.7 -16.1314 0
      vertex 41.7 -1.13138 1.2
      vertex 41.7 -1.13138 0
    endloop
  endfacet
  facet normal -0.707107 0.707107 0
    outer loop
      vertex 26.7 -16.1314 0
      vertex 26.7 -16.1314 1.2
      vertex 41.7 -1.13138 1.2
    endloop
  endfacet
  facet normal -1 0 0
    outer loop
      vertex 26.7 -67.2686 0
      vertex 26.7 -16.1314 1.2
      vertex 26.7 -16.1314 0
    endloop
  endfacet
  facet normal -1 0 0
    outer loop
      vertex 26.7 -67.2686 0
      vertex 26.7 -67.2686 1.2
      vertex 26.7 -16.1314 1.2
    endloop
  endfacet
  facet normal -0.707107 -0.707107 0
    outer loop
      vertex 41.7 -82.2686 0
      vertex 26.7 -67.2686 1.2
      vertex 26.7 -67.2686 0
    endloop
  endfacet
  facet normal -0.707107 -0.707107 0
    outer loop
      vertex 41.7 -82.2686 0
      vertex 41.7 -82.2686 1.2
      vertex 26.7 -67.2686 1.2
    endloop
  endfacet
  facet normal 0.707107 -0.707107 0
    outer loop
      vertex 56.7 -67.2686 0
      vertex 41.7 -82.2686 1.2
      vertex 41.7 -82.2686 0
    endloop
  endfacet
  facet normal 0.707107 -0.707107 0
    outer loop
      vertex 56.7 -67.2686 0
      vertex 56.7 -67.2686 1.2
      vertex 41.7 -82.2686 1.2
    endloop
  endfacet
  facet normal 0.707107 0.707107 0
    outer loop
      vertex 25.5686 -68.4 0
      vertex 40.5686 -83.4 1.2
      vertex 40.5686 -83.4 0
    endloop
  endfacet
  facet normal 0.707107 0.707107 -0
    outer loop
      vertex 25.5686 -68.4 0
      vertex 25.5686 -68.4 1.2
      vertex 40.5686 -83.4 1.2
    endloop
  endfacet
  facet normal 0 1 0
    outer loop
      vertex -25.5686 -68.4 0
      vertex 25.5686 -68.4 1.2
      vertex 25.5686 -68.4 0
    endloop
  endfacet
  facet normal 0 1 0
    outer loop
      vertex -25.5686 -68.4 0
      vertex -25.5686 -68.4 1.2
      vertex 25.5686 -68.4 1.2
    endloop
  endfacet
  facet normal -0.707106 0.707107 0
    outer loop
      vertex -40.5686 -83.4 0
      vertex -25.5686 -68.4 1.2
      vertex -25.5686 -68.4 0
    endloop
  endfacet
  facet normal -0.707106 0.707107 0
    outer loop
      vertex -40.5686 -83.4 0
      vertex -40.5686 -83.4 1.2
      vertex -25.5686 -68.4 1.2
    endloop
  endfacet
  facet normal -0.707107 -0.707107 0
    outer loop
      vertex -25.5686 -98.4 0
      vertex -40.5686 -83.4 1.2
      vertex -40.5686 -83.4 0
    endloop
  endfacet
  facet normal -0.707107 -0.707107 0
    outer loop
      vertex -25.5686 -98.4 0
      vertex -25.5686 -98.4 1.2
      vertex -40.5686 -83.4 1.2
    endloop
  endfacet
  facet normal 0 -1 0
    outer loop
      vertex 25.5686 -98.4 0
      vertex -25.5686 -98.4 1.2
      vertex -25.5686 -98.4 0
    endloop
  endfacet
  facet normal 0 -1 0
    outer loop
      vertex 25.5686 -98.4 0
      vertex 25.5686 -98.4 1.2
      vertex -25.5686 -98.4 1.2
    endloop
  endfacet
  facet normal 0.707106 -0.707107 0
    outer loop
      vertex 40.5686 -83.4 0
      vertex 25.5686 -98.4 1.2
      vertex 25.5686 -98.4 0
    endloop
  endfacet
  facet normal 0.707106 -0.707107 0
    outer loop
      vertex 40.5686 -83.4 0
      vertex 40.5686 -83.4 1.2
      vertex 25.5686 -98.4 1.2
    endloop
  endfacet
endsolid OpenSCAD_Model
