  0
SECTION
  2
BLOCKS
  0
ENDSEC
  0
SECTION
  2
ENTITIES
  0
LINE
  8
0
 10
-58.3
 20
-100
 11
58.3
 21
-100
  0
LINE
  8
0
 10
58.3
 20
-100
 11
58.3
 21
100
  0
LINE
  8
0
 10
58.3
 20
100
 11
-58.3
 21
100
  0
LINE
  8
0
 10
-58.3
 20
100
 11
-58.3
 21
-100
  0
LINE
  8
0
 10
-56.7
 20
-67.2686
 11
-56.7
 21
-16.1314
  0
LINE
  8
0
 10
-56.7
 20
-16.1314
 11
-41.7
 21
-1.13138
  0
LINE
  8
0
 10
-41.7
 20
-1.13138
 11
-26.7
 21
-16.1314
  0
LINE
  8
0
 10
-26.7
 20
-16.1314
 11
-26.7
 21
-67.2686
  0
LINE
  8
0
 10
-26.7
 20
-67.2686
 11
-41.7
 21
-82.2686
  0
LINE
  8
0
 10
-41.7
 20
-82.2686
 11
-56.7
 21
-67.2686
  0
LINE
  8
0
 10
-56.7
 20
16.1314
 11
-56.7
 21
67.2686
  0
LINE
  8
0
 10
-56.7
 20
67.2686
 11
-41.7
 21
82.2686
  0
LINE
  8
0
 10
-41.7
 20
82.2686
 11
-26.7
 21
67.2686
  0
LINE
  8
0
 10
-26.7
 20
67.2686
 11
-26.7
 21
16.1314
  0
LINE
  8
0
 10
-26.7
 20
16.1314
 11
-41.7
 21
1.13138
  0
LINE
  8
0
 10
-41.7
 20
1.13138
 11
-56.7
 21
16.1314
  0
LINE
  8
0
 10
-51.449
 20
-91.9786
 11
-51.449
 21
-91.0054
  0
LINE
  8
0
 10
-51.449
 20
-91.0054
 11
-50.9229
 21
-90.1868
  0
LINE
  8
0
 10
-50.9229
 20
-90.1868
 11
-50.0378
 21
-89.7826
  0
LINE
  8
0
 10
-50.0378
 20
-89.7826
 11
-49.0746
 21
-89.9211
  0
LINE
  8
0
 10
-49.0746
 20
-89.9211
 11
-48.3392
 21
-90.5583
  0
LINE
  8
0
 10
-48.3392
 20
-90.5583
 11
-48.065
 21
-91.492
  0
LINE
  8
0
 10
-48.065
 20
-91.492
 11
-48.3392
 21
-92.4257
  0
LINE
  8
0
 10
-48.3392
 20
-92.4257
 11
-49.0746
 21
-93.0629
  0
LINE
  8
0
 10
-49.0746
 20
-93.0629
 11
-50.0378
 21
-93.2014
  0
LINE
  8
0
 10
-50.0378
 20
-93.2014
 11
-50.9229
 21
-92.7972
  0
LINE
  8
0
 10
-50.9229
 20
-92.7972
 11
-51.449
 21
-91.9786
  0
LINE
  8
0
 10
-51.449
 20
-0.486551
 11
-51.449
 21
0.486551
  0
LINE
  8
0
 10
-51.449
 20
0.486551
 11
-50.9229
 21
1.30518
  0
LINE
  8
0
 10
-50.9229
 20
1.30518
 11
-50.0378
 21
1.70942
  0
LINE
  8
0
 10
-50.0378
 20
1.70942
 11
-49.0746
 21
1.57093
  0
LINE
  8
0
 10
-49.0746
 20
1.57093
 11
-48.3392
 21
0.933686
  0
LINE
  8
0
 10
-48.3392
 20
0.933686
 11
-48.065
 21
0
  0
LINE
  8
0
 10
-48.065
 20
0
 11
-48.3392
 21
-0.933686
  0
LINE
  8
0
 10
-48.3392
 20
-0.933686
 11
-49.0746
 21
-1.57093
  0
LINE
  8
0
 10
-49.0746
 20
-1.57093
 11
-50.0378
 21
-1.70942
  0
LINE
  8
0
 10
-50.0378
 20
-1.70942
 11
-50.9229
 21
-1.30518
  0
LINE
  8
0
 10
-50.9229
 20
-1.30518
 11
-51.449
 21
-0.486551
  0
LINE
  8
0
 10
-51.449
 20
91.0054
 11
-51.449
 21
91.9786
  0
LINE
  8
0
 10
-51.449
 20
91.9786
 11
-50.9229
 21
92.7972
  0
LINE
  8
0
 10
-50.9229
 20
92.7972
 11
-50.0378
 21
93.2014
  0
LINE
  8
0
 10
-50.0378
 20
93.2014
 11
-49.0746
 21
93.0629
  0
LINE
  8
0
 10
-49.0746
 20
93.0629
 11
-48.3392
 21
92.4257
  0
LINE
  8
0
 10
-48.3392
 20
92.4257
 11
-48.065
 21
91.492
  0
LINE
  8
0
 10
-48.065
 20
91.492
 11
-48.3392
 21
90.5583
  0
LINE
  8
0
 10
-48.3392
 20
90.5583
 11
-49.0746
 21
89.9211
  0
LINE
  8
0
 10
-49.0746
 20
89.9211
 11
-50.0378
 21
89.7826
  0
LINE
  8
0
 10
-50.0378
 20
89.7826
 11
-50.9229
 21
90.1868
  0
LINE
  8
0
 10
-50.9229
 20
90.1868
 11
-51.449
 21
91.0054
  0
LINE
  8
0
 10
-40.5686
 20
-83.4
 11
-25.5686
 21
-68.4
  0
LINE
  8
0
 10
-25.5686
 20
-68.4
 11
25.5686
 21
-68.4
  0
LINE
  8
0
 10
25.5686
 20
-68.4
 11
40.5686
 21
-83.4
  0
LINE
  8
0
 10
40.5686
 20
-83.4
 11
25.5686
 21
-98.4
  0
LINE
  8
0
 10
25.5686
 20
-98.4
 11
-25.5686
 21
-98.4
  0
LINE
  8
0
 10
-25.5686
 20
-98.4
 11
-40.5686
 21
-83.4
  0
LINE
  8
0
 10
-40.5686
 20
0
 11
-25.5686
 21
15
  0
LINE
  8
0
 10
-25.5686
 20
15
 11
25.5686
 21
15
  0
LINE
  8
0
 10
25.5686
 20
15
 11
40.5686
 21
0
  0
LINE
  8
0
 10
40.5686
 20
0
 11
25.5686
 21
-15
  0
LINE
  8
0
 10
25.5686
 20
-15
 11
-25.5686
 21
-15
  0
LINE
  8
0
 10
-25.5686
 20
-15
 11
-40.5686
 21
0
  0
LINE
  8
0
 10
-40.5686
 20
83.4
 11
-25.5686
 21
98.4
  0
LINE
  8
0
 10
-25.5686
 20
98.4
 11
25.5686
 21
98.4
  0
LINE
  8
0
 10
25.5686
 20
98.4
 11
40.5686
 21
83.4
  0
LINE
  8
0
 10
40.5686
 20
83.4
 11
25.5686
 21
68.4
  0
LINE
  8
0
 10
25.5686
 20
68.4
 11
-25.5686
 21
68.4
  0
LINE
  8
0
 10
-25.5686
 20
68.4
 11
-40.5686
 21
83.4
  0
LINE
  8
0
 10
-24.7686
 20
-66.4686
 11
-24.7686
 21
-16.9314
  0
LINE
  8
0
 10
-24.7686
 20
-16.9314
 11
24.7686
 21
-16.9314
  0
LINE
  8
0
 10
24.7686
 20
-16.9314
 11
24.7686
 21
-66.4686
  0
LINE
  8
0
 10
24.7686
 20
-66.4686
 11
-24.7686
 21
-66.4686
  0
LINE
  8
0
 10
-24.7686
 20
16.9314
 11
-24.7686
 21
66.4686
  0
LINE
  8
0
 10
-24.7686
 20
66.4686
 11
24.7686
 21
66.4686
  0
LINE
  8
0
 10
24.7686
 20
66.4686
 11
24.7686
 21
16.9314
  0
LINE
  8
0
 10
24.7686
 20
16.9314
 11
-24.7686
 21
16.9314
  0
LINE
  8
0
 10
26.7
 20
-67.2686
 11
26.7
 21
-16.1314
  0
LINE
  8
0
 10
26.7
 20
-16.1314
 11
41.7
 21
-1.13138
  0
LINE
  8
0
 10
41.7
 20
-1.13138
 11
56.7
 21
-16.1314
  0
LINE
  8
0
 10
56.7
 20
-16.1314
 11
56.7
 21
-67.2686
  0
LINE
  8
0
 10
56.7
 20
-67.2686
 11
41.7
 21
-82.2686
  0
LINE
  8
0
 10
41.7
 20
-82.2686
 11
26.7
 21
-67.2686
  0
LINE
  8
0
 10
26.7
 20
16.1314
 11
26.7
 21
67.2686
  0
LINE
  8
0
 10
26.7
 20
67.2686
 11
41.7
 21
82.2686
  0
LINE
  8
0
 10
41.7
 20
82.2686
 11
56.7
 21
67.2686
  0
LINE
  8
0
 10
56.7
 20
67.2686
 11
56.7
 21
16.1314
  0
LINE
  8
0
 10
56.7
 20
16.1314
 11
41.7
 21
1.13138
  0
LINE
  8
0
 10
41.7
 20
1.13138
 11
26.7
 21
16.1314
  0
LINE
  8
0
 10
48.135
 20
-91.9786
 11
48.135
 21
-91.0054
  0
LINE
  8
0
 10
48.135
 20
-91.0054
 11
48.6611
 21
-90.1868
  0
LINE
  8
0
 10
48.6611
 20
-90.1868
 11
49.5462
 21
-89.7826
  0
LINE
  8
0
 10
49.5462
 20
-89.7826
 11
50.5094
 21
-89.9211
  0
LINE
  8
0
 10
50.5094
 20
-89.9211
 11
51.2448
 21
-90.5583
  0
LINE
  8
0
 10
51.2448
 20
-90.5583
 11
51.519
 21
-91.492
  0
LINE
  8
0
 10
51.519
 20
-91.492
 11
51.2448
 21
-92.4257
  0
LINE
  8
0
 10
51.2448
 20
-92.4257
 11
50.5094
 21
-93.0629
  0
LINE
  8
0
 10
50.5094
 20
-93.0629
 11
49.5462
 21
-93.2014
  0
LINE
  8
0
 10
49.5462
 20
-93.2014
 11
48.6611
 21
-92.7972
  0
LINE
  8
0
 10
48.6611
 20
-92.7972
 11
48.135
 21
-91.9786
  0
LINE
  8
0
 10
48.135
 20
-0.486551
 11
48.135
 21
0.486551
  0
LINE
  8
0
 10
48.135
 20
0.486551
 11
48.6611
 21
1.30518
  0
LINE
  8
0
 10
48.6611
 20
1.30518
 11
49.5462
 21
1.70942
  0
LINE
  8
0
 10
49.5462
 20
1.70942
 11
50.5094
 21
1.57093
  0
LINE
  8
0
 10
50.5094
 20
1.57093
 11
51.2448
 21
0.933686
  0
LINE
  8
0
 10
51.2448
 20
0.933686
 11
51.519
 21
0
  0
LINE
  8
0
 10
51.519
 20
0
 11
51.2448
 21
-0.933686
  0
LINE
  8
0
 10
51.2448
 20
-0.933686
 11
50.5094
 21
-1.57093
  0
LINE
  8
0
 10
50.5094
 20
-1.57093
 11
49.5462
 21
-1.70942
  0
LINE
  8
0
 10
49.5462
 20
-1.70942
 11
48.6611
 21
-1.30518
  0
LINE
  8
0
 10
48.6611
 20
-1.30518
 11
48.135
 21
-0.486551
  0
LINE
  8
0
 10
48.135
 20
91.0054
 11
48.135
 21
91.9786
  0
LINE
  8
0
 10
48.135
 20
91.9786
 11
48.6611
 21
92.7972
  0
LINE
  8
0
 10
48.6611
 20
92.7972
 11
49.5462
 21
93.2014
  0
LINE
  8
0
 10
49.5462
 20
93.2014
 11
50.5094
 21
93.0629
  0
LINE
  8
0
 10
50.5094
 20
93.0629
 11
51.2448
 21
92.4257
  0
LINE
  8
0
 10
51.2448
 20
92.4257
 11
51.519
 21
91.492
  0
LINE
  8
0
 10
51.519
 20
91.492
 11
51.2448
 21
90.5583
  0
LINE
  8
0
 10
51.2448
 20
90.5583
 11
50.5094
 21
89.9211
  0
LINE
  8
0
 10
50.5094
 20
89.9211
 11
49.5462
 21
89.7826
  0
LINE
  8
0
 10
49.5462
 20
89.7826
 11
48.6611
 21
90.1868
  0
LINE
  8
0
 10
48.6611
 20
90.1868
 11
48.135
 21
91.0054
  0
ENDSEC
  0
SECTION
  2
OBJECTS
  0
DICTIONARY
  0
ENDSEC
  0
EOF
